<?xml version="1.0" encoding="UTF-8"?>
<svg id="Layer_1" data-name="Layer 1" xmlns="http://www.w3.org/2000/svg" viewBox="0 0 331.67 372.17">
  <path d="M230.48,207.58l-14.38,23.44c-2.58,2.36-5.56,2.9-8.56,1.01l-19.4-43.14c-6.62-1.87-15.44-5.58-22.11-1.92-1.29.71-3.68,6.33-4.6,8.2-7.37,14.99-13.52,30.61-21.21,45.46-1.94,2.4-5.29,2.98-7.94,1.39-4.21-2.53-12.05-20.54-15.31-25.51-1.51-.96-23.72,4.41-28.02,4.44-5.49.04-7.51-3.95-6.02-9.06l24.42-51.96c-6.42-2.77-12.45-5.2-16.84-10.96-9.51-12.49-1.7-23.72-3.51-36.92-.88-6.45-8.05-14.32-9.35-20.61-3.92-18.86,7.24-22.61,17.21-33.81,9.42-10.56,3.68-27.34,18.2-36.48,8.5-5.35,16.15-3.58,25.37-4.62,14.26-1.61,20.11-17.89,37.51-16.45,13.7,1.14,20.24,15,33.02,16.45,9.36,1.06,17.98-.83,26.24,5.25,10.48,7.72,9.13,16.97,12.75,27.7,5.35,15.9,24.48,16.24,22.12,39.28-.72,7.06-6.24,13.37-8.61,19.86-5.09,13.94,6.37,26.93-5.25,41.17-3.26,3.99-7.34,5.9-11.57,8.59l19.83,45.27c4.32,18.89-28.65.77-34,3.92ZM171.64,12.23c-7.36,1.17-15.94,11.84-24.35,14.63-8.47,2.81-22.26.13-28.66,5.08-5.91,4.57-6.33,20.17-10.41,27.79-4.28,8-16.87,14.44-18.82,22.43-2.29,9.34,8.41,19.16,9.62,28.4,1.17,8.91-3.28,22.27-.06,29.26,3.41,7.42,18.62,9.87,25.64,15.58,6.76,5.5,12.16,19.53,18.74,22.47,8.35,3.73,20.9-4.71,30.38-4.71,8.59,0,19.15,6.68,26.93,5.77,8.52-1,12.64-13.07,17.72-19.01,8.17-9.54,15.66-8.98,24.95-14.77,11.39-7.09,4.03-20,4.48-30.71.5-11.79,11.9-21.93,10.25-32.35-.94-5.94-14.99-15.58-18.82-22.38-3.95-7-3.74-14.36-6.27-21.44-4.85-13.58-20.73-7.81-31.72-11.01-10.04-2.93-19.79-16.59-29.58-15.03ZM234.04,163.29c-3.61-2.53-12.13,13.2-13.91,15.62-4.23,5.73-9.96,11.17-17.56,11.3l9.01,23.2c1.38.33,1.45-.47,2.12-1.24,2.83-3.25,8.52-16.31,11.9-17.31,4.52-1.34,22.53,4.3,23.47,3.58l-15.04-35.14ZM150.08,190.96c-17.27,1.18-23.39-13.8-31.87-25.44l-19.12,41.15c1.55,1.38,18.56-4.39,23.06-2.43,3.69,1.61,9.66,15.94,12.56,19.64l15.37-32.93Z"/>
  <path d="M285.08,154.65c.53-5.76,2.92-13.72,6.14-18.57,11.3-17.06,36.44-9.34,38.14,10.31,1.93,22.33,1.71,48.47,2.25,71.11.18,7.24-.13,14.52-.06,21.77.17,18.61,1.42,24.42-11.58,39.28-13.82,15.79-31.33,29.09-44.62,45.29l-.02,5.6c19.68-2.1,21.56,10.4,20.28,26.6-.62,7.89-3.73,14.38-12.4,15.32-26.43,2.85-57.05-2.89-83.94-.82-11.62-2.3-12.01-11.35-11.73-21.3.08-2.68.48-8.62.96-11.02,1.42-7.12,11.31-10.77,17.83-9.52.83-14.99-1.13-31.17,0-46.03,1.86-24.32,15.73-28.97,31.5-43.41,6.7-6.14,19.18-21.99,27.54-23.41,7.87-1.34,14.27.95,19.7,6.56v-67.74ZM218.33,281.9c-1.49,14.72,1.11,31.81,0,46.78l45,.75c.3-4.32-1.03-9.25,1.49-13.11l49.38-49.53c7.9-10.27,5.46-16.04,5.35-27.54-.32-31.23-1.55-62.29-2.26-93.56-3.39-8.58-13.05-10.03-17.34-.93-7.02,14.88-1.02,59.61-2.87,78.72-.48,4.95-2.87,10.58-5.39,14.83-4.48,7.56-23.47,27.82-30.59,33.1-5.13,3.81-11.33,1.23-10.5-5.19.55-4.23,16.05-16.43,19.87-20.64,2.19-2.41,6.65-7.26,6.98-10.32.75-6.96-7.6-9.96-12.88-6.05-5.24,5.7-10.54,11.47-16.23,16.74-11.55,10.71-28.28,18.89-30.01,35.92ZM283.58,357.51c.73-4.35-.54-10.4,0-14.97l-83.25-1.88-.42,17.27,81.82,1.5.97-.17c.13-.58.81-1.35.88-1.75Z"/>
  <path d="M46.58,222.4c5.42-5.6,11.83-7.9,19.7-6.56,8.37,1.42,20.83,17.27,27.54,23.41,15.8,14.45,29.63,19.03,31.5,43.41,1.14,14.86-.82,31.04,0,46.03,6.53-1.25,16.41,2.4,17.83,9.52.48,2.41.88,8.34.96,11.02.29,9.95-.11,19-11.73,21.3-26.89-2.07-57.51,3.67-83.94.82-8.67-.94-11.78-7.43-12.4-15.32-1.28-16.19.6-28.7,20.28-26.6-.17-1.79.3-3.89-.02-5.6-.59-3.12-39.01-38.89-44.62-45.29C-1.31,263.69-.06,257.88.11,239.27c.17-17.84.93-35.41,1.5-53.15.42-13.06-.67-28.4.71-41.21,1.77-16.41,23.44-24.45,35.55-12.26,4.29,4.32,8.71,16.08,8.71,22v67.74ZM113.33,328.69v-46.78c0-15.1-20.55-27.22-30.76-36.67-5.43-5.02-10.48-10.55-15.48-15.99-5.28-3.91-13.63-.91-12.88,6.05.33,3.1,4.78,7.86,6.98,10.32,3.82,4.28,19.33,16.43,19.87,20.64.83,6.42-5.37,9-10.5,5.19-7.11-5.28-26.1-25.54-30.59-33.1-2.52-4.25-4.91-9.88-5.39-14.83-1.85-19.12,4.14-63.84-2.87-78.72-4.29-9.1-13.95-7.65-17.34.93-.69,31.27-1.97,62.33-2.26,93.56-.12,13.05-2.7,18.09,6.7,29.18,14.07,16.59,33.46,31.41,48.02,47.88,2.52,3.86,1.19,8.79,1.49,13.11l45-.75ZM48.08,342.54v14.97c0,.27.77,1.21.88,1.75l.97.17,81.82-1.5-.42-17.27-83.25,1.88Z"/>
  <path d="M168.68,36.23c49.34-4.11,82.01,50.6,54.76,92.08-23.3,35.46-76.12,35.48-99.47,0-24.82-37.72-.12-88.35,44.71-92.08ZM169.43,48.21c-61.64,5.23-54.4,99.36,8.01,94.83,61.8-4.49,55.53-100.22-8.01-94.83Z"/>
  <path d="M213.64,346.1c4.87,4.59-2.51,11.96-7.11,7.1-4.11-4.34,2.76-11.2,7.11-7.1Z"/>
  <path d="M125.13,353.2c-4.6,4.86-11.99-2.51-7.11-7.1,4.35-4.1,11.22,2.76,7.11,7.1Z"/>
  <path d="M200.87,71.34c6.22-1.37,10.17,5,6.09,9.85l-42.67,38.25c-2.38.95-4.59.57-6.68-.74-1.58-.99-17.72-17.3-18.21-18.5-2.13-5.15,1.63-9.87,7.14-8.65,3.81.84,13.8,14.38,15.81,14.02l38.52-34.23Z"/>
</svg>