<?xml version="1.0" encoding="UTF-8"?>
<svg id="Layer_1" data-name="Layer 1" xmlns="http://www.w3.org/2000/svg" viewBox="0 0 384.52 338.87">
  <path d="M384.26,168.04c.35,3.76.35,10.46,0,14.22-2.37,25.69-21.42,50.01-45.36,59.15-3.29,1.25-13.5,4.47-16.52,4.47h-185.25l-1.12,1.12v29.57h10.88c1.02,0,6.46,2.78,7.49,3.75,5.09,4.77,5.42,13.08,1.46,18.66-15.06,11.44-32.59,38.33-52.42,39.75-16.04,1.15-22.5-5.56-33.42-15.37-5.8-5.21-22.66-19.99-26.25-25.45-3.86-5.89-2.23-14.15,3.39-18.34.91-.68,5.29-3,5.99-3h10.88v-30.69c-9.01.6-18-1.37-26.23-4.89-4.85-2.07-17.74-7.94-12.46-14.63,4.25-5.38,12.83,2.58,17.92,4.68,6.72,2.78,13.44,4.19,20.76,3.61v-14.6c0-8.67,10.75-17.61,19.09-18.37,7.12-.65,32.93-.86,38.82.99,5.28,1.65,14.09,10.33,14.09,15.88v16.09h185.62c8.45,0,24.24-8.69,30.73-14.24,33.8-28.93,24.26-85.23-17.21-101.05-4.06-1.55-16.29-3.49-17.97-6.02-1.99-3.01.21-8.19.32-11.56.56-16.35-1.6-30.91-9.1-45.55-1.75-3.41-8.96-12.57-9.47-14.52-.96-3.67,1.66-7.61,5.45-7.61,4.4,0,10.15,10.27,12.22,13.94,9.85,17.44,13.88,37.13,11.72,57.15,25.51,6.55,46.21,25.31,53.3,50.86.9,3.25,2.33,8.8,2.63,11.97ZM82.54,213.11c-3.72.83-6.37,5-7.24,8.5l-.2,62.68c-.87,1.42-2.33,3.19-3.99,3.51-3.42.65-19.69-2.13-18.27,3.24.22.83,7.89,8.18,9.27,9.53,5.67,5.49,22.82,22.61,28.72,25.23,22.26,9.89,39.02-21.84,54.93-32.35,2.01-2.07,2.1-4.98-1.15-5.61-5.19-.99-17.54,2.6-19.52-3.72l-.32-62.56c-.55-4.55-4.11-8.07-8.62-8.61-5.1-.61-29.22-.8-33.61.17Z"/>
  <path d="M.26,177.02c.29-3,1.73-8.16,2.63-11.22,7.96-27.03,32.9-44.82,61.03-45.01,6.42-34.35,43.66-55.83,76.59-42.57C151.94,13.65,224.65-20.29,282.01,12.96c4.18,2.42,17.54,9.73,9.99,15.47-5.05,3.84-13.28-4.54-18.24-7.23-44.46-24.12-101.24-2.53-118.27,44.65-2.8,7.77-3,13.99-4.81,21.4-2.22,9.1-11.29,2.11-16.35.48-22.43-7.23-48.15,4.12-56.66,26.21-1.45,3.77-3.16,15.53-4.72,17-2.98,2.81-8.85.93-13.08,1.17-36.18,2.08-57.07,38.7-44.25,71.84.89,2.3,3.76,6.15,4.09,7.91,1.19,6.49-5.98,9.8-10.35,4.33-3.82-4.79-8.51-19.6-9.13-25.7-.35-3.45-.34-10.01,0-13.47Z"/>
  <path d="M225.09,114.35c29.17-3.21,52.18,25.49,42.95,53.34-10.64,32.11-55.54,37.6-73.09,8.52-15.47-25.63.31-58.58,30.15-61.86ZM226.59,125.58c-24.61,2.55-35.61,32.95-17.75,50.24,14.88,14.41,40.47,9.2,47.93-10.39,7.75-20.34-8.47-42.1-30.18-39.85Z"/>
  <path d="M151.59,114.35c7.16-.79,15.46.78,21.94,3.89,4.2,2.02,9.73,5.01,6.64,10.42-3.63,6.35-11.2-.62-15.81-2.01-23.86-7.19-45.18,16.87-35.47,39.89,6.25,14.81,25.39,22.52,39.59,14.08,3.9-2.32,9.79-10.62,14.08-4.02,5.53,8.52-14.18,17.55-20.76,18.31-55.84,6.5-63.12-74.74-10.21-80.55Z"/>
  <path d="M298.76,189h12.38c2.2,0,4.96,6.18,1.17,9.4-3.29,2.8-24.48,2.59-28.1.26-1.35-.87-2.48-3.73-2.32-5.26.47-4.32,13.38-18.63,16.44-23.92,1.89-3.27,4.29-6.93,1.44-10.48-8.19-3.25-6.71,2.49-9.96,5.72-5.9,5.86-12.76-2.73-6.37-11.6,10.32-14.33,35.29-3.27,27.46,16.92-2.7,6.96-9.14,12.15-12.13,18.96Z"/>
</svg>