<?xml version="1.0" encoding="UTF-8"?>
<svg id="Layer_1" data-name="Layer 1" xmlns="http://www.w3.org/2000/svg" viewBox="0 0 271.5 271.5">
  <g>
    <path d="M135.75,271C61.17,271,.5,210.33.5,135.75S61.17.5,135.75.5s135.25,60.67,135.25,135.25-60.67,135.25-135.25,135.25Z" fill="#7d9a6c"/>
    <path d="M135.75,1c35.99,0,69.83,14.02,95.28,39.47,25.45,25.45,39.47,59.29,39.47,95.28s-14.02,69.83-39.47,95.28c-25.45,25.45-59.29,39.47-95.28,39.47s-69.83-14.02-95.28-39.47C15.02,205.58,1,171.74,1,135.75S15.02,65.92,40.47,40.47C65.92,15.02,99.76,1,135.75,1M135.75,0C60.78,0,0,60.78,0,135.75s60.78,135.75,135.75,135.75,135.75-60.78,135.75-135.75S210.72,0,135.75,0h0Z" fill="#7d9a6c"/>
  </g>
  <path d="M165.81,159.57h-20.05c-3.61,0-6.36-3.37-5.45-6.84,3.01-11.44,13.35-19.97,25.5-19.97s22.49,8.53,25.5,19.97c.91,3.47-1.84,6.84-5.45,6.84h-20.05Z" fill="#f9f5e3" stroke="#f9f5e3" stroke-miterlimit="10" stroke-width=".25"/>
  <path d="M176.71,213.36c-1.72,1.22-23.28,16.02-50.73,11.64-7.22-1.15-13.09-3.34-16.94-5.08-10.75-4.86-18.46-11.85-24.1-18.08-5.42-5.99-9.1-12.08-11.61-17.32-1.57-3.28.22-7.16,3.71-8.18.02,0,.04-.01.06-.02.03,0,.04-.01.04-.01h.02s3.96-.89,6.21-.98c.04,0,.07,0,.09,0,1.59.04,3.29.15,5.07.33,1.21.12,2.37.28,3.47.45-.05,0-.07,0-.07-.01,0,0,.06,0,.19.01,1.76.41,3.57.93,5.42,1.55.25.08.5.17.74.26.01,0,.02,0,.03.01.01,0,.02,0,.03.01,1.31.6,2.67,1.27,4.06,2,1.14.6,2.23,1.21,3.26,1.82,0,0,.01,0,.02.01,0,0,.01,0,.02.01,2.15,1.38,4.33,2.81,6.53,4.3,3.98,2.7,7.78,5.4,11.39,8.1,0,0,0,0,.01,0s0,0,.01,0c1.32.91,2.77,1.84,4.35,2.76,1.37.79,2.69,1.5,3.96,2.13,0,0,.02.01.03.01,0,0,.02,0,.03.01l6.65,2.52.37.13,5.76,1.76s.02,0,.03,0c.02,0,.04,0,.05,0,.03,0,2.42.27,5.81.65.27-.02.54-.04.81-.05.35-.1.7-.2,1.05-.29.14-.11.27-.23.41-.34,9.74,1.32,23.52,1.47,34.94-6.47,7.59-5.28,11.47-12.28,11.77-12.06.43.33-6.54,16.74-22.95,28.38Z" fill="#f9f5e3" stroke="#f9f5e3" stroke-miterlimit="10" stroke-width=".25"/>
  <path d="M67.58,169.2c.6.46,1.65-.27,3.43-.94,1.47-.56,2.83-.75,5.54-1.14,3.47-.5,6.21-.34,8.24-.22,1.34.08,4.59.34,8.86,1.35,10.34,2.46,18.31,7.41,19.57,8.21,4.2,2.65,7.61,5.64,14.45,11.61,4.02,3.52,4.06,3.78,5.96,5.34,0,0,0,0,0,0,4.7,3.11,11.71,8,19.32,10.09,11.38,3.12,21.65-.52,25.32-1.82,5.96-2.11,10.39-5.08,10.35-5.17-.03-.07-2.64,1.55-6.57,2.06-1.69.22-3.01.16-4.51.09,0,0-3.88-.19-7.55-1.1-9.79-2.42-20.41-10.57-20.41-10.57-13.65-10.48-12.48-13.19-21.62-19.25-11-7.3-21.13-9.68-24-10.3-19.8-4.26-34.64,2.21-35.74,5.2-.1.28-.48,1.62-.73,3.26-.29,1.92-.43,2.91.07,3.3Z" fill="#f9f5e3" stroke="#f9f5e3" stroke-miterlimit="10" stroke-width=".25"/>
  <path d="M141.48,174.26l5.22,4.85c.09.08.18.16.27.24,4.58,3.8,8.5,6.63,11.41,8.62,2.46,1.69,4.31,2.84,6.68,3.97,2.18,1.04,4.24,1.8,6.05,2.35l7.98,1.45,4.93.37c.14.01.28.02.42.02h2.55c1.15,0,2.26-.35,3.2-.99,1.09-.74,2.24-1.63,3.41-2.69,2.77-2.51,4.66-5.1,5.91-7.18.12-.2.22-.38.31-.59,1.3-2.79,2.64-6.26,3.66-10.36.26-1.07.49-2.1.68-3.11.65-3.42-2.01-6.57-5.51-6.57h-53.36c-5.07,0-7.52,6.17-3.82,9.61ZM176.26,183.68c-4.84-.03-9.68-.66-14.51-.09-2.2.26-2.17-3.17,0-3.42,4.83-.57,9.67.06,14.51.09,2.22.01,2.22,3.44,0,3.42ZM193.06,172.75c-6.12.8-12.25-.38-18.38.09-2.21.17-2.2-3.26,0-3.42,6.13-.46,12.27.72,18.38-.09,2.19-.29,2.17,3.14,0,3.42Z" fill="#f9f5e3" stroke="#f9f5e3" stroke-miterlimit="10" stroke-width=".25"/>
  <path d="M68.85,161.27c2.06-4.76,4.84-7.67,6.6-9.23,4.22-3.74,9.03-5.27,12.86-6.51,2.6-.84,5.19-1.43,5.47-1.49,3.58-.8,5.59-.92,8.95-1.76,1.99-.5,3.97-1.1,3.97-1.1.09-.03.79-.24,1.51-.47,2.61-.83,3.95-1.27,5.62-2.09,1.76-.88,6.95-3.54,10.46-8.83.85-1.29,1.96-3.78,4.16-8.76,1.61-3.63,1.87-4.53,2.99-5.83,2.97-3.46,7.88-4.95,8.64-3.96.3.4.28,1.64-4.22,6.49-.42.46-.78.99-1.03,1.56l-1.44,3.27c-1.13,2.21-2.98,5.82-4.12,8.03l-1.71,2.9c-.15.26-.33.52-.52.75-1.42,1.72-2.78,3.03-3.88,3.97,0,0-3.82,3.29-8.33,5.19-.05.02-.1.04-.1.04-.34.14-1.18.49-2.26.87-2.08.74-3.67,1.13-4.99,1.45-4.07,1-6.11,1.51-7.46,1.85-1.53.39-3.65.94-6.37,1.76-2.77.83-4.37,1.31-6.59,2.19-3.62,1.44-5.53,2.61-6.03,2.92-1.18.74-1.77,1.11-2.14,1.43-.74.62-1.14,1.12-2.03,1.48-.45.18-.58.15-1.22.32-.28.08-1,.29-2.47,1.03-1.83.92-3.52,2-4.31,2.51Z" fill="#f9f5e3" stroke="#f9f5e3" stroke-miterlimit="10" stroke-width=".25"/>
  <path d="M135.55,118.19c.19.26.48.67.79,1.21.37.64.57,1.15.62,1.25.81,1.85,5.27,3.79,5.27,3.79,2,.87,3.89,1.69,6.66,2.11,6.07.92,10.83-.94,11.95-1.4,4.56-1.88,8.77-5.42,8.21-6.96-.14-.38-.92-.81-2.49-1.67-.83-.46-1.33-.66-2.19-1.22-1.08-.71-1.62-1.07-1.64-1.48-.04-.78,1.56-1.28,3.27-2.17,2.74-1.42,4.42-3.13,5.81-4.55,1.47-1.5,4.13-4.21,3.38-5.78-.41-.87-1.74-1.14-3.6-1.52-2.55-.52-3.77-.11-4.1-.76-.32-.63.57-1.48,1.83-3.35,0,0,.32-.48,2.47-4.48,2.83-5.28,2.73-11.7,2.69-14.3-.06-3.89-.1-6-1.02-6.28-2.11-.65-7.76,8.69-10.3,15.21-.34.87-.92,2.45-2.11,4.44-.33.56-1.48,2.45-5.1,6.27-1.63,1.72-3.65,3.85-6.67,6.37-3.05,2.54-5.56,4.19-7.23,5.27-2.71,1.76-5.13,3.12-7.06,4.13" fill="#f9f5e3" stroke="#f9f5e3" stroke-miterlimit="10" stroke-width=".25"/>
  <path d="M131.6,109.55c1.4,1.38,9.49-4.56,13.58-7.65,10.27-7.77,16.38-14.39,17.96-16.13,6.64-7.29,11.78-12.93,10.3-15.21-1.48-2.29-9.25-.63-13.81,2.38-2.52,1.67-4.14,3.75-4.14,3.75-1.44,1.86-1.28,2.52-2.83,4.84-.81,1.21-3.58,5.32-5.45,4.77-1.01-.3-1.34-1.85-1.38-2.02-.41-2.01,1.16-3.44,2.61-6.07,1.46-2.63,1.95-4.92,2.32-6.64.51-2.39,1.27-6.17-.58-9.53-.18-.32-1.58-2.8-2.91-2.6-.77.12-.86,1.03-2.32,2.45-.47.46-2.12,2.07-2.98,1.66-.63-.3-.58-1.58-.58-2.02,0-3.95-3.16-7.18-4.79-8.95-1.85-2.01-3.64-3.02-5.96-4.33-3.01-1.7-5.51-3.14-6.54-2.31-1.07.86.71,3.2,1.69,8.77,1.04,5.93-.21,7.72,1.58,12.53.79,2.13,1.07,1.85,2.03,4.4.36.96,1.29,3.58,2.06,9.43.5,3.85.62,7.12.85,13.67.08,2.14.09,3.36.05,4.84-.07,2.15-.13,4.15-.48,6.79-.34,2.52-.58,2.89-.29,3.18Z" fill="#f9f5e3" stroke="#f9f5e3" stroke-miterlimit="10" stroke-width=".25"/>
  <path d="M124.92,45.81c-1.32-.37-2.93,1.67-5.31,4.69-.64.81-4.52,5.8-5.7,10.9-.68,2.95-.76,3.9-.76,3.9-.15,1.82.05,2.85-.47,3.1-.55.26-1.17-.7-2.74-1.52-.34-.18-3.12-1.64-4.96-.79-2,.93-2.19,4.25-2.22,4.71-.3,5.32,4.29,11.3,7.12,13.86.25.22,1.69,1.51,2.36,3.61.15.45.75,2.32-.05,2.97-.25.2-.75.39-2.06-.08-2.22-.8-3.22-2.22-4.73-3.66-.52-.5-2.75-2.58-5.97-3.95-1.3-.56-3.31-1.39-5.9-1.3-1.14.04-2.29.26-3.3.46-1.54.3-2.73.64-3.49.87-1.76.52-1.27.5-2.47.82-1.26.34-2.3.49-2.49,1.13,0,0-.04.14-.02.31.12,1.1,5.95,11.29,19.04,13.8,2.13.41,2.05.15,4.47.65,5.68,1.16,10.37,3.44,12.59,4.51.45.22,1.5.74,3.32,1.61.93.45,1.83.96,2.78,1.35.96.39,1.45.51,2.08,1.03.59.49.76.89,1.02.84.47-.09.54-1.52.62-2.6.15-1.95.29-2.15.45-2.94.22-1.12.28-1.98.31-2.62.14-2.58.47-3.59.61-6.93.08-1.91.05-3.26,0-5.13-.11-4.43-.48-7.74-.56-8.42-.25-2.17-.33-2.15-.62-4.79-.31-2.8-.34-3.44-.54-5.01-.22-1.81-.3-2.11-.36-3.63-.19-5.1.34-7.24.04-12.7-.26-4.77-.48-8.6-2.1-9.06Z" fill="#f9f5e3" stroke="#f9f5e3" stroke-miterlimit="10" stroke-width=".25"/>
  <path d="M105.21,101.7c2.93,1.14,14.27,5.15,18.69,9.89.54.58,1.39,1.61,1.74,3.1.65,2.73-.79,5.17-2.25,7.58-1.8,2.95-3.9,6.46-8.35,8.59-.91.44-4.17,1.95-8.04,1.51-1.59-.18-2.85-.82-5.35-2.09-.19-.09-.54-.28-.63-.63-.14-.55.52-.96,1.84-2.48,1.05-1.2.57-.87,1.65-2.14.42-.49.84-.96.71-1.18-.11-.19-.55-.11-.66-.1-1.68.25-6.38-1.16-7.8-1.64-.29-.1-3.6-1.24-6.8-3.88-1.18-.97-2.32-2.13-2.32-3.56,0-.68.25-1.22.29-1.3.1-.2.44-.85,2.22-1.81.94-.5,1.66-.89,2.74-1.25.76-.25,1.43-.4,1.45-.72,0-.11-.06-.22-.61-.7-.45-.4-.68-.6-.9-.75-1.45-1.01-3.95-4.36-3.95-4.36-2.35-3.16-3.78-5.07-5.12-8.11-1.33-3-1.73-5.2-1.89-6.28-.35-2.36-.53-3.54-.1-3.9,1.92-1.61,9.02,10.58,23.43,16.17Z" fill="#f9f5e3" stroke="#f9f5e3" stroke-miterlimit="10" stroke-width=".25"/>
</svg>