<svg width="346" height="21" viewBox="0 0 346 21" fill="none" xmlns="http://www.w3.org/2000/svg">
<path d="M5.054 6.2C5.57667 6.2 6.03867 6.32133 6.44 6.564C6.84133 6.79733 7.15867 7.124 7.392 7.544C7.62533 7.964 7.742 8.44467 7.742 8.986C7.742 9.52733 7.62533 10.0173 7.392 10.456C7.15867 10.8853 6.84133 11.226 6.44 11.478C6.03867 11.73 5.57667 11.856 5.054 11.856H2.086L2.156 11.716V15.58C2.156 15.692 2.114 15.79 2.03 15.874C1.946 15.958 1.848 16 1.736 16C1.60533 16 1.50267 15.958 1.428 15.874C1.35333 15.79 1.316 15.692 1.316 15.58V6.62C1.316 6.508 1.358 6.41 1.442 6.326C1.526 6.242 1.624 6.2 1.736 6.2H5.054ZM5.054 11.044C5.418 11.044 5.73533 10.9553 6.006 10.778C6.27667 10.5913 6.48667 10.344 6.636 10.036C6.79467 9.71867 6.874 9.36867 6.874 8.986C6.874 8.60333 6.79467 8.26733 6.636 7.978C6.48667 7.67933 6.27667 7.446 6.006 7.278C5.73533 7.11 5.418 7.026 5.054 7.026H2.086L2.156 6.9V11.128L2.072 11.044H5.054ZM9.86584 16C9.73518 16 9.63251 15.958 9.55784 15.874C9.48318 15.79 9.44584 15.692 9.44584 15.58V9.308C9.44584 9.196 9.48318 9.098 9.55784 9.014C9.64184 8.93 9.74451 8.888 9.86584 8.888C9.98718 8.888 10.0852 8.93 10.1598 9.014C10.2438 9.098 10.2858 9.196 10.2858 9.308V11.408L10.0758 11.45C10.1038 11.1233 10.1832 10.8013 10.3138 10.484C10.4538 10.1573 10.6405 9.85867 10.8738 9.588C11.1072 9.31733 11.3825 9.098 11.6998 8.93C12.0265 8.762 12.3905 8.678 12.7918 8.678C12.9598 8.678 13.1232 8.71533 13.2818 8.79C13.4405 8.85533 13.5198 8.96733 13.5198 9.126C13.5198 9.266 13.4825 9.37333 13.4078 9.448C13.3332 9.52267 13.2445 9.56 13.1418 9.56C13.0578 9.56 12.9645 9.53667 12.8618 9.49C12.7685 9.44333 12.6425 9.42 12.4838 9.42C12.2225 9.42 11.9612 9.49933 11.6998 9.658C11.4385 9.80733 11.2005 10.0127 10.9858 10.274C10.7712 10.5353 10.5985 10.8293 10.4678 11.156C10.3465 11.4733 10.2858 11.7953 10.2858 12.122V15.58C10.2858 15.692 10.2438 15.79 10.1598 15.874C10.0758 15.958 9.97784 16 9.86584 16ZM15.6446 15.58C15.6446 15.692 15.6026 15.79 15.5186 15.874C15.4346 15.958 15.3366 16 15.2246 16C15.1032 16 15.0006 15.958 14.9166 15.874C14.8419 15.79 14.8046 15.692 14.8046 15.58V9.14C14.8046 9.028 14.8419 8.93 14.9166 8.846C15.0006 8.762 15.1032 8.72 15.2246 8.72C15.3459 8.72 15.4439 8.762 15.5186 8.846C15.6026 8.93 15.6446 9.028 15.6446 9.14V15.58ZM15.2246 7.782C15.0286 7.782 14.8792 7.74 14.7766 7.656C14.6832 7.56267 14.6366 7.432 14.6366 7.264V7.124C14.6366 6.956 14.6879 6.83 14.7906 6.746C14.9026 6.65267 15.0519 6.606 15.2386 6.606C15.4159 6.606 15.5512 6.65267 15.6446 6.746C15.7472 6.83 15.7986 6.956 15.7986 7.124V7.264C15.7986 7.432 15.7472 7.56267 15.6446 7.656C15.5512 7.74 15.4112 7.782 15.2246 7.782ZM17.6587 8.692C17.7334 8.692 17.808 8.71533 17.8827 8.762C17.9574 8.80867 18.0134 8.87867 18.0507 8.972L20.5007 14.796L20.3187 14.908L22.8247 8.972C22.8994 8.78533 23.0347 8.69667 23.2307 8.706C23.324 8.706 23.4127 8.73867 23.4967 8.804C23.5807 8.86 23.6227 8.944 23.6227 9.056C23.6227 9.112 23.6134 9.15867 23.5947 9.196C23.5854 9.224 23.576 9.25667 23.5667 9.294L20.8227 15.734C20.748 15.902 20.622 15.9907 20.4447 16C20.3607 16.0093 20.2767 15.9907 20.1927 15.944C20.118 15.888 20.062 15.818 20.0247 15.734L17.2667 9.294C17.2574 9.27533 17.248 9.24733 17.2387 9.21C17.2294 9.17267 17.2247 9.13533 17.2247 9.098C17.2247 8.99533 17.262 8.902 17.3367 8.818C17.4114 8.734 17.5187 8.692 17.6587 8.692ZM31.0755 8.846C31.1968 8.846 31.2948 8.888 31.3695 8.972C31.4535 9.056 31.4955 9.15867 31.4955 9.28V15.58C31.4955 15.692 31.4535 15.79 31.3695 15.874C31.2855 15.958 31.1875 16 31.0755 16C30.9542 16 30.8515 15.958 30.7675 15.874C30.6928 15.79 30.6555 15.692 30.6555 15.58V13.914L30.8935 13.802C30.8935 14.0633 30.8188 14.3293 30.6695 14.6C30.5295 14.8707 30.3335 15.1227 30.0815 15.356C29.8295 15.5893 29.5308 15.7807 29.1855 15.93C28.8495 16.07 28.4855 16.14 28.0935 16.14C27.4588 16.14 26.8895 15.9767 26.3855 15.65C25.8908 15.3233 25.4988 14.8753 25.2095 14.306C24.9295 13.7367 24.7895 13.0973 24.7895 12.388C24.7895 11.66 24.9342 11.0207 25.2235 10.47C25.5128 9.91 25.9048 9.47133 26.3995 9.154C26.8942 8.83667 27.4542 8.678 28.0795 8.678C28.4808 8.678 28.8542 8.748 29.1995 8.888C29.5542 9.028 29.8622 9.21933 30.1235 9.462C30.3848 9.70467 30.5855 9.98467 30.7255 10.302C30.8748 10.61 30.9495 10.932 30.9495 11.268L30.6555 11.058V9.28C30.6555 9.15867 30.6928 9.056 30.7675 8.972C30.8515 8.888 30.9542 8.846 31.0755 8.846ZM28.1635 15.356C28.6582 15.356 29.0968 15.23 29.4795 14.978C29.8622 14.7167 30.1608 14.362 30.3755 13.914C30.5995 13.4567 30.7115 12.948 30.7115 12.388C30.7115 11.8373 30.5995 11.3427 30.3755 10.904C30.1608 10.4653 29.8622 10.1153 29.4795 9.854C29.0968 9.59267 28.6582 9.462 28.1635 9.462C27.6782 9.462 27.2395 9.588 26.8475 9.84C26.4648 10.092 26.1615 10.4373 25.9375 10.876C25.7228 11.3147 25.6155 11.8187 25.6155 12.388C25.6155 12.948 25.7228 13.4567 25.9375 13.914C26.1615 14.362 26.4648 14.7167 26.8475 14.978C27.2302 15.23 27.6688 15.356 28.1635 15.356ZM33.2378 8.874H36.4998C36.6118 8.874 36.7051 8.916 36.7798 9C36.8544 9.07467 36.8918 9.168 36.8918 9.28C36.8918 9.38267 36.8544 9.47133 36.7798 9.546C36.7051 9.62067 36.6118 9.658 36.4998 9.658H33.2378C33.1258 9.658 33.0278 9.62067 32.9438 9.546C32.8691 9.462 32.8318 9.36867 32.8318 9.266C32.8318 9.154 32.8691 9.06067 32.9438 8.986C33.0278 8.91133 33.1258 8.874 33.2378 8.874ZM34.6798 6.9C34.8011 6.9 34.8991 6.942 34.9738 7.026C35.0578 7.11 35.0998 7.208 35.0998 7.32V14.348C35.0998 14.6093 35.1324 14.8053 35.1978 14.936C35.2724 15.0667 35.3658 15.1553 35.4778 15.202C35.5898 15.2393 35.7018 15.258 35.8138 15.258C35.8884 15.258 35.9538 15.2487 36.0098 15.23C36.0751 15.202 36.1451 15.188 36.2198 15.188C36.3038 15.188 36.3738 15.2207 36.4298 15.286C36.4951 15.3513 36.5278 15.4353 36.5278 15.538C36.5278 15.6687 36.4531 15.7807 36.3038 15.874C36.1544 15.958 35.9771 16 35.7718 16C35.6878 16 35.5618 15.9953 35.3938 15.986C35.2258 15.9673 35.0531 15.916 34.8758 15.832C34.6984 15.7387 34.5491 15.58 34.4278 15.356C34.3158 15.132 34.2598 14.81 34.2598 14.39V7.32C34.2598 7.208 34.2971 7.11 34.3718 7.026C34.4558 6.942 34.5584 6.9 34.6798 6.9ZM39.3679 15.58C39.3679 15.692 39.3259 15.79 39.2419 15.874C39.1579 15.958 39.0599 16 38.9479 16C38.8266 16 38.7239 15.958 38.6399 15.874C38.5652 15.79 38.5279 15.692 38.5279 15.58V6.06C38.5279 5.948 38.5699 5.85 38.6539 5.766C38.7379 5.682 38.8359 5.64 38.9479 5.64C39.0692 5.64 39.1672 5.682 39.2419 5.766C39.3259 5.85 39.3679 5.948 39.3679 6.06V15.58ZM42.4825 15.58C42.4825 15.692 42.4405 15.79 42.3565 15.874C42.2725 15.958 42.1745 16 42.0625 16C41.9411 16 41.8385 15.958 41.7545 15.874C41.6798 15.79 41.6425 15.692 41.6425 15.58V9.14C41.6425 9.028 41.6798 8.93 41.7545 8.846C41.8385 8.762 41.9411 8.72 42.0625 8.72C42.1838 8.72 42.2818 8.762 42.3565 8.846C42.4405 8.93 42.4825 9.028 42.4825 9.14V15.58ZM42.0625 7.782C41.8665 7.782 41.7171 7.74 41.6145 7.656C41.5211 7.56267 41.4745 7.432 41.4745 7.264V7.124C41.4745 6.956 41.5258 6.83 41.6285 6.746C41.7405 6.65267 41.8898 6.606 42.0765 6.606C42.2538 6.606 42.3891 6.65267 42.4825 6.746C42.5851 6.83 42.6365 6.956 42.6365 7.124V7.264C42.6365 7.432 42.5851 7.56267 42.4825 7.656C42.3891 7.74 42.2491 7.782 42.0625 7.782ZM44.4966 8.692C44.5713 8.692 44.6459 8.71533 44.7206 8.762C44.7953 8.80867 44.8513 8.87867 44.8886 8.972L47.3386 14.796L47.1566 14.908L49.6626 8.972C49.7373 8.78533 49.8726 8.69667 50.0686 8.706C50.1619 8.706 50.2506 8.73867 50.3346 8.804C50.4186 8.86 50.4606 8.944 50.4606 9.056C50.4606 9.112 50.4513 9.15867 50.4326 9.196C50.4233 9.224 50.4139 9.25667 50.4046 9.294L47.6606 15.734C47.5859 15.902 47.4599 15.9907 47.2826 16C47.1986 16.0093 47.1146 15.9907 47.0306 15.944C46.9559 15.888 46.8999 15.818 46.8626 15.734L44.1046 9.294C44.0953 9.27533 44.0859 9.24733 44.0766 9.21C44.0673 9.17267 44.0626 9.13533 44.0626 9.098C44.0626 8.99533 44.0999 8.902 44.1746 8.818C44.2493 8.734 44.3566 8.692 44.4966 8.692ZM51.6004 14.866C51.5257 14.754 51.4884 14.6467 51.4884 14.544C51.4977 14.432 51.5584 14.3433 51.6704 14.278C51.7451 14.2127 51.8291 14.1847 51.9224 14.194C52.0251 14.2033 52.1184 14.25 52.2024 14.334C52.4544 14.6607 52.7577 14.9267 53.1124 15.132C53.4764 15.328 53.9057 15.426 54.4004 15.426C54.6617 15.426 54.9184 15.384 55.1704 15.3C55.4317 15.2067 55.6464 15.0713 55.8144 14.894C55.9824 14.7073 56.0664 14.474 56.0664 14.194C56.0664 13.9047 55.9824 13.6713 55.8144 13.494C55.6464 13.3167 55.4271 13.1767 55.1564 13.074C54.8951 12.9713 54.6151 12.8827 54.3164 12.808C53.9991 12.724 53.6911 12.6307 53.3924 12.528C53.0937 12.416 52.8277 12.2807 52.5944 12.122C52.3704 11.954 52.1884 11.7533 52.0484 11.52C51.9084 11.2867 51.8384 11.002 51.8384 10.666C51.8384 10.274 51.9457 9.92867 52.1604 9.63C52.3751 9.33133 52.6644 9.098 53.0284 8.93C53.4017 8.762 53.8217 8.678 54.2884 8.678C54.5217 8.678 54.7737 8.71067 55.0444 8.776C55.3151 8.832 55.5811 8.93 55.8424 9.07C56.1037 9.21 56.3371 9.40133 56.5424 9.644C56.6264 9.728 56.6684 9.826 56.6684 9.938C56.6684 10.0407 56.6217 10.134 56.5284 10.218C56.4537 10.274 56.3651 10.302 56.2624 10.302C56.1691 10.302 56.0897 10.2647 56.0244 10.19C55.8004 9.938 55.5344 9.74667 55.2264 9.616C54.9184 9.48533 54.5871 9.42 54.2324 9.42C53.9617 9.42 53.7051 9.46667 53.4624 9.56C53.2291 9.644 53.0331 9.77467 52.8744 9.952C52.7157 10.1293 52.6364 10.3627 52.6364 10.652C52.6551 10.9227 52.7484 11.142 52.9164 11.31C53.0937 11.478 53.3224 11.618 53.6024 11.73C53.8917 11.842 54.2137 11.9447 54.5684 12.038C54.8671 12.1127 55.1517 12.2013 55.4224 12.304C55.7024 12.4067 55.9451 12.5373 56.1504 12.696C56.3651 12.8453 56.5331 13.0367 56.6544 13.27C56.7851 13.5033 56.8504 13.7973 56.8504 14.152C56.8504 14.5627 56.7337 14.9173 56.5004 15.216C56.2764 15.5147 55.9731 15.7433 55.5904 15.902C55.2077 16.0607 54.7831 16.14 54.3164 16.14C53.8124 16.14 53.3224 16.042 52.8464 15.846C52.3797 15.65 51.9644 15.3233 51.6004 14.866ZM61.9709 8.79C62.6056 8.79 63.1656 8.94867 63.6509 9.266C64.1456 9.574 64.5376 10.0033 64.8269 10.554C65.1162 11.0953 65.2609 11.7207 65.2609 12.43C65.2609 13.1393 65.1162 13.7693 64.8269 14.32C64.5376 14.8707 64.1456 15.3047 63.6509 15.622C63.1562 15.9393 62.6009 16.098 61.9849 16.098C61.6582 16.098 61.3456 16.0513 61.0469 15.958C60.7576 15.8553 60.4916 15.72 60.2489 15.552C60.0062 15.384 59.7916 15.188 59.6049 14.964C59.4182 14.7307 59.2689 14.4787 59.1569 14.208L59.4089 14.026V18.38C59.4089 18.492 59.3669 18.59 59.2829 18.674C59.2082 18.758 59.1102 18.8 58.9889 18.8C58.8676 18.8 58.7649 18.758 58.6809 18.674C58.6062 18.59 58.5689 18.492 58.5689 18.38V9.252C58.5689 9.13067 58.6062 9.028 58.6809 8.944C58.7556 8.86 58.8582 8.818 58.9889 8.818C59.1102 8.818 59.2082 8.86 59.2829 8.944C59.3669 9.028 59.4089 9.13067 59.4089 9.252V10.764L59.2129 10.652C59.3062 10.3627 59.4416 10.106 59.6189 9.882C59.8056 9.64867 60.0202 9.45267 60.2629 9.294C60.5056 9.126 60.7716 9 61.0609 8.916C61.3502 8.832 61.6536 8.79 61.9709 8.79ZM61.9009 9.574C61.3969 9.574 60.9536 9.7 60.5709 9.952C60.1882 10.1947 59.8849 10.5307 59.6609 10.96C59.4462 11.38 59.3389 11.87 59.3389 12.43C59.3389 12.9807 59.4462 13.4753 59.6609 13.914C59.8849 14.3527 60.1882 14.698 60.5709 14.95C60.9536 15.1927 61.3969 15.314 61.9009 15.314C62.3956 15.314 62.8296 15.1927 63.2029 14.95C63.5856 14.698 63.8889 14.3527 64.1129 13.914C64.3369 13.4753 64.4489 12.9807 64.4489 12.43C64.4489 11.8793 64.3369 11.3893 64.1129 10.96C63.8889 10.5307 63.5856 10.1947 63.2029 9.952C62.8296 9.7 62.3956 9.574 61.9009 9.574ZM73.7231 12.416C73.7231 13.1253 73.5691 13.7647 73.2611 14.334C72.9531 14.894 72.5331 15.3373 72.0011 15.664C71.4691 15.9813 70.8625 16.14 70.1811 16.14C69.5185 16.14 68.9165 15.9813 68.3751 15.664C67.8431 15.3373 67.4185 14.894 67.1011 14.334C66.7931 13.7647 66.6391 13.1253 66.6391 12.416C66.6391 11.6973 66.7931 11.058 67.1011 10.498C67.4185 9.938 67.8431 9.49467 68.3751 9.168C68.9165 8.84133 69.5185 8.678 70.1811 8.678C70.8625 8.678 71.4691 8.84133 72.0011 9.168C72.5331 9.49467 72.9531 9.938 73.2611 10.498C73.5691 11.058 73.7231 11.6973 73.7231 12.416ZM72.8831 12.416C72.8831 11.8467 72.7665 11.3427 72.5331 10.904C72.2998 10.456 71.9778 10.106 71.5671 9.854C71.1658 9.59267 70.7038 9.462 70.1811 9.462C69.6771 9.462 69.2198 9.59267 68.8091 9.854C68.3985 10.106 68.0718 10.456 67.8291 10.904C67.5958 11.3427 67.4791 11.8467 67.4791 12.416C67.4791 12.9853 67.5958 13.4893 67.8291 13.928C68.0718 14.3667 68.3985 14.7167 68.8091 14.978C69.2198 15.23 69.6771 15.356 70.1811 15.356C70.7038 15.356 71.1658 15.23 71.5671 14.978C71.9778 14.7167 72.2998 14.3667 72.5331 13.928C72.7665 13.4893 72.8831 12.9853 72.8831 12.416ZM76.4323 15.58C76.4323 15.692 76.3903 15.79 76.3063 15.874C76.2223 15.958 76.1243 16 76.0123 16C75.891 16 75.7883 15.958 75.7043 15.874C75.6297 15.79 75.5923 15.692 75.5923 15.58V6.06C75.5923 5.948 75.6343 5.85 75.7183 5.766C75.8023 5.682 75.9003 5.64 76.0123 5.64C76.1337 5.64 76.2317 5.682 76.3063 5.766C76.3903 5.85 76.4323 5.948 76.4323 6.06V15.58ZM79.5469 15.58C79.5469 15.692 79.5049 15.79 79.4209 15.874C79.3369 15.958 79.2389 16 79.1269 16C79.0056 16 78.9029 15.958 78.8189 15.874C78.7442 15.79 78.7069 15.692 78.7069 15.58V9.14C78.7069 9.028 78.7442 8.93 78.8189 8.846C78.9029 8.762 79.0056 8.72 79.1269 8.72C79.2482 8.72 79.3462 8.762 79.4209 8.846C79.5049 8.93 79.5469 9.028 79.5469 9.14V15.58ZM79.1269 7.782C78.9309 7.782 78.7816 7.74 78.6789 7.656C78.5856 7.56267 78.5389 7.432 78.5389 7.264V7.124C78.5389 6.956 78.5902 6.83 78.6929 6.746C78.8049 6.65267 78.9542 6.606 79.1409 6.606C79.3182 6.606 79.4536 6.65267 79.5469 6.746C79.6496 6.83 79.7009 6.956 79.7009 7.124V7.264C79.7009 7.432 79.6496 7.56267 79.5469 7.656C79.4536 7.74 79.3136 7.782 79.1269 7.782ZM81.267 8.874H84.529C84.641 8.874 84.7344 8.916 84.809 9C84.8837 9.07467 84.921 9.168 84.921 9.28C84.921 9.38267 84.8837 9.47133 84.809 9.546C84.7344 9.62067 84.641 9.658 84.529 9.658H81.267C81.155 9.658 81.057 9.62067 80.973 9.546C80.8984 9.462 80.861 9.36867 80.861 9.266C80.861 9.154 80.8984 9.06067 80.973 8.986C81.057 8.91133 81.155 8.874 81.267 8.874ZM82.709 6.9C82.8304 6.9 82.9284 6.942 83.003 7.026C83.087 7.11 83.129 7.208 83.129 7.32V14.348C83.129 14.6093 83.1617 14.8053 83.227 14.936C83.3017 15.0667 83.395 15.1553 83.507 15.202C83.619 15.2393 83.731 15.258 83.843 15.258C83.9177 15.258 83.983 15.2487 84.039 15.23C84.1044 15.202 84.1744 15.188 84.249 15.188C84.333 15.188 84.403 15.2207 84.459 15.286C84.5244 15.3513 84.557 15.4353 84.557 15.538C84.557 15.6687 84.4824 15.7807 84.333 15.874C84.1837 15.958 84.0064 16 83.801 16C83.717 16 83.591 15.9953 83.423 15.986C83.255 15.9673 83.0824 15.916 82.905 15.832C82.7277 15.7387 82.5784 15.58 82.457 15.356C82.345 15.132 82.289 14.81 82.289 14.39V7.32C82.289 7.208 82.3264 7.11 82.401 7.026C82.485 6.942 82.5877 6.9 82.709 6.9ZM87.2852 15.58C87.2852 15.692 87.2432 15.79 87.1592 15.874C87.0752 15.958 86.9772 16 86.8652 16C86.7439 16 86.6412 15.958 86.5572 15.874C86.4825 15.79 86.4452 15.692 86.4452 15.58V9.14C86.4452 9.028 86.4825 8.93 86.5572 8.846C86.6412 8.762 86.7439 8.72 86.8652 8.72C86.9865 8.72 87.0845 8.762 87.1592 8.846C87.2432 8.93 87.2852 9.028 87.2852 9.14V15.58ZM86.8652 7.782C86.6692 7.782 86.5199 7.74 86.4172 7.656C86.3239 7.56267 86.2772 7.432 86.2772 7.264V7.124C86.2772 6.956 86.3285 6.83 86.4312 6.746C86.5432 6.65267 86.6925 6.606 86.8792 6.606C87.0565 6.606 87.1919 6.65267 87.2852 6.746C87.3879 6.83 87.4392 6.956 87.4392 7.124V7.264C87.4392 7.432 87.3879 7.56267 87.2852 7.656C87.1919 7.74 87.0519 7.782 86.8652 7.782ZM89.9713 16C89.85 16 89.7473 15.958 89.6633 15.874C89.5887 15.79 89.5513 15.692 89.5513 15.58V6.06C89.5513 5.948 89.5887 5.85 89.6633 5.766C89.7473 5.682 89.85 5.64 89.9713 5.64C90.0927 5.64 90.1907 5.682 90.2653 5.766C90.3493 5.85 90.3913 5.948 90.3913 6.06V15.58C90.3913 15.692 90.3493 15.79 90.2653 15.874C90.1907 15.958 90.0927 16 89.9713 16ZM94.7313 8.818C94.834 8.818 94.9273 8.86467 95.0113 8.958C95.0953 9.042 95.1373 9.13533 95.1373 9.238C95.1373 9.35933 95.086 9.46667 94.9833 9.56L90.2793 13.564L90.2373 12.57L94.4373 8.958C94.5213 8.86467 94.6193 8.818 94.7313 8.818ZM94.8433 16C94.722 16 94.6193 15.9487 94.5353 15.846L91.3433 12.458L91.9733 11.884L95.1373 15.258C95.2213 15.3513 95.2633 15.4587 95.2633 15.58C95.2633 15.7107 95.212 15.8133 95.1093 15.888C95.0067 15.9627 94.918 16 94.8433 16Z" fill="#3C3D36"/>
<path d="M0 17.75H95.8513V18.45H0V17.75Z" fill="#3C3D36"/>
<path d="M125.446 6.2C126.23 6.2 126.841 6.41467 127.28 6.844C127.728 7.264 127.952 7.852 127.952 8.608C127.952 9 127.868 9.37333 127.7 9.728C127.532 10.0827 127.285 10.372 126.958 10.596C126.631 10.8107 126.225 10.932 125.74 10.96L125.684 10.68C126.029 10.68 126.365 10.7313 126.692 10.834C127.028 10.9273 127.327 11.0813 127.588 11.296C127.849 11.5107 128.059 11.7813 128.218 12.108C128.377 12.4253 128.456 12.8127 128.456 13.27C128.456 13.7553 128.372 14.1753 128.204 14.53C128.045 14.8753 127.826 15.1553 127.546 15.37C127.275 15.5847 126.963 15.7433 126.608 15.846C126.253 15.9487 125.885 16 125.502 16H121.736C121.624 16 121.526 15.958 121.442 15.874C121.358 15.79 121.316 15.692 121.316 15.58V6.62C121.316 6.508 121.358 6.41 121.442 6.326C121.526 6.242 121.624 6.2 121.736 6.2H125.446ZM125.334 7.026H122.044L122.212 6.774V10.736L122.058 10.526H125.334C125.819 10.5167 126.225 10.358 126.552 10.05C126.888 9.742 127.056 9.28467 127.056 8.678C127.056 8.16467 126.907 7.76333 126.608 7.474C126.309 7.17533 125.885 7.026 125.334 7.026ZM125.432 11.366H122.142L122.212 11.282V15.3L122.128 15.174H125.46C126.057 15.174 126.557 15.0247 126.958 14.726C127.359 14.418 127.56 13.9327 127.56 13.27C127.56 12.8033 127.462 12.43 127.266 12.15C127.07 11.87 126.809 11.6693 126.482 11.548C126.155 11.4267 125.805 11.366 125.432 11.366ZM130.645 16C130.514 16 130.412 15.958 130.337 15.874C130.262 15.79 130.225 15.692 130.225 15.58V9.308C130.225 9.196 130.262 9.098 130.337 9.014C130.421 8.93 130.524 8.888 130.645 8.888C130.766 8.888 130.864 8.93 130.939 9.014C131.023 9.098 131.065 9.196 131.065 9.308V11.408L130.855 11.45C130.883 11.1233 130.962 10.8013 131.093 10.484C131.233 10.1573 131.42 9.85867 131.653 9.588C131.886 9.31733 132.162 9.098 132.479 8.93C132.806 8.762 133.17 8.678 133.571 8.678C133.739 8.678 133.902 8.71533 134.061 8.79C134.22 8.85533 134.299 8.96733 134.299 9.126C134.299 9.266 134.262 9.37333 134.187 9.448C134.112 9.52267 134.024 9.56 133.921 9.56C133.837 9.56 133.744 9.53667 133.641 9.49C133.548 9.44333 133.422 9.42 133.263 9.42C133.002 9.42 132.74 9.49933 132.479 9.658C132.218 9.80733 131.98 10.0127 131.765 10.274C131.55 10.5353 131.378 10.8293 131.247 11.156C131.126 11.4733 131.065 11.7953 131.065 12.122V15.58C131.065 15.692 131.023 15.79 130.939 15.874C130.855 15.958 130.757 16 130.645 16ZM140.96 8.888C141.081 8.888 141.179 8.93 141.254 9.014C141.338 9.098 141.38 9.196 141.38 9.308V13.256C141.38 14.18 141.119 14.8847 140.596 15.37C140.073 15.8553 139.369 16.098 138.482 16.098C137.605 16.098 136.905 15.8553 136.382 15.37C135.869 14.8847 135.612 14.18 135.612 13.256V9.308C135.612 9.196 135.649 9.098 135.724 9.014C135.808 8.93 135.911 8.888 136.032 8.888C136.153 8.888 136.251 8.93 136.326 9.014C136.41 9.098 136.452 9.196 136.452 9.308V13.256C136.452 13.928 136.629 14.4413 136.984 14.796C137.348 15.1413 137.847 15.314 138.482 15.314C139.126 15.314 139.63 15.1413 139.994 14.796C140.358 14.4413 140.54 13.928 140.54 13.256V9.308C140.54 9.196 140.577 9.098 140.652 9.014C140.727 8.93 140.829 8.888 140.96 8.888ZM146.428 8.678C146.848 8.678 147.235 8.75267 147.59 8.902C147.945 9.042 148.253 9.22867 148.514 9.462C148.785 9.686 148.995 9.92867 149.144 10.19C149.293 10.442 149.368 10.6847 149.368 10.918L149.13 10.582V9.28C149.13 9.15867 149.167 9.056 149.242 8.972C149.326 8.888 149.429 8.846 149.55 8.846C149.681 8.846 149.783 8.888 149.858 8.972C149.933 9.056 149.97 9.15867 149.97 9.28V15.342C149.97 16.0887 149.816 16.7187 149.508 17.232C149.2 17.7453 148.78 18.1327 148.248 18.394C147.725 18.6647 147.128 18.8 146.456 18.8C146.129 18.8 145.784 18.758 145.42 18.674C145.065 18.59 144.757 18.4827 144.496 18.352C144.244 18.2213 144.104 18.086 144.076 17.946C144.001 17.862 143.964 17.778 143.964 17.694C143.973 17.6193 144.015 17.554 144.09 17.498C144.183 17.4327 144.281 17.4233 144.384 17.47C144.487 17.526 144.641 17.596 144.846 17.68C144.939 17.708 145.065 17.75 145.224 17.806C145.383 17.862 145.569 17.9087 145.784 17.946C146.008 17.9927 146.241 18.016 146.484 18.016C147.324 18.016 147.973 17.7733 148.43 17.288C148.897 16.812 149.13 16.182 149.13 15.398V14.054L149.284 14.096C149.2 14.432 149.06 14.726 148.864 14.978C148.677 15.23 148.453 15.4447 148.192 15.622C147.931 15.79 147.646 15.916 147.338 16C147.039 16.0933 146.741 16.14 146.442 16.14C145.798 16.14 145.219 15.9767 144.706 15.65C144.193 15.3233 143.782 14.88 143.474 14.32C143.175 13.76 143.026 13.1207 143.026 12.402C143.026 11.6927 143.175 11.058 143.474 10.498C143.782 9.92867 144.188 9.48533 144.692 9.168C145.205 8.84133 145.784 8.678 146.428 8.678ZM146.526 9.462C146.013 9.462 145.551 9.59267 145.14 9.854C144.739 10.106 144.421 10.456 144.188 10.904C143.964 11.3427 143.852 11.842 143.852 12.402C143.852 12.962 143.964 13.466 144.188 13.914C144.421 14.362 144.739 14.7167 145.14 14.978C145.551 15.23 146.013 15.356 146.526 15.356C147.039 15.356 147.497 15.23 147.898 14.978C148.299 14.726 148.617 14.3807 148.85 13.942C149.083 13.494 149.2 12.9807 149.2 12.402C149.2 11.8233 149.083 11.3147 148.85 10.876C148.617 10.428 148.299 10.0827 147.898 9.84C147.497 9.588 147.039 9.462 146.526 9.462ZM151.639 14.866C151.565 14.754 151.527 14.6467 151.527 14.544C151.537 14.432 151.597 14.3433 151.709 14.278C151.784 14.2127 151.868 14.1847 151.961 14.194C152.064 14.2033 152.157 14.25 152.241 14.334C152.493 14.6607 152.797 14.9267 153.151 15.132C153.515 15.328 153.945 15.426 154.439 15.426C154.701 15.426 154.957 15.384 155.209 15.3C155.471 15.2067 155.685 15.0713 155.853 14.894C156.021 14.7073 156.105 14.474 156.105 14.194C156.105 13.9047 156.021 13.6713 155.853 13.494C155.685 13.3167 155.466 13.1767 155.195 13.074C154.934 12.9713 154.654 12.8827 154.355 12.808C154.038 12.724 153.73 12.6307 153.431 12.528C153.133 12.416 152.867 12.2807 152.633 12.122C152.409 11.954 152.227 11.7533 152.087 11.52C151.947 11.2867 151.877 11.002 151.877 10.666C151.877 10.274 151.985 9.92867 152.199 9.63C152.414 9.33133 152.703 9.098 153.067 8.93C153.441 8.762 153.861 8.678 154.327 8.678C154.561 8.678 154.813 8.71067 155.083 8.776C155.354 8.832 155.62 8.93 155.881 9.07C156.143 9.21 156.376 9.40133 156.581 9.644C156.665 9.728 156.707 9.826 156.707 9.938C156.707 10.0407 156.661 10.134 156.567 10.218C156.493 10.274 156.404 10.302 156.301 10.302C156.208 10.302 156.129 10.2647 156.063 10.19C155.839 9.938 155.573 9.74667 155.265 9.616C154.957 9.48533 154.626 9.42 154.271 9.42C154.001 9.42 153.744 9.46667 153.501 9.56C153.268 9.644 153.072 9.77467 152.913 9.952C152.755 10.1293 152.675 10.3627 152.675 10.652C152.694 10.9227 152.787 11.142 152.955 11.31C153.133 11.478 153.361 11.618 153.641 11.73C153.931 11.842 154.253 11.9447 154.607 12.038C154.906 12.1127 155.191 12.2013 155.461 12.304C155.741 12.4067 155.984 12.5373 156.189 12.696C156.404 12.8453 156.572 13.0367 156.693 13.27C156.824 13.5033 156.889 13.7973 156.889 14.152C156.889 14.5627 156.773 14.9173 156.539 15.216C156.315 15.5147 156.012 15.7433 155.629 15.902C155.247 16.0607 154.822 16.14 154.355 16.14C153.851 16.14 153.361 16.042 152.885 15.846C152.419 15.65 152.003 15.3233 151.639 14.866ZM158.44 8.692C158.515 8.692 158.589 8.71533 158.664 8.762C158.739 8.80867 158.795 8.87867 158.832 8.972L161.282 14.796L161.1 14.908L163.606 8.972C163.681 8.78533 163.816 8.69667 164.012 8.706C164.105 8.706 164.194 8.73867 164.278 8.804C164.362 8.86 164.404 8.944 164.404 9.056C164.404 9.112 164.395 9.15867 164.376 9.196C164.367 9.224 164.357 9.25667 164.348 9.294L161.604 15.734C161.529 15.902 161.403 15.9907 161.226 16C161.142 16.0093 161.058 15.9907 160.974 15.944C160.899 15.888 160.843 15.818 160.806 15.734L158.048 9.294C158.039 9.27533 158.029 9.24733 158.02 9.21C158.011 9.17267 158.006 9.13533 158.006 9.098C158.006 8.99533 158.043 8.902 158.118 8.818C158.193 8.734 158.3 8.692 158.44 8.692ZM166.83 15.58C166.83 15.692 166.788 15.79 166.704 15.874C166.62 15.958 166.522 16 166.41 16C166.289 16 166.186 15.958 166.102 15.874C166.027 15.79 165.99 15.692 165.99 15.58V9.14C165.99 9.028 166.027 8.93 166.102 8.846C166.186 8.762 166.289 8.72 166.41 8.72C166.531 8.72 166.629 8.762 166.704 8.846C166.788 8.93 166.83 9.028 166.83 9.14V15.58ZM166.41 7.782C166.214 7.782 166.065 7.74 165.962 7.656C165.869 7.56267 165.822 7.432 165.822 7.264V7.124C165.822 6.956 165.873 6.83 165.976 6.746C166.088 6.65267 166.237 6.606 166.424 6.606C166.601 6.606 166.737 6.65267 166.83 6.746C166.933 6.83 166.984 6.956 166.984 7.124V7.264C166.984 7.432 166.933 7.56267 166.83 7.656C166.737 7.74 166.597 7.782 166.41 7.782ZM169.936 15.58C169.936 15.692 169.894 15.79 169.81 15.874C169.726 15.958 169.628 16 169.516 16C169.395 16 169.292 15.958 169.208 15.874C169.134 15.79 169.096 15.692 169.096 15.58V6.06C169.096 5.948 169.138 5.85 169.222 5.766C169.306 5.682 169.404 5.64 169.516 5.64C169.638 5.64 169.736 5.682 169.81 5.766C169.894 5.85 169.936 5.948 169.936 6.06V15.58ZM172.743 16C172.621 16 172.519 15.958 172.435 15.874C172.36 15.79 172.323 15.692 172.323 15.58V6.06C172.323 5.948 172.36 5.85 172.435 5.766C172.519 5.682 172.621 5.64 172.743 5.64C172.864 5.64 172.962 5.682 173.037 5.766C173.121 5.85 173.163 5.948 173.163 6.06V15.58C173.163 15.692 173.121 15.79 173.037 15.874C172.962 15.958 172.864 16 172.743 16ZM177.503 8.818C177.605 8.818 177.699 8.86467 177.783 8.958C177.867 9.042 177.909 9.13533 177.909 9.238C177.909 9.35933 177.857 9.46667 177.755 9.56L173.051 13.564L173.009 12.57L177.209 8.958C177.293 8.86467 177.391 8.818 177.503 8.818ZM177.615 16C177.493 16 177.391 15.9487 177.307 15.846L174.115 12.458L174.745 11.884L177.909 15.258C177.993 15.3513 178.035 15.4587 178.035 15.58C178.035 15.7107 177.983 15.8133 177.881 15.888C177.778 15.9627 177.689 16 177.615 16ZM185.542 8.846C185.664 8.846 185.762 8.888 185.836 8.972C185.92 9.056 185.962 9.15867 185.962 9.28V15.58C185.962 15.692 185.92 15.79 185.836 15.874C185.752 15.958 185.654 16 185.542 16C185.421 16 185.318 15.958 185.234 15.874C185.16 15.79 185.122 15.692 185.122 15.58V13.914L185.36 13.802C185.36 14.0633 185.286 14.3293 185.136 14.6C184.996 14.8707 184.8 15.1227 184.548 15.356C184.296 15.5893 183.998 15.7807 183.652 15.93C183.316 16.07 182.952 16.14 182.56 16.14C181.926 16.14 181.356 15.9767 180.852 15.65C180.358 15.3233 179.966 14.8753 179.676 14.306C179.396 13.7367 179.256 13.0973 179.256 12.388C179.256 11.66 179.401 11.0207 179.69 10.47C179.98 9.91 180.372 9.47133 180.866 9.154C181.361 8.83667 181.921 8.678 182.546 8.678C182.948 8.678 183.321 8.748 183.666 8.888C184.021 9.028 184.329 9.21933 184.59 9.462C184.852 9.70467 185.052 9.98467 185.192 10.302C185.342 10.61 185.416 10.932 185.416 11.268L185.122 11.058V9.28C185.122 9.15867 185.16 9.056 185.234 8.972C185.318 8.888 185.421 8.846 185.542 8.846ZM182.63 15.356C183.125 15.356 183.564 15.23 183.946 14.978C184.329 14.7167 184.628 14.362 184.842 13.914C185.066 13.4567 185.178 12.948 185.178 12.388C185.178 11.8373 185.066 11.3427 184.842 10.904C184.628 10.4653 184.329 10.1153 183.946 9.854C183.564 9.59267 183.125 9.462 182.63 9.462C182.145 9.462 181.706 9.588 181.314 9.84C180.932 10.092 180.628 10.4373 180.404 10.876C180.19 11.3147 180.082 11.8187 180.082 12.388C180.082 12.948 180.19 13.4567 180.404 13.914C180.628 14.362 180.932 14.7167 181.314 14.978C181.697 15.23 182.136 15.356 182.63 15.356ZM182.714 8.23C182.462 8.23 182.224 8.16933 182 8.048C181.786 7.92667 181.613 7.76333 181.482 7.558C181.352 7.34333 181.286 7.11 181.286 6.858C181.286 6.606 181.352 6.37733 181.482 6.172C181.613 5.95733 181.786 5.78933 182 5.668C182.224 5.54667 182.462 5.486 182.714 5.486C182.966 5.486 183.2 5.54667 183.414 5.668C183.638 5.78933 183.816 5.95733 183.946 6.172C184.077 6.37733 184.142 6.606 184.142 6.858C184.142 7.11 184.077 7.34333 183.946 7.558C183.816 7.76333 183.638 7.92667 183.414 8.048C183.2 8.16933 182.966 8.23 182.714 8.23ZM182.714 7.642C182.938 7.642 183.13 7.56733 183.288 7.418C183.447 7.25933 183.526 7.07267 183.526 6.858C183.526 6.62467 183.447 6.43333 183.288 6.284C183.13 6.13467 182.938 6.06 182.714 6.06C182.5 6.06 182.313 6.13933 182.154 6.298C181.996 6.44733 181.916 6.634 181.916 6.858C181.916 7.07267 181.996 7.25933 182.154 7.418C182.313 7.56733 182.5 7.642 182.714 7.642ZM188.587 16C188.456 16 188.353 15.958 188.279 15.874C188.204 15.79 188.167 15.692 188.167 15.58V9.308C188.167 9.196 188.204 9.098 188.279 9.014C188.363 8.93 188.465 8.888 188.587 8.888C188.708 8.888 188.806 8.93 188.881 9.014C188.965 9.098 189.007 9.196 189.007 9.308V11.408L188.797 11.45C188.825 11.1233 188.904 10.8013 189.035 10.484C189.175 10.1573 189.361 9.85867 189.595 9.588C189.828 9.31733 190.103 9.098 190.421 8.93C190.747 8.762 191.111 8.678 191.513 8.678C191.681 8.678 191.844 8.71533 192.003 8.79C192.161 8.85533 192.241 8.96733 192.241 9.126C192.241 9.266 192.203 9.37333 192.129 9.448C192.054 9.52267 191.965 9.56 191.863 9.56C191.779 9.56 191.685 9.53667 191.583 9.49C191.489 9.44333 191.363 9.42 191.205 9.42C190.943 9.42 190.682 9.49933 190.421 9.658C190.159 9.80733 189.921 10.0127 189.707 10.274C189.492 10.5353 189.319 10.8293 189.189 11.156C189.067 11.4733 189.007 11.7953 189.007 12.122V15.58C189.007 15.692 188.965 15.79 188.881 15.874C188.797 15.958 188.699 16 188.587 16Z" fill="#3C3D36"/>
<path d="M120 17.75H192.451V18.45H120V17.75Z" fill="#3C3D36"/>
<path d="M225.47 6.928C225.582 7.00267 225.647 7.10067 225.666 7.222C225.685 7.334 225.657 7.446 225.582 7.558C225.517 7.642 225.433 7.68867 225.33 7.698C225.227 7.70733 225.129 7.68867 225.036 7.642C224.681 7.40867 224.299 7.22667 223.888 7.096C223.487 6.96533 223.053 6.9 222.586 6.9C222.017 6.9 221.485 7.00267 220.99 7.208C220.505 7.404 220.08 7.69333 219.716 8.076C219.352 8.44933 219.067 8.89267 218.862 9.406C218.666 9.91933 218.568 10.484 218.568 11.1C218.568 11.7347 218.671 12.3133 218.876 12.836C219.081 13.3493 219.366 13.7927 219.73 14.166C220.103 14.5393 220.533 14.824 221.018 15.02C221.503 15.216 222.026 15.314 222.586 15.314C223.043 15.314 223.473 15.2487 223.874 15.118C224.285 14.9873 224.667 14.81 225.022 14.586C225.115 14.53 225.213 14.5113 225.316 14.53C225.428 14.5393 225.517 14.5907 225.582 14.684C225.666 14.7867 225.694 14.8987 225.666 15.02C225.647 15.132 225.587 15.2207 225.484 15.286C225.251 15.4353 224.975 15.5753 224.658 15.706C224.341 15.8367 224.005 15.9393 223.65 16.014C223.295 16.098 222.941 16.14 222.586 16.14C221.914 16.14 221.284 16.0187 220.696 15.776C220.108 15.5333 219.585 15.1927 219.128 14.754C218.671 14.306 218.311 13.774 218.05 13.158C217.798 12.542 217.672 11.856 217.672 11.1C217.672 10.372 217.798 9.70467 218.05 9.098C218.302 8.482 218.652 7.95 219.1 7.502C219.548 7.054 220.071 6.704 220.668 6.452C221.265 6.2 221.905 6.074 222.586 6.074C223.118 6.074 223.631 6.14867 224.126 6.298C224.621 6.44733 225.069 6.65733 225.47 6.928ZM233.916 12.416C233.916 13.1253 233.762 13.7647 233.454 14.334C233.146 14.894 232.726 15.3373 232.194 15.664C231.662 15.9813 231.056 16.14 230.374 16.14C229.712 16.14 229.11 15.9813 228.568 15.664C228.036 15.3373 227.612 14.894 227.294 14.334C226.986 13.7647 226.832 13.1253 226.832 12.416C226.832 11.6973 226.986 11.058 227.294 10.498C227.612 9.938 228.036 9.49467 228.568 9.168C229.11 8.84133 229.712 8.678 230.374 8.678C231.056 8.678 231.662 8.84133 232.194 9.168C232.726 9.49467 233.146 9.938 233.454 10.498C233.762 11.058 233.916 11.6973 233.916 12.416ZM233.076 12.416C233.076 11.8467 232.96 11.3427 232.726 10.904C232.493 10.456 232.171 10.106 231.76 9.854C231.359 9.59267 230.897 9.462 230.374 9.462C229.87 9.462 229.413 9.59267 229.002 9.854C228.592 10.106 228.265 10.456 228.022 10.904C227.789 11.3427 227.672 11.8467 227.672 12.416C227.672 12.9853 227.789 13.4893 228.022 13.928C228.265 14.3667 228.592 14.7167 229.002 14.978C229.413 15.23 229.87 15.356 230.374 15.356C230.897 15.356 231.359 15.23 231.76 14.978C232.171 14.7167 232.493 14.3667 232.726 13.928C232.96 13.4893 233.076 12.9853 233.076 12.416ZM242.366 12.416C242.366 13.1253 242.212 13.7647 241.904 14.334C241.596 14.894 241.176 15.3373 240.644 15.664C240.112 15.9813 239.505 16.14 238.824 16.14C238.161 16.14 237.559 15.9813 237.018 15.664C236.486 15.3373 236.061 14.894 235.744 14.334C235.436 13.7647 235.282 13.1253 235.282 12.416C235.282 11.6973 235.436 11.058 235.744 10.498C236.061 9.938 236.486 9.49467 237.018 9.168C237.559 8.84133 238.161 8.678 238.824 8.678C239.505 8.678 240.112 8.84133 240.644 9.168C241.176 9.49467 241.596 9.938 241.904 10.498C242.212 11.058 242.366 11.6973 242.366 12.416ZM241.526 12.416C241.526 11.8467 241.409 11.3427 241.176 10.904C240.942 10.456 240.62 10.106 240.21 9.854C239.808 9.59267 239.346 9.462 238.824 9.462C238.32 9.462 237.862 9.59267 237.452 9.854C237.041 10.106 236.714 10.456 236.472 10.904C236.238 11.3427 236.122 11.8467 236.122 12.416C236.122 12.9853 236.238 13.4893 236.472 13.928C236.714 14.3667 237.041 14.7167 237.452 14.978C237.862 15.23 238.32 15.356 238.824 15.356C239.346 15.356 239.808 15.23 240.21 14.978C240.62 14.7167 240.942 14.3667 241.176 13.928C241.409 13.4893 241.526 12.9853 241.526 12.416ZM244.655 16C244.534 16 244.431 15.958 244.347 15.874C244.272 15.79 244.235 15.692 244.235 15.58V6.06C244.235 5.948 244.272 5.85 244.347 5.766C244.431 5.682 244.534 5.64 244.655 5.64C244.776 5.64 244.874 5.682 244.949 5.766C245.033 5.85 245.075 5.948 245.075 6.06V15.58C245.075 15.692 245.033 15.79 244.949 15.874C244.874 15.958 244.776 16 244.655 16ZM249.415 8.818C249.518 8.818 249.611 8.86467 249.695 8.958C249.779 9.042 249.821 9.13533 249.821 9.238C249.821 9.35933 249.77 9.46667 249.667 9.56L244.963 13.564L244.921 12.57L249.121 8.958C249.205 8.86467 249.303 8.818 249.415 8.818ZM249.527 16C249.406 16 249.303 15.9487 249.219 15.846L246.027 12.458L246.657 11.884L249.821 15.258C249.905 15.3513 249.947 15.4587 249.947 15.58C249.947 15.7107 249.896 15.8133 249.793 15.888C249.69 15.9627 249.602 16 249.527 16ZM252.455 15.58C252.455 15.692 252.413 15.79 252.329 15.874C252.245 15.958 252.147 16 252.035 16C251.914 16 251.811 15.958 251.727 15.874C251.652 15.79 251.615 15.692 251.615 15.58V9.14C251.615 9.028 251.652 8.93 251.727 8.846C251.811 8.762 251.914 8.72 252.035 8.72C252.156 8.72 252.254 8.762 252.329 8.846C252.413 8.93 252.455 9.028 252.455 9.14V15.58ZM252.035 7.782C251.839 7.782 251.69 7.74 251.587 7.656C251.494 7.56267 251.447 7.432 251.447 7.264V7.124C251.447 6.956 251.498 6.83 251.601 6.746C251.713 6.65267 251.862 6.606 252.049 6.606C252.226 6.606 252.362 6.65267 252.455 6.746C252.558 6.83 252.609 6.956 252.609 7.124V7.264C252.609 7.432 252.558 7.56267 252.455 7.656C252.362 7.74 252.222 7.782 252.035 7.782ZM257.871 16.14C257.153 16.14 256.518 15.986 255.967 15.678C255.417 15.37 254.987 14.9407 254.679 14.39C254.371 13.8393 254.217 13.1953 254.217 12.458C254.217 11.6647 254.371 10.988 254.679 10.428C254.997 9.868 255.403 9.43867 255.897 9.14C256.401 8.832 256.933 8.678 257.493 8.678C257.904 8.678 258.301 8.75267 258.683 8.902C259.075 9.042 259.421 9.25667 259.719 9.546C260.027 9.826 260.27 10.1713 260.447 10.582C260.634 10.9927 260.737 11.4687 260.755 12.01C260.746 12.122 260.699 12.22 260.615 12.304C260.531 12.3787 260.433 12.416 260.321 12.416H254.707L254.539 11.66H260.055L259.873 11.828V11.548C259.836 11.1093 259.696 10.736 259.453 10.428C259.211 10.12 258.917 9.88667 258.571 9.728C258.226 9.56933 257.867 9.49 257.493 9.49C257.213 9.49 256.924 9.546 256.625 9.658C256.336 9.77 256.07 9.94733 255.827 10.19C255.594 10.4233 255.403 10.7267 255.253 11.1C255.104 11.464 255.029 11.898 255.029 12.402C255.029 12.9527 255.141 13.452 255.365 13.9C255.589 14.348 255.911 14.7027 256.331 14.964C256.761 15.2253 257.269 15.356 257.857 15.356C258.184 15.356 258.478 15.3093 258.739 15.216C259.001 15.1227 259.229 15.0013 259.425 14.852C259.621 14.6933 259.785 14.53 259.915 14.362C260.018 14.278 260.121 14.236 260.223 14.236C260.317 14.236 260.396 14.2733 260.461 14.348C260.536 14.4227 260.573 14.5067 260.573 14.6C260.573 14.712 260.527 14.81 260.433 14.894C260.153 15.23 259.789 15.524 259.341 15.776C258.893 16.0187 258.403 16.14 257.871 16.14ZM262.147 14.866C262.073 14.754 262.035 14.6467 262.035 14.544C262.045 14.432 262.105 14.3433 262.217 14.278C262.292 14.2127 262.376 14.1847 262.469 14.194C262.572 14.2033 262.665 14.25 262.749 14.334C263.001 14.6607 263.305 14.9267 263.659 15.132C264.023 15.328 264.453 15.426 264.947 15.426C265.209 15.426 265.465 15.384 265.717 15.3C265.979 15.2067 266.193 15.0713 266.361 14.894C266.529 14.7073 266.613 14.474 266.613 14.194C266.613 13.9047 266.529 13.6713 266.361 13.494C266.193 13.3167 265.974 13.1767 265.703 13.074C265.442 12.9713 265.162 12.8827 264.863 12.808C264.546 12.724 264.238 12.6307 263.939 12.528C263.641 12.416 263.375 12.2807 263.141 12.122C262.917 11.954 262.735 11.7533 262.595 11.52C262.455 11.2867 262.385 11.002 262.385 10.666C262.385 10.274 262.493 9.92867 262.707 9.63C262.922 9.33133 263.211 9.098 263.575 8.93C263.949 8.762 264.369 8.678 264.835 8.678C265.069 8.678 265.321 8.71067 265.591 8.776C265.862 8.832 266.128 8.93 266.389 9.07C266.651 9.21 266.884 9.40133 267.089 9.644C267.173 9.728 267.215 9.826 267.215 9.938C267.215 10.0407 267.169 10.134 267.075 10.218C267.001 10.274 266.912 10.302 266.809 10.302C266.716 10.302 266.637 10.2647 266.571 10.19C266.347 9.938 266.081 9.74667 265.773 9.616C265.465 9.48533 265.134 9.42 264.779 9.42C264.509 9.42 264.252 9.46667 264.009 9.56C263.776 9.644 263.58 9.77467 263.421 9.952C263.263 10.1293 263.183 10.3627 263.183 10.652C263.202 10.9227 263.295 11.142 263.463 11.31C263.641 11.478 263.869 11.618 264.149 11.73C264.439 11.842 264.761 11.9447 265.115 12.038C265.414 12.1127 265.699 12.2013 265.969 12.304C266.249 12.4067 266.492 12.5373 266.697 12.696C266.912 12.8453 267.08 13.0367 267.201 13.27C267.332 13.5033 267.397 13.7973 267.397 14.152C267.397 14.5627 267.281 14.9173 267.047 15.216C266.823 15.5147 266.52 15.7433 266.137 15.902C265.755 16.0607 265.33 16.14 264.863 16.14C264.359 16.14 263.869 16.042 263.393 15.846C262.927 15.65 262.511 15.3233 262.147 14.866ZM274.036 15.566C274.027 15.6873 273.975 15.79 273.882 15.874C273.798 15.958 273.7 16 273.588 16C273.457 16 273.35 15.958 273.266 15.874C273.191 15.79 273.154 15.6873 273.154 15.566V6.634C273.154 6.51267 273.196 6.41 273.28 6.326C273.364 6.242 273.471 6.2 273.602 6.2C273.714 6.2 273.812 6.242 273.896 6.326C273.989 6.41 274.036 6.51267 274.036 6.634V15.566ZM279.818 8.678C280.434 8.678 280.924 8.804 281.288 9.056C281.661 9.29867 281.927 9.63467 282.086 10.064C282.254 10.484 282.338 10.9507 282.338 11.464V15.58C282.338 15.692 282.296 15.79 282.212 15.874C282.128 15.958 282.03 16 281.918 16C281.787 16 281.685 15.958 281.61 15.874C281.535 15.79 281.498 15.692 281.498 15.58V11.506C281.498 11.1327 281.437 10.792 281.316 10.484C281.195 10.176 280.994 9.92867 280.714 9.742C280.443 9.55533 280.084 9.462 279.636 9.462C279.235 9.462 278.852 9.55533 278.488 9.742C278.133 9.92867 277.844 10.176 277.62 10.484C277.396 10.792 277.284 11.1327 277.284 11.506V15.58C277.284 15.692 277.242 15.79 277.158 15.874C277.074 15.958 276.976 16 276.864 16C276.733 16 276.631 15.958 276.556 15.874C276.481 15.79 276.444 15.692 276.444 15.58V9.308C276.444 9.196 276.481 9.098 276.556 9.014C276.64 8.93 276.743 8.888 276.864 8.888C276.985 8.888 277.083 8.93 277.158 9.014C277.242 9.098 277.284 9.196 277.284 9.308V10.484L276.962 10.988C276.981 10.6893 277.074 10.4047 277.242 10.134C277.419 9.854 277.643 9.60667 277.914 9.392C278.185 9.168 278.483 8.99533 278.81 8.874C279.146 8.74333 279.482 8.678 279.818 8.678ZM290.404 5.64C290.525 5.64 290.623 5.682 290.698 5.766C290.782 5.84067 290.824 5.93867 290.824 6.06V15.58C290.824 15.692 290.782 15.79 290.698 15.874C290.614 15.958 290.516 16 290.404 16C290.282 16 290.18 15.958 290.096 15.874C290.021 15.79 289.984 15.692 289.984 15.58V13.914L290.222 13.718C290.222 13.9793 290.152 14.2547 290.012 14.544C289.872 14.824 289.671 15.0853 289.41 15.328C289.158 15.5707 288.859 15.7667 288.514 15.916C288.178 16.0653 287.814 16.14 287.422 16.14C286.796 16.14 286.232 15.9767 285.728 15.65C285.233 15.3233 284.841 14.88 284.552 14.32C284.262 13.76 284.118 13.1207 284.118 12.402C284.118 11.6927 284.262 11.058 284.552 10.498C284.841 9.92867 285.233 9.48533 285.728 9.168C286.222 8.84133 286.782 8.678 287.408 8.678C287.79 8.678 288.154 8.748 288.5 8.888C288.845 9.028 289.148 9.21933 289.41 9.462C289.68 9.70467 289.89 9.98467 290.04 10.302C290.198 10.61 290.278 10.932 290.278 11.268L289.984 11.058V6.06C289.984 5.948 290.021 5.85 290.096 5.766C290.18 5.682 290.282 5.64 290.404 5.64ZM287.492 15.356C287.996 15.356 288.434 15.23 288.808 14.978C289.19 14.7167 289.489 14.3667 289.704 13.928C289.928 13.48 290.04 12.9713 290.04 12.402C290.04 11.842 289.928 11.3427 289.704 10.904C289.489 10.456 289.19 10.106 288.808 9.854C288.425 9.59267 287.986 9.462 287.492 9.462C287.006 9.462 286.568 9.59267 286.176 9.854C285.793 10.106 285.49 10.456 285.266 10.904C285.051 11.3427 284.944 11.842 284.944 12.402C284.944 12.962 285.051 13.466 285.266 13.914C285.49 14.362 285.793 14.7167 286.176 14.978C286.568 15.23 287.006 15.356 287.492 15.356ZM292.622 14.866C292.547 14.754 292.51 14.6467 292.51 14.544C292.519 14.432 292.58 14.3433 292.692 14.278C292.767 14.2127 292.851 14.1847 292.944 14.194C293.047 14.2033 293.14 14.25 293.224 14.334C293.476 14.6607 293.779 14.9267 294.134 15.132C294.498 15.328 294.927 15.426 295.422 15.426C295.683 15.426 295.94 15.384 296.192 15.3C296.453 15.2067 296.668 15.0713 296.836 14.894C297.004 14.7073 297.088 14.474 297.088 14.194C297.088 13.9047 297.004 13.6713 296.836 13.494C296.668 13.3167 296.449 13.1767 296.178 13.074C295.917 12.9713 295.637 12.8827 295.338 12.808C295.021 12.724 294.713 12.6307 294.414 12.528C294.115 12.416 293.849 12.2807 293.616 12.122C293.392 11.954 293.21 11.7533 293.07 11.52C292.93 11.2867 292.86 11.002 292.86 10.666C292.86 10.274 292.967 9.92867 293.182 9.63C293.397 9.33133 293.686 9.098 294.05 8.93C294.423 8.762 294.843 8.678 295.31 8.678C295.543 8.678 295.795 8.71067 296.066 8.776C296.337 8.832 296.603 8.93 296.864 9.07C297.125 9.21 297.359 9.40133 297.564 9.644C297.648 9.728 297.69 9.826 297.69 9.938C297.69 10.0407 297.643 10.134 297.55 10.218C297.475 10.274 297.387 10.302 297.284 10.302C297.191 10.302 297.111 10.2647 297.046 10.19C296.822 9.938 296.556 9.74667 296.248 9.616C295.94 9.48533 295.609 9.42 295.254 9.42C294.983 9.42 294.727 9.46667 294.484 9.56C294.251 9.644 294.055 9.77467 293.896 9.952C293.737 10.1293 293.658 10.3627 293.658 10.652C293.677 10.9227 293.77 11.142 293.938 11.31C294.115 11.478 294.344 11.618 294.624 11.73C294.913 11.842 295.235 11.9447 295.59 12.038C295.889 12.1127 296.173 12.2013 296.444 12.304C296.724 12.4067 296.967 12.5373 297.172 12.696C297.387 12.8453 297.555 13.0367 297.676 13.27C297.807 13.5033 297.872 13.7973 297.872 14.152C297.872 14.5627 297.755 14.9173 297.522 15.216C297.298 15.5147 296.995 15.7433 296.612 15.902C296.229 16.0607 295.805 16.14 295.338 16.14C294.834 16.14 294.344 16.042 293.868 15.846C293.401 15.65 292.986 15.3233 292.622 14.866ZM299.128 8.874H302.39C302.502 8.874 302.596 8.916 302.67 9C302.745 9.07467 302.782 9.168 302.782 9.28C302.782 9.38267 302.745 9.47133 302.67 9.546C302.596 9.62067 302.502 9.658 302.39 9.658H299.128C299.016 9.658 298.918 9.62067 298.834 9.546C298.76 9.462 298.722 9.36867 298.722 9.266C298.722 9.154 298.76 9.06067 298.834 8.986C298.918 8.91133 299.016 8.874 299.128 8.874ZM300.57 6.9C300.692 6.9 300.79 6.942 300.864 7.026C300.948 7.11 300.99 7.208 300.99 7.32V14.348C300.99 14.6093 301.023 14.8053 301.088 14.936C301.163 15.0667 301.256 15.1553 301.368 15.202C301.48 15.2393 301.592 15.258 301.704 15.258C301.779 15.258 301.844 15.2487 301.9 15.23C301.966 15.202 302.036 15.188 302.11 15.188C302.194 15.188 302.264 15.2207 302.32 15.286C302.386 15.3513 302.418 15.4353 302.418 15.538C302.418 15.6687 302.344 15.7807 302.194 15.874C302.045 15.958 301.868 16 301.662 16C301.578 16 301.452 15.9953 301.284 15.986C301.116 15.9673 300.944 15.916 300.766 15.832C300.589 15.7387 300.44 15.58 300.318 15.356C300.206 15.132 300.15 14.81 300.15 14.39V7.32C300.15 7.208 300.188 7.11 300.262 7.026C300.346 6.942 300.449 6.9 300.57 6.9ZM305.147 15.58C305.147 15.692 305.105 15.79 305.021 15.874C304.937 15.958 304.839 16 304.727 16C304.605 16 304.503 15.958 304.419 15.874C304.344 15.79 304.307 15.692 304.307 15.58V9.14C304.307 9.028 304.344 8.93 304.419 8.846C304.503 8.762 304.605 8.72 304.727 8.72C304.848 8.72 304.946 8.762 305.021 8.846C305.105 8.93 305.147 9.028 305.147 9.14V15.58ZM304.727 7.782C304.531 7.782 304.381 7.74 304.279 7.656C304.185 7.56267 304.139 7.432 304.139 7.264V7.124C304.139 6.956 304.19 6.83 304.293 6.746C304.405 6.65267 304.554 6.606 304.741 6.606C304.918 6.606 305.053 6.65267 305.147 6.746C305.249 6.83 305.301 6.956 305.301 7.124V7.264C305.301 7.432 305.249 7.56267 305.147 7.656C305.053 7.74 304.913 7.782 304.727 7.782ZM308.253 15.58C308.253 15.692 308.211 15.79 308.127 15.874C308.043 15.958 307.945 16 307.833 16C307.711 16 307.609 15.958 307.525 15.874C307.45 15.79 307.413 15.692 307.413 15.58V6.06C307.413 5.948 307.455 5.85 307.539 5.766C307.623 5.682 307.721 5.64 307.833 5.64C307.954 5.64 308.052 5.682 308.127 5.766C308.211 5.85 308.253 5.948 308.253 6.06V15.58ZM311.479 15.58C311.479 15.692 311.437 15.79 311.353 15.874C311.269 15.958 311.171 16 311.059 16C310.938 16 310.835 15.958 310.751 15.874C310.677 15.79 310.639 15.692 310.639 15.58V6.06C310.639 5.948 310.681 5.85 310.765 5.766C310.849 5.682 310.947 5.64 311.059 5.64C311.181 5.64 311.279 5.682 311.353 5.766C311.437 5.85 311.479 5.948 311.479 6.06V15.58ZM314.594 15.58C314.594 15.692 314.552 15.79 314.468 15.874C314.384 15.958 314.286 16 314.174 16C314.052 16 313.95 15.958 313.866 15.874C313.791 15.79 313.754 15.692 313.754 15.58V9.14C313.754 9.028 313.791 8.93 313.866 8.846C313.95 8.762 314.052 8.72 314.174 8.72C314.295 8.72 314.393 8.762 314.468 8.846C314.552 8.93 314.594 9.028 314.594 9.14V15.58ZM314.174 7.782C313.978 7.782 313.828 7.74 313.726 7.656C313.632 7.56267 313.586 7.432 313.586 7.264V7.124C313.586 6.956 313.637 6.83 313.74 6.746C313.852 6.65267 314.001 6.606 314.188 6.606C314.365 6.606 314.5 6.65267 314.594 6.746C314.696 6.83 314.748 6.956 314.748 7.124V7.264C314.748 7.432 314.696 7.56267 314.594 7.656C314.5 7.74 314.36 7.782 314.174 7.782ZM320.15 8.678C320.766 8.678 321.256 8.804 321.62 9.056C321.993 9.29867 322.259 9.63467 322.418 10.064C322.586 10.484 322.67 10.9507 322.67 11.464V15.58C322.67 15.692 322.628 15.79 322.544 15.874C322.46 15.958 322.362 16 322.25 16C322.119 16 322.017 15.958 321.942 15.874C321.867 15.79 321.83 15.692 321.83 15.58V11.506C321.83 11.1327 321.769 10.792 321.648 10.484C321.527 10.176 321.326 9.92867 321.046 9.742C320.775 9.55533 320.416 9.462 319.968 9.462C319.567 9.462 319.184 9.55533 318.82 9.742C318.465 9.92867 318.176 10.176 317.952 10.484C317.728 10.792 317.616 11.1327 317.616 11.506V15.58C317.616 15.692 317.574 15.79 317.49 15.874C317.406 15.958 317.308 16 317.196 16C317.065 16 316.963 15.958 316.888 15.874C316.813 15.79 316.776 15.692 316.776 15.58V9.308C316.776 9.196 316.813 9.098 316.888 9.014C316.972 8.93 317.075 8.888 317.196 8.888C317.317 8.888 317.415 8.93 317.49 9.014C317.574 9.098 317.616 9.196 317.616 9.308V10.484L317.294 10.988C317.313 10.6893 317.406 10.4047 317.574 10.134C317.751 9.854 317.975 9.60667 318.246 9.392C318.517 9.168 318.815 8.99533 319.142 8.874C319.478 8.74333 319.814 8.678 320.15 8.678ZM327.852 8.678C328.272 8.678 328.659 8.75267 329.014 8.902C329.368 9.042 329.676 9.22867 329.938 9.462C330.208 9.686 330.418 9.92867 330.568 10.19C330.717 10.442 330.792 10.6847 330.792 10.918L330.554 10.582V9.28C330.554 9.15867 330.591 9.056 330.666 8.972C330.75 8.888 330.852 8.846 330.974 8.846C331.104 8.846 331.207 8.888 331.282 8.972C331.356 9.056 331.394 9.15867 331.394 9.28V15.342C331.394 16.0887 331.24 16.7187 330.932 17.232C330.624 17.7453 330.204 18.1327 329.672 18.394C329.149 18.6647 328.552 18.8 327.88 18.8C327.553 18.8 327.208 18.758 326.844 18.674C326.489 18.59 326.181 18.4827 325.92 18.352C325.668 18.2213 325.528 18.086 325.5 17.946C325.425 17.862 325.388 17.778 325.388 17.694C325.397 17.6193 325.439 17.554 325.514 17.498C325.607 17.4327 325.705 17.4233 325.808 17.47C325.91 17.526 326.064 17.596 326.27 17.68C326.363 17.708 326.489 17.75 326.648 17.806C326.806 17.862 326.993 17.9087 327.208 17.946C327.432 17.9927 327.665 18.016 327.908 18.016C328.748 18.016 329.396 17.7733 329.854 17.288C330.32 16.812 330.554 16.182 330.554 15.398V14.054L330.708 14.096C330.624 14.432 330.484 14.726 330.288 14.978C330.101 15.23 329.877 15.4447 329.616 15.622C329.354 15.79 329.07 15.916 328.762 16C328.463 16.0933 328.164 16.14 327.866 16.14C327.222 16.14 326.643 15.9767 326.13 15.65C325.616 15.3233 325.206 14.88 324.898 14.32C324.599 13.76 324.45 13.1207 324.45 12.402C324.45 11.6927 324.599 11.058 324.898 10.498C325.206 9.92867 325.612 9.48533 326.116 9.168C326.629 8.84133 327.208 8.678 327.852 8.678ZM327.95 9.462C327.436 9.462 326.974 9.59267 326.564 9.854C326.162 10.106 325.845 10.456 325.612 10.904C325.388 11.3427 325.276 11.842 325.276 12.402C325.276 12.962 325.388 13.466 325.612 13.914C325.845 14.362 326.162 14.7167 326.564 14.978C326.974 15.23 327.436 15.356 327.95 15.356C328.463 15.356 328.92 15.23 329.322 14.978C329.723 14.726 330.04 14.3807 330.274 13.942C330.507 13.494 330.624 12.9807 330.624 12.402C330.624 11.8233 330.507 11.3147 330.274 10.876C330.04 10.428 329.723 10.0827 329.322 9.84C328.92 9.588 328.463 9.462 327.95 9.462ZM336.567 16.14C335.848 16.14 335.213 15.986 334.663 15.678C334.112 15.37 333.683 14.9407 333.375 14.39C333.067 13.8393 332.913 13.1953 332.913 12.458C332.913 11.6647 333.067 10.988 333.375 10.428C333.692 9.868 334.098 9.43867 334.593 9.14C335.097 8.832 335.629 8.678 336.189 8.678C336.599 8.678 336.996 8.75267 337.379 8.902C337.771 9.042 338.116 9.25667 338.415 9.546C338.723 9.826 338.965 10.1713 339.143 10.582C339.329 10.9927 339.432 11.4687 339.451 12.01C339.441 12.122 339.395 12.22 339.311 12.304C339.227 12.3787 339.129 12.416 339.017 12.416H333.403L333.235 11.66H338.751L338.569 11.828V11.548C338.531 11.1093 338.391 10.736 338.149 10.428C337.906 10.12 337.612 9.88667 337.267 9.728C336.921 9.56933 336.562 9.49 336.189 9.49C335.909 9.49 335.619 9.546 335.321 9.658C335.031 9.77 334.765 9.94733 334.523 10.19C334.289 10.4233 334.098 10.7267 333.949 11.1C333.799 11.464 333.725 11.898 333.725 12.402C333.725 12.9527 333.837 13.452 334.061 13.9C334.285 14.348 334.607 14.7027 335.027 14.964C335.456 15.2253 335.965 15.356 336.553 15.356C336.879 15.356 337.173 15.3093 337.435 15.216C337.696 15.1227 337.925 15.0013 338.121 14.852C338.317 14.6933 338.48 14.53 338.611 14.362C338.713 14.278 338.816 14.236 338.919 14.236C339.012 14.236 339.091 14.2733 339.157 14.348C339.231 14.4227 339.269 14.5067 339.269 14.6C339.269 14.712 339.222 14.81 339.129 14.894C338.849 15.23 338.485 15.524 338.037 15.776C337.589 16.0187 337.099 16.14 336.567 16.14ZM341.669 16C341.538 16 341.435 15.958 341.361 15.874C341.286 15.79 341.249 15.692 341.249 15.58V9.308C341.249 9.196 341.286 9.098 341.361 9.014C341.445 8.93 341.547 8.888 341.669 8.888C341.79 8.888 341.888 8.93 341.963 9.014C342.047 9.098 342.089 9.196 342.089 9.308V11.408L341.879 11.45C341.907 11.1233 341.986 10.8013 342.117 10.484C342.257 10.1573 342.443 9.85867 342.677 9.588C342.91 9.31733 343.185 9.098 343.503 8.93C343.829 8.762 344.193 8.678 344.595 8.678C344.763 8.678 344.926 8.71533 345.085 8.79C345.243 8.85533 345.323 8.96733 345.323 9.126C345.323 9.266 345.285 9.37333 345.211 9.448C345.136 9.52267 345.047 9.56 344.945 9.56C344.861 9.56 344.767 9.53667 344.665 9.49C344.571 9.44333 344.445 9.42 344.287 9.42C344.025 9.42 343.764 9.49933 343.503 9.658C343.241 9.80733 343.003 10.0127 342.789 10.274C342.574 10.5353 342.401 10.8293 342.271 11.156C342.149 11.4733 342.089 11.7953 342.089 12.122V15.58C342.089 15.692 342.047 15.79 341.963 15.874C341.879 15.958 341.781 16 341.669 16Z" fill="#3C3D36"/>
<path d="M217 17.75H345.533V18.45H217V17.75Z" fill="#3C3D36"/>
</svg>
