<?xml version="1.0" encoding="UTF-8"?>
<svg id="Layer_1" data-name="Layer 1" xmlns="http://www.w3.org/2000/svg" viewBox="0 0 240.47 54.53">
  <defs>
    <style>
      .cls-1 {
        fill: #585a4c;
      }

      .cls-2 {
        fill: #8fb3d2;
        stroke: #8fb3d2;
      }

      .cls-2, .cls-3, .cls-4 {
        stroke-miterlimit: 10;
        stroke-width: .25px;
      }

      .cls-3 {
        fill: #edd185;
        stroke: #fcf0bc;
      }

      .cls-4 {
        fill: #a1c6a5;
        stroke: #a1c6a5;
      }
    </style>
  </defs>
  <path class="cls-3" d="M29.65,34.44h-7.9c0-4.43,3.57-8.08,7.9-8.08s7.9,3.65,7.9,8.08h-7.9Z"/>
  <path class="cls-2" d="M32.92,50.65c-.52.37-6.97,4.83-15.2,3.51-2.16-.35-3.92-1.01-5.07-1.53-3.22-1.46-5.53-3.57-7.22-5.45-2.29-2.55-3.54-5.15-4.24-7.02-.02-.06.01-.12.07-.14.61-.18,1.21-.36,1.82-.54,0,0,.01,0,.01,0h0s1.19-.27,1.86-.29c.01,0,.02,0,.03,0,.48.01.98.04,1.52.1.36.04.71.08,1.04.14-.01,0-.02,0-.02,0,0,0,.02,0,.06,0,.53.12,1.07.28,1.62.47.07.03.15.05.22.08,0,0,0,0,0,0,0,0,0,0,0,0,.39.18.8.38,1.22.6.34.18.67.37.98.55,0,0,0,0,0,0,0,0,0,0,0,0,.65.42,1.3.85,1.96,1.3,1.19.81,2.33,1.63,3.41,2.44,0,0,0,0,0,0s0,0,0,0c.4.27.83.55,1.3.83.41.24.81.45,1.18.64,0,0,0,0,0,0,0,0,0,0,0,0l2.05.78s0,0,0,0c.59.18,1.19.36,1.78.55,0,0,0,0,0,0,0,0,.01,0,.01,0,0,0,.73.08,1.74.2.08,0,.16-.01.24-.02.1-.03.21-.06.31-.09.04-.03.08-.07.12-.1,2.92.4,7.05.44,10.47-1.95,2.27-1.59,3.44-3.7,3.52-3.63.13.1-1.96,5.04-6.88,8.55Z"/>
  <path class="cls-2" d="M.23,37.34c.18.14.49-.08,1.03-.28.44-.17.85-.23,1.66-.34,1.04-.15,1.86-.1,2.47-.07.4.02,1.37.1,2.65.41,3.1.74,5.48,2.23,5.86,2.47,1.26.8,2.28,1.7,4.33,3.5,1.21,1.06,1.22,1.14,1.78,1.61,0,0,0,0,0,0,1.41.94,3.51,2.41,5.79,3.04,3.41.94,6.49-.16,7.59-.55,1.78-.64,3.11-1.53,3.1-1.56,0-.02-.79.47-1.97.62-.51.07-.9.05-1.35.03,0,0-1.16-.06-2.26-.33-2.93-.73-6.11-3.18-6.11-3.18-4.09-3.16-3.74-3.98-6.48-5.8-3.3-2.2-6.33-2.92-7.19-3.1-5.93-1.28-10.38.67-10.71,1.57-.03.09-.14.49-.22.98-.09.58-.13.88.02.99Z"/>
  <path class="cls-2" d="M19.27,35.97c1.57,1.47,3.13,2.93,4.7,4.4,1.39,1.16,2.58,2.03,3.46,2.63.74.51,1.29.86,2,1.2.76.36,1.46.61,2.07.78.65.12,1.31.23,1.96.35.57.04,1.15.09,1.72.13h1.32c.45-.27.96-.63,1.48-1.11.87-.79,1.45-1.61,1.82-2.25.4-.86.82-1.93,1.14-3.21.27-1.09.4-2.08.46-2.92h-22.13ZM32.78,41.71c-1.45,0-2.9-.2-4.35-.03-.66.08-.65-.95,0-1.03,1.45-.17,2.9.02,4.35.03.66,0,.66,1.04,0,1.03ZM37.82,38.41c-1.83.24-3.67-.11-5.51.03-.66.05-.66-.98,0-1.03,1.84-.14,3.67.22,5.51-.03.66-.09.65.95,0,1.03Z"/>
  <path class="cls-4" d="M.61,34.95c.62-1.43,1.45-2.31,1.98-2.78,1.26-1.13,2.7-1.59,3.85-1.96.78-.25,1.55-.43,1.64-.45,1.07-.24,1.67-.28,2.68-.53.6-.15,1.19-.33,1.19-.33.03,0,.24-.07.45-.14.78-.25,1.18-.38,1.68-.63.53-.26,2.08-1.07,3.13-2.66.26-.39.59-1.14,1.25-2.64.48-1.09.56-1.37.89-1.76.89-1.04,2.36-1.49,2.59-1.19.09.13.08.53-1.46,2.17l-.89,2.04-.84,1.54c-.21.36-.42.72-.63,1.08-.46.57-.9,1-1.25,1.31,0,0-1.15.99-2.5,1.57-.01,0-.03.01-.03.01-.1.04-.35.15-.68.26-.62.22-1.1.34-1.49.44-1.22.3-1.83.45-2.23.56-.46.12-1.09.28-1.91.53-.83.25-1.31.39-1.97.66-1.08.43-1.66.79-1.81.88-.35.22-.53.34-.64.43-.22.19-.34.34-.61.45-.13.05-.17.05-.36.1-.08.02-.3.09-.74.31-.55.28-1.06.6-1.29.76Z"/>
  <path class="cls-4" d="M20.59,21.97c.06.08.14.2.24.36.11.19.17.35.18.38.24.56,1.58,1.14,1.58,1.14.6.26,1.17.51,2,.64,1.82.28,3.24-.28,3.58-.42,1.37-.57,2.63-1.63,2.46-2.1-.04-.11-.28-.24-.75-.5-.25-.14-.4-.2-.65-.37-.32-.21-.48-.32-.49-.45-.01-.23.47-.39.98-.65.82-.43,1.32-.94,1.74-1.37.44-.45,1.24-1.27,1.01-1.74-.12-.26-.52-.34-1.08-.46-.76-.16-1.13-.03-1.23-.23-.09-.19.17-.45.55-1.01,0,0,.1-.14.74-1.35.85-1.59.82-3.53.81-4.31-.02-1.17-.03-1.81-.3-1.89-.63-.2-2.32,2.62-3.09,4.58-.1.26-.28.74-.63,1.34-.1.17-.44.74-1.53,1.89-.49.52-1.09,1.16-2,1.92-.91.77-1.67,1.26-2.16,1.59-.81.53-1.54.94-2.11,1.24"/>
  <path class="cls-4" d="M19.4,19.37c.42.42,2.84-1.37,4.07-2.31,3.08-2.34,4.91-4.34,5.38-4.86,1.99-2.2,3.53-3.9,3.09-4.58-.44-.69-2.77-.19-4.14.72-.76.5-1.24,1.13-1.24,1.13-.43.56-.38.76-.85,1.46-.24.36-1.07,1.6-1.63,1.44-.3-.09-.4-.56-.41-.61-.12-.61.35-1.04.78-1.83.44-.79.59-1.48.7-2,.15-.72.38-1.86-.17-2.87-.05-.1-.47-.84-.87-.78-.23.04-.26.31-.7.74-.14.14-.64.62-.89.5-.19-.09-.17-.48-.17-.61,0-1.19-.95-2.16-1.44-2.7-.56-.61-1.09-.91-1.78-1.31-.9-.51-1.65-.95-1.96-.7-.32.26.21.97.51,2.64.31,1.79-.06,2.33.47,3.78.24.64.32.56.61,1.33.11.29.39,1.08.62,2.84.15,1.16.18,2.15.25,4.12.02.65.03,1.01.01,1.46-.02.65-.04,1.25-.15,2.05-.1.76-.17.87-.09.96Z"/>
  <path class="cls-4" d="M17.4.16c-.39-.11-.88.5-1.59,1.41-.19.24-1.35,1.75-1.71,3.29-.2.89-.23,1.17-.23,1.17-.05.55.01.86-.14.94-.16.08-.35-.21-.82-.46-.1-.05-.93-.5-1.49-.24-.6.28-.66,1.28-.66,1.42-.09,1.6,1.29,3.41,2.13,4.18.07.07.5.46.71,1.09.04.14.22.7-.01.9-.07.06-.23.12-.62-.03-.67-.24-.97-.67-1.42-1.1-.16-.15-.82-.78-1.79-1.19-.39-.17-.99-.42-1.77-.39-.34.01-.68.08-.99.14-.46.09-.82.19-1.04.26-.53.16-.38.15-.74.25-.38.1-.69.15-.75.34,0,0-.01.04,0,.09.03.33,1.78,3.4,5.7,4.16.64.12.61.05,1.34.2,1.7.35,3.11,1.04,3.77,1.36.14.07.45.22.99.49.28.13.55.29.83.41.29.12.43.15.62.31.18.15.23.27.3.25.14-.03.16-.46.19-.78.05-.59.09-.65.13-.89.07-.34.08-.6.09-.79.04-.78.14-1.08.18-2.09.02-.58.01-.98,0-1.54-.03-1.34-.14-2.33-.17-2.54-.07-.65-.1-.65-.18-1.44-.09-.84-.1-1.04-.16-1.51-.07-.54-.09-.63-.11-1.09-.06-1.54.1-2.18.01-3.83-.08-1.44-.14-2.59-.63-2.73Z"/>
  <path class="cls-4" d="M11.5,17c.88.34,4.28,1.55,5.6,2.98.16.17.42.49.52.94.2.82-.24,1.56-.67,2.28-.54.89-1.17,1.95-2.5,2.59-.27.13-1.25.59-2.41.46-.48-.05-.85-.25-1.6-.63-.06-.03-.16-.08-.19-.19-.04-.16.16-.29.55-.75.31-.36.17-.26.49-.65.12-.15.25-.29.21-.36-.03-.06-.17-.03-.2-.03-.5.08-1.91-.35-2.34-.49-.09-.03-1.08-.37-2.04-1.17-.35-.29-.69-.64-.7-1.07,0-.21.08-.37.09-.39.03-.06.13-.25.67-.54.28-.15.5-.27.82-.38.23-.08.43-.12.44-.22,0-.03-.02-.07-.18-.21-.14-.12-.2-.18-.27-.23-.43-.3-1.18-1.31-1.18-1.31-.71-.95-1.13-1.53-1.53-2.44-.4-.91-.52-1.57-.57-1.89-.11-.71-.16-1.07-.03-1.17.57-.48,2.7,3.19,7.02,4.87Z"/>
  <g>
    <path class="cls-1" d="M50.18,34.79v-1.58c.79-.05,1.36-.22,1.71-.5.35-.29.57-.72.67-1.3.1-.58.14-1.31.14-2.2v-14.98c0-.53.01-1.04.04-1.53.02-.49.05-.92.07-1.28-.41.02-.85.05-1.33.07-.48.02-.91.05-1.3.07v-1.98h8.86v1.58c-.77.02-1.33.19-1.69.49-.36.3-.59.73-.68,1.3-.1.56-.14,1.3-.14,2.21v5.87h11.92v-6.8c0-.53.01-1.04.04-1.53.02-.49.05-.92.07-1.28-.41.02-.85.05-1.33.07-.48.02-.91.05-1.29.07v-1.98h8.86v1.58c-.77.02-1.33.19-1.69.49-.36.3-.59.73-.68,1.3-.1.56-.14,1.3-.14,2.21v14.8c0,.65,0,1.23-.02,1.75-.01.52-.04.93-.09,1.24.41-.05.85-.08,1.33-.09.48-.01.91-.03,1.29-.05v1.98h-8.86v-1.58c.79-.05,1.36-.22,1.71-.5s.57-.72.67-1.3c.1-.58.14-1.31.14-2.2v-6.3l-11.92.11v6.95c0,.65,0,1.23-.02,1.75-.01.52-.04.93-.09,1.24.41-.05.86-.08,1.35-.09.49-.01.92-.03,1.28-.05v1.98h-8.86Z"/>
    <path class="cls-1" d="M77.64,34.79v-1.62c.72,0,1.27-.19,1.66-.58s.71-.91.97-1.57c.26-.66.55-1.4.86-2.21l7.27-19.91h1.44l7.88,20.2c.19.46.41,1.07.65,1.85.24.78.35,1.45.32,2,.41-.05.81-.08,1.21-.09.4-.01.77-.03,1.13-.05v1.98h-8.75v-1.58c.84-.02,1.4-.21,1.67-.56.28-.35.38-.77.32-1.28-.06-.5-.19-1.01-.38-1.51l-1.08-2.92-8.82.22-1.04,3.13c-.14.48-.3.94-.47,1.37-.17.43-.34.85-.5,1.26.43-.05.89-.08,1.39-.09.49-.01.93-.03,1.31-.05v2.02h-7.06ZM84.66,25.21h7.56l-2.27-6.08c-.29-.79-.56-1.58-.83-2.36-.26-.78-.5-1.53-.72-2.25h-.04c-.19.6-.41,1.26-.65,1.98-.24.72-.52,1.5-.83,2.34l-2.23,6.37Z"/>
    <path class="cls-1" d="M113.43,35.11l-8.21-19.22c-.43-1.01-.76-1.87-.97-2.59-.22-.72-.35-1.32-.4-1.8-.34.02-.67.04-1.01.04s-.66.01-.97.04v-1.98h9.11l-.04,1.62c-1.08.02-1.78.32-2.11.9-.32.58-.25,1.44.23,2.59.55,1.39,1.1,2.76,1.64,4.1.54,1.34,1.12,2.75,1.75,4.21.5,1.22.98,2.38,1.44,3.46.46,1.08.85,2.04,1.19,2.88h.04c.26-.79.54-1.59.83-2.39.29-.8.61-1.7.97-2.68.58-1.63,1.08-3.05,1.51-4.25.43-1.2.82-2.27,1.15-3.2s.64-1.78.9-2.52c.19-.55.39-1.09.59-1.6.2-.52.4-.94.59-1.28-.43.02-.9.05-1.4.07-.5.02-.96.05-1.37.07v-1.98h7.56v1.58c-.96.05-1.73.34-2.3.86-.58.53-1.1,1.45-1.58,2.77-.17.43-.34.89-.52,1.39-.18.49-.4,1.07-.65,1.73-.25.66-.55,1.46-.88,2.39-.34.94-.75,2.08-1.24,3.44-.49,1.36-1.08,2.96-1.76,4.81-.68,1.85-1.49,4.03-2.43,6.55h-1.66Z"/>
    <path class="cls-1" d="M129.02,34.79v-1.58c.79-.02,1.36-.19,1.71-.49.35-.3.57-.75.67-1.35.1-.6.14-1.36.14-2.27v-14.69c0-.65.01-1.23.04-1.75.02-.52.05-.93.07-1.24-.41.02-.85.05-1.33.07-.48.02-.91.05-1.3.07v-1.98c1.44-.02,2.88-.04,4.32-.05,1.44-.01,2.92-.02,4.43-.02,2.83,0,5.05.51,6.66,1.53,1.61,1.02,2.38,2.61,2.3,4.77-.02.74-.25,1.48-.67,2.21-.42.73-1.05,1.38-1.89,1.94-.84.56-1.88.98-3.13,1.24v.07c2.57.12,4.49.79,5.76,2,1.27,1.21,1.91,2.68,1.91,4.41,0,1.49-.38,2.77-1.13,3.83s-1.78,1.88-3.06,2.43c-1.28.55-2.75.83-4.41.83h-11.09ZM135.24,32.99c.41,0,.85,0,1.33.02.48.01.94.02,1.39.02h.99c1.73-.02,3.08-.49,4.07-1.4.98-.91,1.48-2.18,1.48-3.82,0-1.34-.27-2.39-.81-3.15-.54-.76-1.24-1.29-2.11-1.6-.86-.31-1.79-.47-2.77-.47-.67,0-1.28,0-1.82.02-.54.01-1.09.03-1.64.05v7.38c0,.65,0,1.22-.02,1.73-.01.5-.04.91-.09,1.22ZM135.35,20.89l2.38-.07c1.25-.02,2.24-.29,2.97-.79.73-.5,1.25-1.15,1.57-1.94.31-.79.46-1.62.43-2.48,0-1.2-.25-2.11-.76-2.74s-1.13-1.06-1.87-1.3c-.74-.24-1.48-.36-2.2-.36-.67,0-1.19.1-1.55.29-.36.19-.61.52-.76.99-.14.47-.22,1.16-.22,2.07v6.34Z"/>
    <path class="cls-1" d="M152.95,34.79v-1.58c.79-.05,1.36-.22,1.71-.5.35-.29.57-.72.67-1.3.1-.58.14-1.31.14-2.2v-14.98c0-.53.01-1.04.04-1.53.02-.49.05-.92.07-1.28-.41.02-.85.05-1.33.07-.48.02-.91.05-1.3.07v-1.98h8.86v1.58c-.77.02-1.33.19-1.69.49-.36.3-.59.73-.68,1.3-.1.56-.14,1.3-.14,2.21v14.9c0,.65,0,1.22-.02,1.71-.01.49-.04.89-.09,1.21l6.08-.07c1.49-.02,2.63-.51,3.42-1.46.79-.95,1.19-2.45,1.19-4.52h1.62l-.22,7.85h-18.32Z"/>
    <path class="cls-1" d="M184.02,11.17c-.77.02-1.33.19-1.69.49-.36.3-.59.73-.68,1.3-.1.56-.14,1.3-.14,2.21v14.8c0,.65,0,1.23-.02,1.75-.01.52-.04.93-.09,1.24.41-.05.86-.08,1.35-.09.49-.01.92-.03,1.28-.05v1.98h-8.86v-1.58c.79-.05,1.36-.22,1.71-.5.35-.29.57-.72.67-1.3.1-.58.14-1.31.14-2.2v-14.98c0-.53.01-1.04.04-1.53.02-.49.05-.92.07-1.28-.41.02-.85.05-1.33.07-.48.02-.91.05-1.3.07v-1.98h8.86v1.58Z"/>
    <path class="cls-1" d="M208.43,35.29l-13.39-17.78c-.26-.31-.52-.64-.76-.97-.24-.34-.49-.68-.76-1.04h-.04l.11,14c0,.6,0,1.2-.02,1.8-.01.6-.04,1.15-.09,1.66.41-.05.86-.08,1.35-.09.49-.01.92-.03,1.28-.05v1.98h-7.13v-1.58c.67,0,1.18-.13,1.53-.4.35-.26.59-.61.72-1.04.13-.43.2-.94.2-1.51V12.68c0-.48.01-.9.04-1.26-.38.02-.81.05-1.28.07-.47.02-.88.05-1.24.07v-1.98h4.75l12.67,16.67c.41.53.77,1.02,1.1,1.48.32.46.64.89.95,1.3h.04l.04-14.8c0-.53.01-1.04.04-1.53.02-.49.05-.92.07-1.28-.43.02-.89.05-1.37.07-.48.02-.9.05-1.26.07v-1.98h7.13v1.58c-.77.02-1.33.19-1.67.49-.35.3-.56.73-.65,1.3-.08.56-.13,1.3-.13,2.21l-.04,20.12h-2.2Z"/>
    <path class="cls-1" d="M217.57,34.79v-1.58c.79-.05,1.36-.22,1.71-.5.35-.29.57-.72.67-1.3.1-.58.14-1.31.14-2.2v-14.98c0-.53.01-1.04.04-1.53.02-.49.05-.92.07-1.28-.41.02-.85.05-1.33.07-.48.02-.91.05-1.3.07v-1.98h8.86v1.58c-.77.02-1.33.19-1.69.49-.36.3-.59.73-.68,1.3-.1.56-.14,1.3-.14,2.21v5.76h2.66l3.92-6.3c.36-.55.77-1.14,1.22-1.76s.89-1.12,1.3-1.48c-.36.02-.74.04-1.13.05-.4.01-.75.03-1.06.05v-1.91h8.1v1.58c-.86.05-1.66.19-2.39.43-.73.24-1.45.66-2.14,1.26-.7.6-1.43,1.52-2.2,2.77l-3.49,5.58c.62.38,1.14.82,1.55,1.3.41.48.8.97,1.19,1.48l3.92,5.29c.77,1.03,1.43,1.84,2,2.41.56.58,1.1.97,1.6,1.19.5.22,1.01.32,1.51.32v1.58h-4.79c-.22,0-.53-.18-.94-.54s-.85-.82-1.31-1.37c-.47-.55-.92-1.1-1.35-1.66l-4.07-5.62c-.41-.55-.82-1.09-1.24-1.62-.42-.53-.83-.91-1.24-1.15h-1.62v7.13c0,.65,0,1.23-.02,1.75-.01.52-.04.93-.09,1.24.41-.05.86-.08,1.35-.09.49-.01.92-.03,1.28-.05v1.98h-8.86Z"/>
  </g>
  <g>
    <path class="cls-1" d="M57.23,48.98c0,.62-.1,1.19-.3,1.71-.2.52-.48.98-.85,1.37-.36.39-.79.7-1.28.91-.49.22-1.03.32-1.63.32s-1.12-.11-1.61-.32c-.49-.22-.92-.52-1.28-.91-.36-.39-.64-.85-.84-1.37-.2-.52-.29-1.09-.29-1.71s.1-1.19.29-1.71c.2-.52.48-.98.84-1.37.36-.39.79-.7,1.28-.91.49-.22,1.03-.32,1.61-.32s1.13.11,1.63.32c.49.22.92.52,1.28.91.36.39.65.85.85,1.37.2.52.3,1.09.3,1.71ZM49.76,53.49c-.1,0-.2-.04-.28-.12s-.13-.18-.13-.29c0-.1.03-.19.1-.28l6.78-8.26c.06-.07.11-.12.17-.14s.13-.04.2-.04c.1,0,.2.04.28.11.08.07.13.17.13.29,0,.1-.04.2-.11.29l-6.76,8.22c-.04.06-.09.12-.16.16-.06.04-.14.06-.23.06ZM56.18,48.98c0-.65-.13-1.23-.38-1.73-.26-.51-.61-.91-1.06-1.19-.45-.29-.97-.43-1.57-.43s-1.1.14-1.55.43c-.45.29-.81.68-1.06,1.19-.26.5-.38,1.08-.38,1.74s.13,1.23.38,1.73c.26.51.61.91,1.06,1.19.45.29.97.43,1.55.43s1.11-.14,1.57-.43c.45-.29.81-.69,1.06-1.19.26-.51.38-1.09.38-1.73Z"/>
    <path class="cls-1" d="M58.91,53.18c-.15,0-.27-.05-.37-.14-.09-.1-.14-.21-.14-.35v-7.42c0-.14.05-.25.14-.35.1-.1.22-.14.37-.14s.27.05.36.14c.09.1.13.21.13.35v7.42c0,.14-.05.25-.14.35-.09.1-.21.14-.37.14ZM64.29,44.76c.13,0,.24.05.32.16s.13.21.13.32c0,.12-.05.23-.14.32l-5.3,5-.08-1.12,4.7-4.51c.11-.12.24-.18.37-.18ZM64.33,53.2c-.14,0-.26-.06-.35-.18l-3.2-4.06.74-.76,3.24,4.16c.08.1.12.21.12.32,0,.16-.06.28-.18.37-.12.09-.24.13-.37.13Z"/>
    <path class="cls-1" d="M73.64,48.98c0,.62-.1,1.19-.3,1.71-.2.52-.48.98-.85,1.37-.36.39-.79.7-1.28.91-.49.22-1.03.32-1.63.32s-1.12-.11-1.61-.32c-.49-.22-.92-.52-1.28-.91-.36-.39-.64-.85-.84-1.37-.2-.52-.29-1.09-.29-1.71s.1-1.19.29-1.71c.2-.52.48-.98.84-1.37.36-.39.79-.7,1.28-.91.49-.22,1.03-.32,1.61-.32s1.13.11,1.63.32c.49.22.92.52,1.28.91.36.39.65.85.85,1.37.2.52.3,1.09.3,1.71ZM72.6,48.98c0-.65-.13-1.23-.38-1.73-.26-.51-.61-.91-1.06-1.19s-.97-.43-1.57-.43-1.1.14-1.55.43c-.45.29-.81.68-1.06,1.19s-.38,1.08-.38,1.74.13,1.23.38,1.73c.26.51.61.91,1.06,1.19.45.29.97.43,1.55.43s1.11-.14,1.57-.43.81-.69,1.06-1.19c.26-.51.38-1.09.38-1.73Z"/>
    <path class="cls-1" d="M79.86,52.23c.14,0,.25.05.35.14.1.09.14.21.14.34s-.05.25-.14.34-.21.13-.35.13h-4.15c-.14,0-.26-.05-.35-.14s-.14-.21-.14-.35v-7.42c0-.14.05-.25.14-.35.1-.1.22-.14.37-.14.14,0,.25.05.35.14.1.1.14.21.14.35v7.18l-.24-.22h3.88Z"/>
    <path class="cls-1" d="M89.18,48.98c0,.62-.1,1.19-.3,1.71-.2.52-.48.98-.85,1.37-.36.39-.79.7-1.28.91-.49.22-1.03.32-1.63.32s-1.12-.11-1.61-.32c-.49-.22-.92-.52-1.28-.91-.36-.39-.64-.85-.84-1.37-.2-.52-.29-1.09-.29-1.71s.1-1.19.29-1.71c.2-.52.48-.98.84-1.37.36-.39.79-.7,1.28-.91.49-.22,1.03-.32,1.61-.32s1.13.11,1.63.32c.49.22.92.52,1.28.91.36.39.65.85.85,1.37.2.52.3,1.09.3,1.71ZM88.14,48.98c0-.65-.13-1.23-.38-1.73-.26-.51-.61-.91-1.06-1.19s-.97-.43-1.57-.43-1.1.14-1.55.43c-.45.29-.81.68-1.06,1.19s-.38,1.08-.38,1.74.13,1.23.38,1.73c.26.51.61.91,1.06,1.19.45.29.97.43,1.55.43s1.11-.14,1.57-.43.81-.69,1.06-1.19c.26-.51.38-1.09.38-1.73Z"/>
    <path class="cls-1" d="M94.59,53.3c-.62,0-1.19-.11-1.72-.33-.53-.22-.99-.53-1.38-.92-.39-.39-.7-.85-.92-1.37-.22-.52-.33-1.09-.33-1.7s.11-1.17.33-1.7c.22-.52.53-.98.92-1.37.39-.39.85-.7,1.38-.92s1.1-.33,1.72-.33c.41,0,.8.05,1.18.14.38.09.72.23,1.03.43.08.04.14.1.18.17.04.08.06.15.06.22,0,.14-.05.25-.14.35-.09.1-.2.14-.32.14-.05,0-.1,0-.14-.02-.05-.01-.09-.03-.13-.05-.25-.13-.52-.23-.8-.31-.29-.08-.59-.11-.91-.11-.63,0-1.2.15-1.7.44-.5.3-.89.7-1.18,1.21-.29.51-.43,1.08-.43,1.71s.14,1.2.43,1.71c.29.51.68.91,1.18,1.21.5.3,1.07.44,1.7.44.32,0,.65-.04.98-.13.34-.09.62-.2.86-.34l-.07.29v-2.52l.18.17h-1.82c-.14,0-.25-.05-.35-.14-.1-.09-.14-.21-.14-.34,0-.14.05-.26.14-.35.1-.09.21-.14.35-.14h2.18c.14,0,.25.05.34.14.09.1.14.21.14.35v2.77c0,.1-.02.18-.07.26-.04.08-.1.14-.17.19-.36.23-.76.42-1.19.55-.44.14-.89.2-1.36.2Z"/>
    <path class="cls-1" d="M100.1,52.68c0,.14-.05.25-.15.35-.1.1-.22.14-.35.14-.15,0-.27-.05-.37-.14s-.14-.21-.14-.35v-7.42c0-.14.05-.25.14-.35.1-.1.22-.14.37-.14.14,0,.25.05.35.14.1.1.14.21.14.35v7.42Z"/>
    <path class="cls-1" d="M104.66,53.3c-.59,0-1.11-.09-1.56-.26-.45-.18-.88-.46-1.3-.84-.06-.05-.1-.11-.14-.18-.04-.07-.05-.15-.05-.23,0-.13.05-.24.14-.34s.21-.15.34-.15c.11,0,.21.04.3.13.31.3.65.54,1.01.7.36.16.77.24,1.23.24.35,0,.67-.06.95-.17s.5-.27.67-.47c.17-.2.25-.43.25-.7,0-.32-.09-.58-.27-.79s-.43-.38-.74-.52c-.32-.14-.68-.26-1.1-.36-.37-.09-.71-.19-1.01-.32-.31-.12-.58-.28-.8-.47-.23-.19-.4-.42-.53-.68-.12-.27-.19-.59-.19-.95,0-.46.12-.85.36-1.19.24-.34.57-.61,1-.8.43-.19.92-.29,1.47-.29.49,0,.95.08,1.39.24.44.16.79.38,1.05.66.16.15.24.3.24.46,0,.11-.05.22-.15.32-.1.1-.21.15-.34.15-.09,0-.17-.03-.24-.08-.14-.15-.31-.29-.52-.41s-.44-.22-.68-.29c-.24-.07-.49-.11-.74-.11-.37,0-.69.05-.97.16-.28.11-.5.26-.65.45-.16.19-.23.42-.23.7,0,.3.09.55.26.75.18.2.41.36.71.48.3.12.62.23.98.33.39.1.75.21,1.09.33.33.12.62.28.86.46s.43.42.56.7c.13.28.2.63.2,1.05,0,.44-.12.83-.37,1.18-.25.34-.59.62-1.01.82-.43.2-.91.3-1.45.3Z"/>
    <path class="cls-1" d="M109.59,53.18c-.15,0-.27-.05-.37-.14s-.14-.21-.14-.35v-7.42c0-.14.05-.25.14-.35.1-.1.22-.14.37-.14s.27.05.36.14c.09.1.13.21.13.35v7.42c0,.14-.05.25-.14.35s-.21.14-.37.14ZM114.98,44.76c.13,0,.24.05.32.16s.13.21.13.32c0,.12-.05.23-.14.32l-5.3,5-.08-1.12,4.7-4.51c.11-.12.24-.18.37-.18ZM115.02,53.2c-.14,0-.26-.06-.35-.18l-3.2-4.06.74-.76,3.24,4.16c.08.1.12.21.12.32,0,.16-.06.28-.18.37s-.24.13-.37.13Z"/>
    <path class="cls-1" d="M123.89,44.78c.59,0,1.11.11,1.55.33.44.22.81.53,1.11.92.29.39.52.84.67,1.35.15.51.22,1.04.22,1.6,0,.78-.13,1.48-.4,2.12-.26.64-.66,1.14-1.18,1.52-.52.38-1.18.56-1.97.56h-2.99c-.14,0-.25-.05-.35-.14-.1-.1-.14-.21-.14-.35v-7.42c0-.14.05-.25.14-.35.1-.1.21-.14.35-.14h2.99ZM123.77,52.24c.62,0,1.13-.15,1.51-.44s.67-.69.85-1.19c.18-.5.27-1.04.27-1.63,0-.43-.05-.84-.15-1.24-.1-.39-.26-.74-.47-1.04s-.48-.54-.82-.72c-.33-.18-.73-.26-1.19-.26h-2.45l.1-.11v6.76l-.07-.12h2.42Z"/>
    <path class="cls-1" d="M131.87,46.02l-2.82,6.86c-.03.1-.09.17-.17.23-.08.06-.16.09-.25.09-.15,0-.26-.04-.34-.13s-.11-.18-.12-.29c0-.06,0-.12.02-.18l3.11-7.55c.05-.11.11-.2.2-.25.08-.06.18-.08.28-.07.1,0,.2.03.28.08.08.06.14.14.17.24l3.1,7.48c.02.06.04.13.04.19,0,.14-.05.26-.14.35-.1.09-.2.13-.32.13-.1,0-.2-.03-.28-.09-.08-.06-.14-.14-.18-.25l-2.86-6.86h.28ZM129.65,50.93l.41-.94h3.56l.18.94h-4.15Z"/>
    <path class="cls-1" d="M142.91,44.78c.14,0,.24.04.32.13.08.09.12.2.12.32v7.44c0,.15-.05.27-.14.37-.1.09-.22.14-.36.14-.06,0-.13-.01-.2-.04-.07-.03-.13-.07-.17-.11l-5.14-6.79.24-.13v6.64c0,.13-.04.23-.13.32s-.19.13-.33.13-.24-.04-.32-.13-.12-.19-.12-.32v-7.46c0-.15.05-.27.14-.36.1-.09.21-.13.34-.13.07,0,.15.01.22.04s.13.07.17.14l5.05,6.68-.14.19v-6.6c0-.13.04-.24.13-.32.08-.09.19-.13.32-.13Z"/>
    <path class="cls-1" d="M147.9,53.3c-.59,0-1.11-.09-1.56-.26-.45-.18-.88-.46-1.3-.84-.06-.05-.1-.11-.14-.18-.04-.07-.05-.15-.05-.23,0-.13.05-.24.14-.34s.21-.15.34-.15c.11,0,.21.04.3.13.31.3.65.54,1.01.7.36.16.77.24,1.23.24.35,0,.67-.06.95-.17s.5-.27.67-.47c.17-.2.25-.43.25-.7,0-.32-.09-.58-.27-.79s-.43-.38-.74-.52c-.32-.14-.68-.26-1.1-.36-.37-.09-.71-.19-1.01-.32-.31-.12-.58-.28-.8-.47-.23-.19-.4-.42-.53-.68-.12-.27-.19-.59-.19-.95,0-.46.12-.85.36-1.19.24-.34.57-.61,1-.8.43-.19.92-.29,1.47-.29.49,0,.95.08,1.39.24.44.16.79.38,1.05.66.16.15.24.3.24.46,0,.11-.05.22-.15.32-.1.1-.21.15-.34.15-.09,0-.17-.03-.24-.08-.14-.15-.31-.29-.52-.41s-.44-.22-.68-.29c-.24-.07-.49-.11-.74-.11-.37,0-.69.05-.97.16-.28.11-.5.26-.65.45-.16.19-.23.42-.23.7,0,.3.09.55.26.75.18.2.41.36.71.48.3.12.62.23.98.33.39.1.75.21,1.09.33.33.12.62.28.86.46s.43.42.56.7c.13.28.2.63.2,1.05,0,.44-.12.83-.37,1.18-.25.34-.59.62-1.01.82-.43.2-.91.3-1.45.3Z"/>
    <path class="cls-1" d="M152.83,53.18c-.15,0-.27-.05-.37-.14s-.14-.21-.14-.35v-7.42c0-.14.05-.25.14-.35.1-.1.22-.14.37-.14s.27.05.36.14c.09.1.13.21.13.35v7.42c0,.14-.05.25-.14.35s-.21.14-.37.14ZM158.22,44.76c.13,0,.24.05.32.16s.13.21.13.32c0,.12-.05.23-.14.32l-5.3,5-.08-1.12,4.7-4.51c.11-.12.24-.18.37-.18ZM158.25,53.2c-.14,0-.26-.06-.35-.18l-3.2-4.06.74-.76,3.24,4.16c.08.1.12.21.12.32,0,.16-.06.28-.18.37s-.24.13-.37.13Z"/>
    <path class="cls-1" d="M164.16,44.78c.14,0,.25.05.35.14.1.1.14.21.14.35v7.42c0,.14-.05.25-.15.35-.1.1-.22.14-.35.14-.15,0-.27-.05-.37-.14s-.14-.21-.14-.35v-7.42c0-.14.05-.25.14-.35.1-.1.22-.14.37-.14ZM164.11,48.44h5.58v.94h-5.62l.04-.94ZM169.68,44.78c.15,0,.27.05.37.14.09.1.14.21.14.35v7.42c0,.14-.05.25-.14.35-.1.1-.22.14-.37.14-.14,0-.25-.05-.35-.14-.1-.1-.14-.21-.14-.35v-7.42c0-.14.05-.25.15-.35.1-.1.22-.14.35-.14Z"/>
    <path class="cls-1" d="M178.36,44.76c.14,0,.26.04.36.13.1.09.14.2.14.32,0,.07-.02.15-.05.23l-3.13,7.42c-.05.1-.11.18-.2.23-.08.05-.17.08-.27.08-.09,0-.17-.04-.26-.09-.08-.05-.15-.13-.19-.22l-3.11-7.4s-.03-.07-.04-.11c0-.04-.01-.08-.01-.12,0-.14.05-.26.16-.35.11-.09.21-.13.32-.13.22,0,.37.11.47.34l2.87,6.84h-.28l2.76-6.85c.1-.21.24-.31.44-.31Z"/>
    <path class="cls-1" d="M181.3,52.68c0,.14-.05.25-.15.35-.1.1-.22.14-.35.14-.15,0-.27-.05-.37-.14s-.14-.21-.14-.35v-7.42c0-.14.05-.25.14-.35.1-.1.22-.14.37-.14.14,0,.25.05.35.14.1.1.14.21.14.35v7.42Z"/>
    <path class="cls-1" d="M186.88,44.78c.59,0,1.11.11,1.55.33.44.22.81.53,1.11.92.29.39.52.84.67,1.35.15.51.22,1.04.22,1.6,0,.78-.13,1.48-.4,2.12-.26.64-.66,1.14-1.18,1.52-.52.38-1.18.56-1.97.56h-2.99c-.14,0-.25-.05-.35-.14-.1-.1-.14-.21-.14-.35v-7.42c0-.14.05-.25.14-.35.1-.1.21-.14.35-.14h2.99ZM186.76,52.24c.62,0,1.13-.15,1.51-.44s.67-.69.85-1.19c.18-.5.27-1.04.27-1.63,0-.43-.05-.84-.15-1.24-.1-.39-.26-.74-.47-1.04s-.48-.54-.82-.72c-.33-.18-.73-.26-1.19-.26h-2.45l.1-.11v6.76l-.07-.12h2.42Z"/>
    <path class="cls-1" d="M197.97,44.76c.14,0,.26.04.36.13.1.09.14.2.14.32,0,.07-.02.15-.05.23l-3.13,7.42c-.05.1-.11.18-.2.23-.08.05-.17.08-.27.08-.09,0-.17-.04-.26-.09-.08-.05-.15-.13-.19-.22l-3.11-7.4s-.03-.07-.04-.11c0-.04-.01-.08-.01-.12,0-.14.05-.26.16-.35.11-.09.21-.13.32-.13.22,0,.37.11.47.34l2.87,6.84h-.28l2.76-6.85c.1-.21.24-.31.44-.31Z"/>
    <path class="cls-1" d="M200.91,52.68c0,.14-.05.25-.15.35-.1.1-.22.14-.35.14-.15,0-.27-.05-.37-.14s-.14-.21-.14-.35v-7.42c0-.14.05-.25.14-.35.1-.1.22-.14.37-.14.14,0,.25.05.35.14.1.1.14.21.14.35v7.42Z"/>
    <path class="cls-1" d="M209.24,44.78c.14,0,.24.04.32.13.08.09.12.2.12.32v7.44c0,.15-.05.27-.14.37-.1.09-.22.14-.36.14-.06,0-.13-.01-.2-.04-.07-.03-.13-.07-.17-.11l-5.14-6.79.24-.13v6.64c0,.13-.04.23-.13.32s-.19.13-.33.13-.24-.04-.32-.13-.12-.19-.12-.32v-7.46c0-.15.05-.27.14-.36.1-.09.21-.13.34-.13.07,0,.15.01.22.04s.13.07.17.14l5.05,6.68-.14.19v-6.6c0-.13.04-.24.13-.32.08-.09.19-.13.32-.13Z"/>
  </g>
</svg>