<?xml version="1.0" encoding="UTF-8"?>
<svg id="Layer_1" data-name="Layer 1" xmlns="http://www.w3.org/2000/svg" viewBox="0 0 58.83 77.28">
  <path d="M42.03,48.82h-11.21c0-6.29,5.06-11.47,11.21-11.47s11.21,5.18,11.21,11.47h-11.21Z" fill="#ecd084" stroke="#fcefbc" stroke-miterlimit="10" stroke-width=".25"/>
  <path d="M46.66,71.83c-.73.52-9.9,6.85-21.57,4.98-3.07-.49-5.57-1.43-7.2-2.17-4.57-2.08-7.85-5.07-10.24-7.73-3.25-3.61-5.03-7.31-6.01-9.96-.03-.08.02-.17.1-.2.86-.25,1.72-.51,2.58-.76.01,0,.02,0,.02,0h0s1.68-.38,2.64-.42c.02,0,.03,0,.04,0,.68.02,1.4.06,2.16.14.51.05,1.01.12,1.48.19-.02,0-.03,0-.03,0,0,0,.03,0,.08,0,.75.18,1.52.4,2.3.66.11.04.21.07.32.11,0,0,0,0,.01,0,0,0,0,0,.01,0,.56.26,1.13.54,1.73.86.49.26.95.52,1.39.78,0,0,0,0,0,0,0,0,0,0,0,0,.92.59,1.84,1.2,2.78,1.84,1.69,1.15,3.31,2.31,4.84,3.46,0,0,0,0,0,0s0,0,0,0c.56.39,1.18.79,1.85,1.18.58.34,1.14.64,1.68.91,0,0,0,0,.01,0,0,0,0,0,.01,0l2.9,1.11s0,0,0,0c.84.26,1.68.52,2.53.78,0,0,0,0,.01,0,.01,0,.02,0,.02,0,.01,0,1.03.12,2.47.28.11,0,.23-.02.34-.02.15-.04.3-.08.44-.13.06-.05.12-.1.17-.14,4.14.56,10,.63,14.85-2.77,3.23-2.26,4.88-5.25,5-5.16.18.14-2.78,7.16-9.76,12.14Z" fill="#8eb2d1" stroke="#8eb2d1" stroke-miterlimit="10" stroke-width=".25"/>
  <path d="M.27,52.94c.26.2.7-.12,1.46-.4.63-.24,1.2-.32,2.35-.49,1.48-.21,2.64-.15,3.5-.09.57.04,1.95.14,3.77.58,4.4,1.05,7.78,3.17,8.32,3.51,1.78,1.13,3.24,2.41,6.14,4.97,1.71,1.5,1.72,1.62,2.53,2.29,0,0,0,0,0,0,2,1.33,4.98,3.42,8.22,4.31,4.84,1.33,9.2-.22,10.77-.78,2.53-.9,4.42-2.17,4.4-2.21-.01-.03-1.12.66-2.79.88-.72.1-1.28.07-1.92.04,0,0-1.65-.08-3.21-.47-4.16-1.03-8.68-4.52-8.68-4.52-5.8-4.48-5.31-5.64-9.19-8.23-4.68-3.12-8.98-4.14-10.2-4.41-8.42-1.82-14.73.94-15.19,2.22-.04.12-.2.69-.31,1.39-.13.82-.18,1.24.03,1.41Z" fill="#8eb2d1" stroke="#8eb2d1" stroke-miterlimit="10" stroke-width=".25"/>
  <path d="M27.29,51c2.22,2.08,4.45,4.16,6.67,6.24,1.97,1.65,3.66,2.88,4.91,3.74,1.05.72,1.83,1.21,2.84,1.7,1.08.52,2.08.87,2.93,1.11.93.16,1.85.33,2.78.49.81.06,1.63.12,2.44.19h1.88c.64-.39,1.37-.9,2.11-1.57,1.23-1.12,2.05-2.29,2.58-3.19.57-1.21,1.17-2.74,1.61-4.56.38-1.54.57-2.95.65-4.14h-31.4ZM46.47,59.14c-2.06-.01-4.12-.28-6.17-.04-.94.11-.92-1.35,0-1.46,2.05-.25,4.11.02,6.17.04.94,0,.94,1.47,0,1.46ZM53.62,54.46c-2.6.34-5.21-.16-7.82.04-.94.07-.93-1.39,0-1.46,2.61-.2,5.21.31,7.82-.04.93-.12.92,1.34,0,1.46Z" fill="#8eb2d1" stroke="#8eb2d1" stroke-miterlimit="10" stroke-width=".25"/>
  <path d="M.81,49.55c.88-2.03,2.06-3.28,2.81-3.95,1.79-1.6,3.84-2.25,5.47-2.78,1.11-.36,2.21-.61,2.33-.64,1.52-.34,2.38-.39,3.81-.75.85-.21,1.69-.47,1.69-.47.04-.01.34-.1.64-.2,1.11-.36,1.68-.54,2.39-.9.75-.37,2.96-1.51,4.45-3.78.36-.55.83-1.62,1.77-3.75.68-1.55.8-1.94,1.27-2.49,1.26-1.48,3.35-2.12,3.67-1.7.13.18.12.75-2.07,3.08l-1.27,2.89-1.19,2.19c-.3.51-.6,1.02-.9,1.53-.65.81-1.28,1.42-1.78,1.85,0,0-1.63,1.41-3.54,2.22-.02,0-.04.02-.04.02-.14.06-.5.21-.96.37-.89.32-1.56.48-2.12.62-1.73.43-2.6.64-3.17.79-.65.17-1.55.4-2.71.75-1.18.35-1.86.56-2.8.94-1.54.61-2.35,1.12-2.56,1.25-.5.32-.75.48-.91.61-.31.27-.48.48-.86.63-.19.08-.25.06-.52.14-.12.03-.42.12-1.05.44-.78.39-1.5.86-1.83,1.08Z" fill="#a0c6a5" stroke="#a0c6a5" stroke-miterlimit="10" stroke-width=".25"/>
  <path d="M29.16,31.13c.08.11.2.29.34.52.16.28.24.49.26.53.34.79,2.24,1.62,2.24,1.62.85.37,1.65.72,2.83.9,2.58.39,4.6-.4,5.08-.6,1.94-.81,3.73-2.32,3.49-2.97-.06-.16-.39-.35-1.06-.72-.35-.2-.57-.28-.93-.52-.46-.3-.69-.46-.7-.63-.02-.33.66-.55,1.39-.93,1.17-.61,1.88-1.34,2.47-1.95.63-.64,1.75-1.8,1.44-2.47-.18-.37-.74-.49-1.53-.65-1.08-.22-1.6-.05-1.74-.32-.13-.27.24-.63.78-1.43,0,0,.14-.2,1.05-1.91,1.21-2.26,1.16-5,1.14-6.11-.03-1.67-.04-2.57-.43-2.69-.9-.28-3.3,3.72-4.38,6.51-.14.37-.39,1.05-.9,1.9-.14.24-.63,1.05-2.17,2.68-.69.74-1.55,1.65-2.84,2.72-1.3,1.09-2.36,1.79-3.07,2.25-1.15.75-2.18,1.33-3,1.76" fill="#a0c6a5" stroke="#a0c6a5" stroke-miterlimit="10" stroke-width=".25"/>
  <path d="M27.48,27.43c.6.59,4.03-1.95,5.77-3.27,4.36-3.32,6.97-6.15,7.64-6.9,2.82-3.12,5.01-5.53,4.38-6.51-.63-.98-3.93-.27-5.87,1.02-1.07.71-1.76,1.61-1.76,1.61-.61.8-.54,1.08-1.2,2.07-.35.52-1.52,2.28-2.32,2.04-.43-.13-.57-.79-.59-.86-.17-.86.49-1.47,1.11-2.59.62-1.13.83-2.1.99-2.84.22-1.02.54-2.64-.25-4.08-.07-.14-.67-1.2-1.24-1.11-.33.05-.37.44-.99,1.05-.2.2-.9.88-1.27.71-.27-.13-.25-.67-.25-.86,0-1.69-1.34-3.07-2.04-3.83-.79-.86-1.55-1.29-2.53-1.85-1.28-.73-2.34-1.34-2.78-.99-.45.37.3,1.37.72,3.75.44,2.54-.09,3.3.67,5.36.34.91.46.79.86,1.88.15.41.55,1.53.87,4.03.21,1.64.26,3.05.36,5.85.03.92.04,1.44.02,2.07-.03.92-.05,1.77-.21,2.9-.15,1.08-.25,1.24-.12,1.36Z" fill="#a0c6a5" stroke="#a0c6a5" stroke-miterlimit="10" stroke-width=".25"/>
  <path d="M24.65.18c-.56-.16-1.24.71-2.26,2.01-.27.34-1.92,2.48-2.42,4.66-.29,1.26-.32,1.67-.32,1.67-.06.78.02,1.22-.2,1.33-.23.11-.5-.3-1.16-.65-.14-.08-1.32-.7-2.11-.34-.85.4-.93,1.82-.94,2.01-.13,2.27,1.82,4.83,3.03,5.93.1.1.72.65,1,1.54.06.19.32.99-.02,1.27-.1.09-.32.17-.87-.04-.94-.34-1.37-.95-2.01-1.57-.22-.21-1.17-1.1-2.54-1.69-.55-.24-1.41-.6-2.51-.56-.49.02-.97.11-1.41.2-.65.13-1.16.28-1.48.37-.75.22-.54.21-1.05.35-.54.14-.98.21-1.06.48,0,0-.02.06-.01.13.05.47,2.53,4.83,8.1,5.9.9.17.87.07,1.9.28,2.41.5,4.41,1.47,5.35,1.93.19.09.64.32,1.41.69.39.19.78.41,1.18.58.41.17.62.22.89.44.25.21.32.38.43.36.2-.04.23-.65.26-1.11.06-.83.12-.92.19-1.26.09-.48.12-.85.13-1.12.06-1.1.2-1.53.26-2.97.03-.82.02-1.4,0-2.19-.05-1.9-.2-3.31-.24-3.6-.1-.93-.14-.92-.26-2.05-.13-1.2-.15-1.47-.23-2.14-.09-.77-.13-.9-.15-1.55-.08-2.18.14-3.09.02-5.43-.11-2.04-.2-3.68-.89-3.88Z" fill="#a0c6a5" stroke="#a0c6a5" stroke-miterlimit="10" stroke-width=".25"/>
  <path d="M16.27,24.08c1.25.49,6.07,2.2,7.94,4.23.23.25.59.69.74,1.33.28,1.17-.33,2.21-.96,3.24-.76,1.26-1.66,2.76-3.55,3.67-.39.19-1.77.83-3.42.65-.68-.08-1.21-.35-2.27-.89-.08-.04-.23-.12-.27-.27-.06-.23.22-.41.78-1.06.44-.51.24-.37.7-.92.18-.21.36-.41.3-.5-.05-.08-.24-.05-.28-.04-.71.11-2.71-.5-3.31-.7-.12-.04-1.53-.53-2.89-1.66-.5-.42-.99-.91-.99-1.52,0-.29.11-.52.12-.56.04-.08.19-.36.95-.77.4-.22.7-.38,1.16-.54.32-.11.61-.17.62-.31,0-.05-.03-.09-.26-.3-.19-.17-.29-.26-.38-.32-.62-.43-1.68-1.86-1.68-1.86-1-1.35-1.61-2.17-2.18-3.47-.56-1.28-.73-2.23-.8-2.69-.15-1.01-.22-1.51-.04-1.67.82-.69,3.84,4.53,9.96,6.92Z" fill="#a0c6a5" stroke="#a0c6a5" stroke-miterlimit="10" stroke-width=".25"/>
</svg>