<?xml version="1.0" encoding="UTF-8"?>
<svg id="Layer_1" data-name="Layer 1" xmlns="http://www.w3.org/2000/svg" viewBox="0 0 190.29 173.88">
  <defs>
    <style>
      .cls-1 {
        fill: #585a4c;
      }

      .cls-2 {
        fill: #8fb3d2;
        stroke: #8fb3d2;
      }

      .cls-2, .cls-3, .cls-4 {
        stroke-miterlimit: 10;
        stroke-width: .25px;
      }

      .cls-3 {
        fill: #edd185;
        stroke: #fcf0bc;
      }

      .cls-4 {
        fill: #a1c6a5;
        stroke: #a1c6a5;
      }
    </style>
  </defs>
  <path class="cls-3" d="M114.13,70.68h-16.25c0-9.11,7.33-16.61,16.25-16.61s16.25,7.5,16.25,16.61h-16.25Z"/>
  <path class="cls-2" d="M120.85,104c-1.06.76-14.34,9.93-31.25,7.21-4.45-.71-8.06-2.07-10.43-3.15-6.62-3.01-11.37-7.34-14.84-11.2-4.71-5.23-7.29-10.6-8.71-14.43-.04-.12.03-.25.15-.29,1.25-.37,2.49-.73,3.74-1.1.02,0,.03,0,.03,0h.01s2.44-.55,3.82-.61c.02,0,.04,0,.05,0,.98.03,2.02.09,3.12.2.74.08,1.46.17,2.14.28-.03,0-.04,0-.04,0,0,0,.04,0,.12,0,1.08.26,2.2.57,3.34.96.15.05.31.11.46.16,0,0,.01,0,.02,0,0,0,.01,0,.02,0,.81.37,1.64.78,2.5,1.24.7.37,1.37.75,2.01,1.13,0,0,0,0,.01,0,0,0,0,0,.01,0,1.33.86,2.67,1.74,4.02,2.67,2.45,1.67,4.79,3.35,7.02,5.02,0,0,0,0,0,0s0,0,0,0c.81.56,1.71,1.14,2.68,1.71.84.49,1.66.93,2.44,1.32,0,0,.01,0,.02,0,0,0,.01,0,.02,0l4.2,1.6s0,0,.01,0c1.22.37,2.44.75,3.66,1.12,0,0,.01,0,.02,0,.02,0,.03,0,.03,0,.02,0,1.49.17,3.58.41.17-.01.33-.02.5-.03.21-.06.43-.12.64-.18.08-.07.17-.14.25-.21,6,.82,14.49.91,21.52-4.01,4.68-3.27,7.07-7.61,7.25-7.47.27.2-4.03,10.37-14.14,17.58Z"/>
  <path class="cls-2" d="M53.63,76.64c.37.29,1.02-.17,2.11-.58.91-.34,1.74-.46,3.41-.7,2.14-.31,3.82-.21,5.08-.13.82.05,2.83.21,5.46.84,6.37,1.53,11.28,4.59,12.06,5.08,2.58,1.64,4.69,3.49,8.9,7.19,2.48,2.18,2.5,2.34,3.67,3.31,0,0,0,0,0,0,2.89,1.93,7.21,4.96,11.9,6.25,7.01,1.93,13.33-.32,15.6-1.13,3.67-1.31,6.4-3.15,6.37-3.2-.02-.04-1.62.96-4.05,1.28-1.04.14-1.85.1-2.78.05,0,0-2.39-.12-4.65-.68-6.03-1.5-12.57-6.55-12.57-6.55-8.41-6.49-7.69-8.17-13.31-11.93-6.78-4.53-13.01-6-14.78-6.38-12.2-2.64-21.34,1.37-22.01,3.22-.06.17-.3,1-.45,2.02-.18,1.19-.27,1.8.04,2.04Z"/>
  <path class="cls-2" d="M92.78,73.82c3.22,3.01,6.44,6.02,9.66,9.04,2.86,2.39,5.31,4.17,7.11,5.41,1.52,1.04,2.66,1.76,4.12,2.46,1.56.75,3.01,1.26,4.25,1.61,1.34.24,2.68.48,4.03.72,1.18.09,2.36.18,3.53.27h2.72c.93-.56,1.98-1.31,3.05-2.28,1.79-1.63,2.97-3.31,3.74-4.62.83-1.76,1.69-3.98,2.34-6.61.55-2.24.82-4.27.94-5.99h-45.5ZM120.57,85.62c-2.98-.02-5.96-.41-8.94-.05-1.36.16-1.34-1.96,0-2.12,2.97-.36,5.96.04,8.94.05,1.37,0,1.37,2.13,0,2.12ZM130.92,78.84c-3.77.5-7.55-.23-11.32.05-1.36.1-1.35-2.02,0-2.12,3.78-.29,7.55.44,11.32-.05,1.35-.18,1.33,1.95,0,2.12Z"/>
  <path class="cls-4" d="M54.42,71.74c1.27-2.95,2.98-4.75,4.07-5.72,2.6-2.32,5.56-3.26,7.92-4.03,1.6-.52,3.2-.89,3.37-.92,2.21-.5,3.44-.57,5.51-1.09,1.22-.31,2.45-.68,2.45-.68.05-.02.49-.15.93-.29,1.61-.52,2.43-.78,3.46-1.3,1.09-.54,4.28-2.19,6.44-5.47.53-.8,1.21-2.34,2.56-5.43.99-2.25,1.15-2.81,1.84-3.61,1.83-2.14,4.86-3.07,5.32-2.46.19.26.17,1.09-3,4.46l-1.83,4.19-1.72,3.17c-.43.74-.86,1.48-1.3,2.21-.94,1.18-1.85,2.06-2.57,2.68,0,0-2.36,2.04-5.13,3.22-.03.01-.06.03-.06.03-.21.09-.72.3-1.39.54-1.28.46-2.26.7-3.07.9-2.51.62-3.76.93-4.59,1.15-.94.24-2.25.58-3.92,1.09-1.7.51-2.69.81-4.06,1.36-2.23.89-3.41,1.62-3.71,1.81-.73.46-1.09.69-1.32.88-.46.38-.7.69-1.25.92-.28.11-.36.09-.75.2-.17.05-.61.18-1.52.64-1.13.57-2.17,1.24-2.65,1.56Z"/>
  <path class="cls-4" d="M95.49,45.04c.12.16.3.41.49.75.23.4.35.71.38.77.5,1.15,3.24,2.35,3.24,2.35,1.23.54,2.4,1.05,4.1,1.31,3.74.57,6.67-.58,7.36-.87,2.81-1.17,5.4-3.36,5.06-4.31-.09-.24-.57-.5-1.54-1.04-.51-.28-.82-.41-1.35-.76-.67-.44-1-.66-1.01-.92-.03-.48.96-.79,2.01-1.34,1.69-.88,2.72-1.94,3.58-2.82.91-.93,2.54-2.61,2.08-3.58-.25-.54-1.07-.7-2.21-.94-1.57-.32-2.32-.07-2.53-.47-.2-.39.35-.92,1.13-2.07,0,0,.2-.3,1.52-2.77,1.75-3.27,1.68-7.25,1.66-8.86-.04-2.41-.06-3.72-.63-3.89-1.3-.4-4.78,5.39-6.35,9.42-.21.54-.57,1.52-1.3,2.75-.2.35-.91,1.52-3.14,3.88-1,1.07-2.25,2.38-4.11,3.94-1.88,1.57-3.42,2.59-4.45,3.27-1.67,1.09-3.16,1.93-4.35,2.56"/>
  <path class="cls-4" d="M93.06,39.69c.87.86,5.85-2.82,8.37-4.74,6.32-4.81,10.09-8.92,11.06-9.99,4.09-4.52,7.25-8.01,6.35-9.42-.91-1.42-5.7-.39-8.51,1.48-1.55,1.03-2.55,2.33-2.55,2.33-.89,1.15-.79,1.56-1.74,3-.5.75-2.2,3.3-3.36,2.95-.62-.19-.83-1.14-.85-1.25-.25-1.25.71-2.13,1.61-3.76.9-1.63,1.2-3.05,1.43-4.12.32-1.48.79-3.82-.36-5.91-.11-.2-.97-1.74-1.79-1.61-.47.07-.53.64-1.43,1.52-.29.28-1.31,1.28-1.83,1.03-.39-.19-.36-.98-.36-1.25,0-2.44-1.95-4.45-2.95-5.55-1.14-1.25-2.24-1.87-3.67-2.68-1.85-1.05-3.4-1.94-4.03-1.43-.66.54.44,1.99,1.04,5.43.64,3.68-.13,4.78.97,7.76.49,1.32.66,1.15,1.25,2.73.22.59.8,2.22,1.27,5.85.31,2.38.38,4.41.52,8.47.05,1.33.06,2.08.03,3-.04,1.33-.08,2.57-.3,4.21-.21,1.56-.36,1.79-.18,1.97Z"/>
  <path class="cls-4" d="M88.95.2c-.81-.23-1.8,1.03-3.27,2.91-.39.5-2.78,3.6-3.51,6.76-.42,1.83-.47,2.42-.47,2.42-.09,1.13.03,1.77-.29,1.92-.34.16-.72-.43-1.69-.94-.21-.11-1.92-1.02-3.06-.49-1.23.58-1.35,2.63-1.36,2.92-.19,3.29,2.64,7,4.38,8.59.15.14,1.04.94,1.45,2.24.09.28.46,1.44-.03,1.84-.15.12-.46.24-1.27-.05-1.37-.5-1.98-1.38-2.91-2.27-.32-.31-1.69-1.6-3.68-2.45-.8-.34-2.04-.86-3.63-.81-.7.03-1.41.16-2.04.28-.95.18-1.68.4-2.15.54-1.09.32-.78.31-1.52.51-.78.21-1.42.3-1.54.7,0,0-.03.09-.01.19.07.68,3.67,6.99,11.73,8.55,1.31.25,1.26.1,2.75.4,3.5.72,6.39,2.13,7.75,2.8.28.14.93.46,2.04,1,.57.28,1.13.6,1.71.84.59.24.89.31,1.28.64.36.31.47.55.63.52.29-.06.33-.94.38-1.61.09-1.21.18-1.33.28-1.82.14-.69.17-1.23.19-1.62.09-1.6.29-2.22.38-4.3.05-1.18.03-2.02,0-3.18-.07-2.75-.3-4.8-.34-5.22-.15-1.35-.2-1.33-.38-2.97-.19-1.73-.21-2.13-.33-3.1-.14-1.12-.19-1.31-.22-2.25-.12-3.16.21-4.48.02-7.87-.16-2.95-.29-5.33-1.29-5.61Z"/>
  <path class="cls-4" d="M76.81,34.83c1.81.71,8.79,3.19,11.51,6.13.33.36.85,1,1.07,1.92.4,1.69-.48,3.2-1.39,4.7-1.11,1.83-2.4,4-5.14,5.32-.56.27-2.57,1.21-4.95.94-.98-.11-1.75-.51-3.29-1.29-.12-.06-.33-.17-.39-.39-.09-.34.32-.6,1.13-1.54.64-.74.35-.54,1.01-1.33.26-.3.52-.59.43-.73-.07-.12-.34-.07-.41-.06-1.03.16-3.93-.72-4.8-1.01-.18-.06-2.22-.77-4.19-2.4-.73-.6-1.43-1.32-1.43-2.21,0-.42.16-.75.18-.81.06-.12.27-.52,1.37-1.12.58-.31,1.02-.55,1.69-.78.47-.16.88-.25.89-.45,0-.07-.04-.14-.37-.43-.28-.25-.42-.37-.55-.46-.89-.62-2.43-2.7-2.43-2.7-1.45-1.96-2.33-3.14-3.15-5.03-.82-1.86-1.06-3.22-1.16-3.89-.22-1.46-.32-2.19-.06-2.42,1.18-1,5.56,6.56,14.43,10.02Z"/>
  <g>
    <path class="cls-1" d="M0,150.93v-1.58c.79-.05,1.36-.22,1.71-.5.35-.29.57-.72.67-1.3.1-.58.14-1.31.14-2.2v-14.98c0-.53.01-1.04.04-1.53.02-.49.05-.92.07-1.28-.41.02-.85.05-1.33.07-.48.02-.91.05-1.3.07v-1.98h8.86v1.58c-.77.02-1.33.19-1.69.49-.36.3-.59.73-.68,1.3-.1.56-.14,1.3-.14,2.21v5.87h11.92v-6.8c0-.53.01-1.04.04-1.53.02-.49.05-.92.07-1.28-.41.02-.85.05-1.33.07-.48.02-.91.05-1.29.07v-1.98h8.86v1.58c-.77.02-1.33.19-1.69.49-.36.3-.59.73-.68,1.3-.1.56-.14,1.3-.14,2.21v14.8c0,.65,0,1.23-.02,1.75-.01.52-.04.93-.09,1.24.41-.05.85-.08,1.33-.09.48-.01.91-.03,1.29-.05v1.98h-8.86v-1.58c.79-.05,1.36-.22,1.71-.5s.57-.72.67-1.3c.1-.58.14-1.31.14-2.2v-6.3l-11.92.11v6.95c0,.65,0,1.23-.02,1.75-.01.52-.04.93-.09,1.24.41-.05.86-.08,1.35-.09.49-.01.92-.03,1.28-.05v1.98H0Z"/>
    <path class="cls-1" d="M27.47,150.93v-1.62c.72,0,1.27-.19,1.66-.58s.71-.91.97-1.57c.26-.66.55-1.4.86-2.21l7.27-19.91h1.44l7.88,20.2c.19.46.41,1.07.65,1.85.24.78.35,1.45.32,2,.41-.05.81-.08,1.21-.09.4-.01.77-.03,1.13-.05v1.98h-8.75v-1.58c.84-.02,1.4-.21,1.67-.56.28-.35.38-.77.32-1.28-.06-.5-.19-1.01-.38-1.51l-1.08-2.92-8.82.22-1.04,3.13c-.14.48-.3.94-.47,1.37-.17.43-.34.85-.5,1.26.43-.05.89-.08,1.39-.09.49-.01.93-.03,1.31-.05v2.02h-7.06ZM34.49,141.35h7.56l-2.27-6.08c-.29-.79-.56-1.58-.83-2.36-.26-.78-.5-1.53-.72-2.25h-.04c-.19.6-.41,1.26-.65,1.98-.24.72-.52,1.5-.83,2.34l-2.23,6.37Z"/>
    <path class="cls-1" d="M63.25,151.25l-8.21-19.22c-.43-1.01-.76-1.87-.97-2.59-.22-.72-.35-1.32-.4-1.8-.34.02-.67.04-1.01.04s-.66.01-.97.04v-1.98h9.11l-.04,1.62c-1.08.02-1.78.32-2.11.9-.32.58-.25,1.44.23,2.59.55,1.39,1.1,2.76,1.64,4.1.54,1.34,1.12,2.75,1.75,4.21.5,1.22.98,2.38,1.44,3.46.46,1.08.85,2.04,1.19,2.88h.04c.26-.79.54-1.59.83-2.39.29-.8.61-1.7.97-2.68.58-1.63,1.08-3.05,1.51-4.25.43-1.2.82-2.27,1.15-3.2s.64-1.78.9-2.52c.19-.55.39-1.09.59-1.6.2-.52.4-.94.59-1.28-.43.02-.9.05-1.4.07-.5.02-.96.05-1.37.07v-1.98h7.56v1.58c-.96.05-1.73.34-2.3.86-.58.53-1.1,1.45-1.58,2.77-.17.43-.34.89-.52,1.39-.18.49-.4,1.07-.65,1.73-.25.66-.55,1.46-.88,2.39-.34.94-.75,2.08-1.24,3.44-.49,1.36-1.08,2.96-1.76,4.81-.68,1.85-1.49,4.03-2.43,6.55h-1.66Z"/>
    <path class="cls-1" d="M78.84,150.93v-1.58c.79-.02,1.36-.19,1.71-.49.35-.3.57-.75.67-1.35.1-.6.14-1.36.14-2.27v-14.69c0-.65.01-1.23.04-1.75.02-.52.05-.93.07-1.24-.41.02-.85.05-1.33.07-.48.02-.91.05-1.3.07v-1.98c1.44-.02,2.88-.04,4.32-.05,1.44-.01,2.92-.02,4.43-.02,2.83,0,5.05.51,6.66,1.53,1.61,1.02,2.38,2.61,2.3,4.77-.02.74-.25,1.48-.67,2.21-.42.73-1.05,1.38-1.89,1.94-.84.56-1.88.98-3.13,1.24v.07c2.57.12,4.49.79,5.76,2,1.27,1.21,1.91,2.68,1.91,4.41,0,1.49-.38,2.77-1.13,3.83s-1.78,1.88-3.06,2.43c-1.28.55-2.75.83-4.41.83h-11.09ZM85.07,149.13c.41,0,.85,0,1.33.02.48.01.94.02,1.39.02h.99c1.73-.02,3.08-.49,4.07-1.4.98-.91,1.48-2.18,1.48-3.82,0-1.34-.27-2.39-.81-3.15-.54-.76-1.24-1.29-2.11-1.6-.86-.31-1.79-.47-2.77-.47-.67,0-1.28,0-1.82.02-.54.01-1.09.03-1.64.05v7.38c0,.65,0,1.22-.02,1.73-.01.5-.04.91-.09,1.22ZM85.18,137.03l2.38-.07c1.25-.02,2.24-.29,2.97-.79.73-.5,1.25-1.15,1.57-1.94.31-.79.46-1.62.43-2.48,0-1.2-.25-2.11-.76-2.74s-1.13-1.06-1.87-1.3c-.74-.24-1.48-.36-2.2-.36-.67,0-1.19.1-1.55.29-.36.19-.61.52-.76.99-.14.47-.22,1.16-.22,2.07v6.34Z"/>
    <path class="cls-1" d="M102.78,150.93v-1.58c.79-.05,1.36-.22,1.71-.5.35-.29.57-.72.67-1.3.1-.58.14-1.31.14-2.2v-14.98c0-.53.01-1.04.04-1.53.02-.49.05-.92.07-1.28-.41.02-.85.05-1.33.07-.48.02-.91.05-1.3.07v-1.98h8.86v1.58c-.77.02-1.33.19-1.69.49-.36.3-.59.73-.68,1.3-.1.56-.14,1.3-.14,2.21v14.9c0,.65,0,1.22-.02,1.71-.01.49-.04.89-.09,1.21l6.08-.07c1.49-.02,2.63-.51,3.42-1.46.79-.95,1.19-2.45,1.19-4.52h1.62l-.22,7.85h-18.32Z"/>
    <path class="cls-1" d="M133.85,127.31c-.77.02-1.33.19-1.69.49-.36.3-.59.73-.68,1.3-.1.56-.14,1.3-.14,2.21v14.8c0,.65,0,1.23-.02,1.75-.01.52-.04.93-.09,1.24.41-.05.86-.08,1.35-.09.49-.01.92-.03,1.28-.05v1.98h-8.86v-1.58c.79-.05,1.36-.22,1.71-.5.35-.29.57-.72.67-1.3.1-.58.14-1.31.14-2.2v-14.98c0-.53.01-1.04.04-1.53.02-.49.05-.92.07-1.28-.41.02-.85.05-1.33.07-.48.02-.91.05-1.3.07v-1.98h8.86v1.58Z"/>
    <path class="cls-1" d="M158.25,151.43l-13.39-17.78c-.26-.31-.52-.64-.76-.97-.24-.34-.49-.68-.76-1.04h-.04l.11,14c0,.6,0,1.2-.02,1.8-.01.6-.04,1.15-.09,1.66.41-.05.86-.08,1.35-.09.49-.01.92-.03,1.28-.05v1.98h-7.13v-1.58c.67,0,1.18-.13,1.53-.4.35-.26.59-.61.72-1.04.13-.43.2-.94.2-1.51v-17.57c0-.48.01-.9.04-1.26-.38.02-.81.05-1.28.07-.47.02-.88.05-1.24.07v-1.98h4.75l12.67,16.67c.41.53.77,1.02,1.1,1.48.32.46.64.89.95,1.3h.04l.04-14.8c0-.53.01-1.04.04-1.53.02-.49.05-.92.07-1.28-.43.02-.89.05-1.37.07-.48.02-.9.05-1.26.07v-1.98h7.13v1.58c-.77.02-1.33.19-1.67.49-.35.3-.56.73-.65,1.3-.08.56-.13,1.3-.13,2.21l-.04,20.12h-2.2Z"/>
    <path class="cls-1" d="M167.4,150.93v-1.58c.79-.05,1.36-.22,1.71-.5.35-.29.57-.72.67-1.3.1-.58.14-1.31.14-2.2v-14.98c0-.53.01-1.04.04-1.53.02-.49.05-.92.07-1.28-.41.02-.85.05-1.33.07-.48.02-.91.05-1.3.07v-1.98h8.86v1.58c-.77.02-1.33.19-1.69.49-.36.3-.59.73-.68,1.3-.1.56-.14,1.3-.14,2.21v5.76h2.66l3.92-6.3c.36-.55.77-1.14,1.22-1.76s.89-1.12,1.3-1.48c-.36.02-.74.04-1.13.05-.4.01-.75.03-1.06.05v-1.91h8.1v1.58c-.86.05-1.66.19-2.39.43-.73.24-1.45.66-2.14,1.26-.7.6-1.43,1.52-2.2,2.77l-3.49,5.58c.62.38,1.14.82,1.55,1.3.41.48.8.97,1.19,1.48l3.92,5.29c.77,1.03,1.43,1.84,2,2.41.56.58,1.1.97,1.6,1.19.5.22,1.01.32,1.51.32v1.58h-4.79c-.22,0-.53-.18-.94-.54s-.85-.82-1.31-1.37c-.47-.55-.92-1.1-1.35-1.66l-4.07-5.62c-.41-.55-.82-1.09-1.24-1.62-.42-.53-.83-.91-1.24-1.15h-1.62v7.13c0,.65,0,1.23-.02,1.75-.01.52-.04.93-.09,1.24.41-.05.86-.08,1.35-.09.49-.01.92-.03,1.28-.05v1.98h-8.86Z"/>
  </g>
  <g>
    <path class="cls-1" d="M22.13,169.37c0,.62-.1,1.19-.3,1.71-.2.52-.48.98-.85,1.37-.36.39-.79.7-1.28.91-.49.22-1.03.32-1.63.32s-1.12-.11-1.61-.32c-.49-.22-.92-.52-1.28-.91-.36-.39-.64-.85-.84-1.37-.2-.52-.29-1.09-.29-1.71s.1-1.19.29-1.71c.2-.52.48-.98.84-1.37.36-.39.79-.7,1.28-.91.49-.22,1.03-.32,1.61-.32s1.13.11,1.63.32c.49.22.92.52,1.28.91.36.39.65.85.85,1.37.2.52.3,1.09.3,1.71ZM14.67,173.88c-.1,0-.2-.04-.28-.12s-.13-.18-.13-.29c0-.1.03-.19.1-.28l6.78-8.26c.06-.07.11-.12.17-.14s.13-.04.2-.04c.1,0,.2.04.28.11.08.07.13.17.13.29,0,.1-.04.2-.11.29l-6.76,8.22c-.04.06-.09.12-.16.16-.06.04-.14.06-.23.06ZM21.09,169.37c0-.65-.13-1.23-.38-1.73-.26-.51-.61-.91-1.06-1.19-.45-.29-.97-.43-1.57-.43s-1.1.14-1.55.43c-.45.29-.81.68-1.06,1.19-.26.5-.38,1.08-.38,1.74s.13,1.23.38,1.73c.26.51.61.91,1.06,1.19.45.29.97.43,1.55.43s1.11-.14,1.57-.43c.45-.29.81-.69,1.06-1.19.26-.51.38-1.09.38-1.73Z"/>
    <path class="cls-1" d="M23.81,173.57c-.15,0-.27-.05-.37-.14-.09-.1-.14-.21-.14-.35v-7.42c0-.14.05-.25.14-.35.1-.1.22-.14.37-.14s.27.05.36.14c.09.1.13.21.13.35v7.42c0,.14-.05.25-.14.35-.09.1-.21.14-.37.14ZM29.2,165.15c.13,0,.24.05.32.16s.13.21.13.32c0,.12-.05.23-.14.32l-5.3,5-.08-1.12,4.7-4.51c.11-.12.24-.18.37-.18ZM29.24,173.59c-.14,0-.26-.06-.35-.18l-3.2-4.06.74-.76,3.24,4.16c.08.1.12.21.12.32,0,.16-.06.28-.18.37-.12.09-.24.13-.37.13Z"/>
    <path class="cls-1" d="M38.55,169.37c0,.62-.1,1.19-.3,1.71-.2.52-.48.98-.85,1.37-.36.39-.79.7-1.28.91-.49.22-1.03.32-1.63.32s-1.12-.11-1.61-.32c-.49-.22-.92-.52-1.28-.91-.36-.39-.64-.85-.84-1.37-.2-.52-.29-1.09-.29-1.71s.1-1.19.29-1.71c.2-.52.48-.98.84-1.37.36-.39.79-.7,1.28-.91.49-.22,1.03-.32,1.61-.32s1.13.11,1.63.32c.49.22.92.52,1.28.91.36.39.65.85.85,1.37.2.52.3,1.09.3,1.71ZM37.51,169.37c0-.65-.13-1.23-.38-1.73-.26-.51-.61-.91-1.06-1.19s-.97-.43-1.57-.43-1.1.14-1.55.43c-.45.29-.81.68-1.06,1.19s-.38,1.08-.38,1.74.13,1.23.38,1.73c.26.51.61.91,1.06,1.19.45.29.97.43,1.55.43s1.11-.14,1.57-.43.81-.69,1.06-1.19c.26-.51.38-1.09.38-1.73Z"/>
    <path class="cls-1" d="M44.77,172.62c.14,0,.25.05.35.14.1.09.14.21.14.34s-.05.25-.14.34-.21.13-.35.13h-4.15c-.14,0-.26-.05-.35-.14s-.14-.21-.14-.35v-7.42c0-.14.05-.25.14-.35.1-.1.22-.14.37-.14.14,0,.25.05.35.14.1.1.14.21.14.35v7.18l-.24-.22h3.88Z"/>
    <path class="cls-1" d="M54.09,169.37c0,.62-.1,1.19-.3,1.71-.2.52-.48.98-.85,1.37-.36.39-.79.7-1.28.91-.49.22-1.03.32-1.63.32s-1.12-.11-1.61-.32c-.49-.22-.92-.52-1.28-.91-.36-.39-.64-.85-.84-1.37-.2-.52-.29-1.09-.29-1.71s.1-1.19.29-1.71c.2-.52.48-.98.84-1.37.36-.39.79-.7,1.28-.91.49-.22,1.03-.32,1.61-.32s1.13.11,1.63.32c.49.22.92.52,1.28.91.36.39.65.85.85,1.37.2.52.3,1.09.3,1.71ZM53.05,169.37c0-.65-.13-1.23-.38-1.73-.26-.51-.61-.91-1.06-1.19s-.97-.43-1.57-.43-1.1.14-1.55.43c-.45.29-.81.68-1.06,1.19s-.38,1.08-.38,1.74.13,1.23.38,1.73c.26.51.61.91,1.06,1.19.45.29.97.43,1.55.43s1.11-.14,1.57-.43.81-.69,1.06-1.19c.26-.51.38-1.09.38-1.73Z"/>
    <path class="cls-1" d="M59.5,173.69c-.62,0-1.19-.11-1.72-.33-.53-.22-.99-.53-1.38-.92-.39-.39-.7-.85-.92-1.37-.22-.52-.33-1.09-.33-1.7s.11-1.17.33-1.7c.22-.52.53-.98.92-1.37.39-.39.85-.7,1.38-.92s1.1-.33,1.72-.33c.41,0,.8.05,1.18.14.38.09.72.23,1.03.43.08.04.14.1.18.17.04.08.06.15.06.22,0,.14-.05.25-.14.35-.09.1-.2.14-.32.14-.05,0-.1,0-.14-.02-.05-.01-.09-.03-.13-.05-.25-.13-.52-.23-.8-.31-.29-.08-.59-.11-.91-.11-.63,0-1.2.15-1.7.44-.5.3-.89.7-1.18,1.21-.29.51-.43,1.08-.43,1.71s.14,1.2.43,1.71c.29.51.68.91,1.18,1.21.5.3,1.07.44,1.7.44.32,0,.65-.04.98-.13.34-.09.62-.2.86-.34l-.07.29v-2.52l.18.17h-1.82c-.14,0-.25-.05-.35-.14-.1-.09-.14-.21-.14-.34,0-.14.05-.26.14-.35.1-.09.21-.14.35-.14h2.18c.14,0,.25.05.34.14.09.1.14.21.14.35v2.77c0,.1-.02.18-.07.26-.04.08-.1.14-.17.19-.36.23-.76.42-1.19.55-.44.14-.89.2-1.36.2Z"/>
    <path class="cls-1" d="M65.01,173.07c0,.14-.05.25-.15.35-.1.1-.22.14-.35.14-.15,0-.27-.05-.37-.14s-.14-.21-.14-.35v-7.42c0-.14.05-.25.14-.35.1-.1.22-.14.37-.14.14,0,.25.05.35.14.1.1.14.21.14.35v7.42Z"/>
    <path class="cls-1" d="M69.57,173.69c-.59,0-1.11-.09-1.56-.26-.45-.18-.88-.46-1.3-.84-.06-.05-.1-.11-.14-.18-.04-.07-.05-.15-.05-.23,0-.13.05-.24.14-.34s.21-.15.34-.15c.11,0,.21.04.3.13.31.3.65.54,1.01.7.36.16.77.24,1.23.24.35,0,.67-.06.95-.17s.5-.27.67-.47c.17-.2.25-.43.25-.7,0-.32-.09-.58-.27-.79s-.43-.38-.74-.52c-.32-.14-.68-.26-1.1-.36-.37-.09-.71-.19-1.01-.32-.31-.12-.58-.28-.8-.47-.23-.19-.4-.42-.53-.68-.12-.27-.19-.59-.19-.95,0-.46.12-.85.36-1.19.24-.34.57-.61,1-.8.43-.19.92-.29,1.47-.29.49,0,.95.08,1.39.24.44.16.79.38,1.05.66.16.15.24.3.24.46,0,.11-.05.22-.15.32-.1.1-.21.15-.34.15-.09,0-.17-.03-.24-.08-.14-.15-.31-.29-.52-.41s-.44-.22-.68-.29c-.24-.07-.49-.11-.74-.11-.37,0-.69.05-.97.16-.28.11-.5.26-.65.45-.16.19-.23.42-.23.7,0,.3.09.55.26.75.18.2.41.36.71.48.3.12.62.23.98.33.39.1.75.21,1.09.33.33.12.62.28.86.46s.43.42.56.7c.13.28.2.63.2,1.05,0,.44-.12.83-.37,1.18-.25.34-.59.62-1.01.82-.43.2-.91.3-1.45.3Z"/>
    <path class="cls-1" d="M74.5,173.57c-.15,0-.27-.05-.37-.14s-.14-.21-.14-.35v-7.42c0-.14.05-.25.14-.35.1-.1.22-.14.37-.14s.27.05.36.14c.09.1.13.21.13.35v7.42c0,.14-.05.25-.14.35s-.21.14-.37.14ZM79.89,165.15c.13,0,.24.05.32.16s.13.21.13.32c0,.12-.05.23-.14.32l-5.3,5-.08-1.12,4.7-4.51c.11-.12.24-.18.37-.18ZM79.92,173.59c-.14,0-.26-.06-.35-.18l-3.2-4.06.74-.76,3.24,4.16c.08.1.12.21.12.32,0,.16-.06.28-.18.37s-.24.13-.37.13Z"/>
    <path class="cls-1" d="M88.79,165.17c.59,0,1.11.11,1.55.33.44.22.81.53,1.11.92.29.39.52.84.67,1.35.15.51.22,1.04.22,1.6,0,.78-.13,1.48-.4,2.12-.26.64-.66,1.14-1.18,1.52-.52.38-1.18.56-1.97.56h-2.99c-.14,0-.25-.05-.35-.14-.1-.1-.14-.21-.14-.35v-7.42c0-.14.05-.25.14-.35.1-.1.21-.14.35-.14h2.99ZM88.67,172.63c.62,0,1.13-.15,1.51-.44s.67-.69.85-1.19c.18-.5.27-1.04.27-1.63,0-.43-.05-.84-.15-1.24-.1-.39-.26-.74-.47-1.04s-.48-.54-.82-.72c-.33-.18-.73-.26-1.19-.26h-2.45l.1-.11v6.76l-.07-.12h2.42Z"/>
    <path class="cls-1" d="M96.77,166.42l-2.82,6.86c-.03.1-.09.17-.17.23-.08.06-.16.09-.25.09-.15,0-.26-.04-.34-.13s-.11-.18-.12-.29c0-.06,0-.12.02-.18l3.11-7.55c.05-.11.11-.2.2-.25.08-.06.18-.08.28-.07.1,0,.2.03.28.08.08.06.14.14.17.24l3.1,7.48c.02.06.04.13.04.19,0,.14-.05.26-.14.35-.1.09-.2.13-.32.13-.1,0-.2-.03-.28-.09-.08-.06-.14-.14-.18-.25l-2.86-6.86h.28ZM94.55,171.32l.41-.94h3.56l.18.94h-4.15Z"/>
    <path class="cls-1" d="M107.81,165.17c.14,0,.24.04.32.13.08.09.12.2.12.32v7.44c0,.15-.05.27-.14.37-.1.09-.22.14-.36.14-.06,0-.13-.01-.2-.04-.07-.03-.13-.07-.17-.11l-5.14-6.79.24-.13v6.64c0,.13-.04.23-.13.32s-.19.13-.33.13-.24-.04-.32-.13-.12-.19-.12-.32v-7.46c0-.15.05-.27.14-.36.1-.09.21-.13.34-.13.07,0,.15.01.22.04s.13.07.17.14l5.05,6.68-.14.19v-6.6c0-.13.04-.24.13-.32.08-.09.19-.13.32-.13Z"/>
    <path class="cls-1" d="M112.8,173.69c-.59,0-1.11-.09-1.56-.26-.45-.18-.88-.46-1.3-.84-.06-.05-.1-.11-.14-.18-.04-.07-.05-.15-.05-.23,0-.13.05-.24.14-.34s.21-.15.34-.15c.11,0,.21.04.3.13.31.3.65.54,1.01.7.36.16.77.24,1.23.24.35,0,.67-.06.95-.17s.5-.27.67-.47c.17-.2.25-.43.25-.7,0-.32-.09-.58-.27-.79s-.43-.38-.74-.52c-.32-.14-.68-.26-1.1-.36-.37-.09-.71-.19-1.01-.32-.31-.12-.58-.28-.8-.47-.23-.19-.4-.42-.53-.68-.12-.27-.19-.59-.19-.95,0-.46.12-.85.36-1.19.24-.34.57-.61,1-.8.43-.19.92-.29,1.47-.29.49,0,.95.08,1.39.24.44.16.79.38,1.05.66.16.15.24.3.24.46,0,.11-.05.22-.15.32-.1.1-.21.15-.34.15-.09,0-.17-.03-.24-.08-.14-.15-.31-.29-.52-.41s-.44-.22-.68-.29c-.24-.07-.49-.11-.74-.11-.37,0-.69.05-.97.16-.28.11-.5.26-.65.45-.16.19-.23.42-.23.7,0,.3.09.55.26.75.18.2.41.36.71.48.3.12.62.23.98.33.39.1.75.21,1.09.33.33.12.62.28.86.46s.43.42.56.7c.13.28.2.63.2,1.05,0,.44-.12.83-.37,1.18-.25.34-.59.62-1.01.82-.43.2-.91.3-1.45.3Z"/>
    <path class="cls-1" d="M117.74,173.57c-.15,0-.27-.05-.37-.14s-.14-.21-.14-.35v-7.42c0-.14.05-.25.14-.35.1-.1.22-.14.37-.14s.27.05.36.14c.09.1.13.21.13.35v7.42c0,.14-.05.25-.14.35s-.21.14-.37.14ZM123.12,165.15c.13,0,.24.05.32.16s.13.21.13.32c0,.12-.05.23-.14.32l-5.3,5-.08-1.12,4.7-4.51c.11-.12.24-.18.37-.18ZM123.16,173.59c-.14,0-.26-.06-.35-.18l-3.2-4.06.74-.76,3.24,4.16c.08.1.12.21.12.32,0,.16-.06.28-.18.37s-.24.13-.37.13Z"/>
    <path class="cls-1" d="M129.06,165.17c.14,0,.25.05.35.14.1.1.14.21.14.35v7.42c0,.14-.05.25-.15.35-.1.1-.22.14-.35.14-.15,0-.27-.05-.37-.14s-.14-.21-.14-.35v-7.42c0-.14.05-.25.14-.35.1-.1.22-.14.37-.14ZM129.02,168.83h5.58v.94h-5.62l.04-.94ZM134.58,165.17c.15,0,.27.05.37.14.09.1.14.21.14.35v7.42c0,.14-.05.25-.14.35-.1.1-.22.14-.37.14-.14,0-.25-.05-.35-.14-.1-.1-.14-.21-.14-.35v-7.42c0-.14.05-.25.15-.35.1-.1.22-.14.35-.14Z"/>
    <path class="cls-1" d="M143.27,165.15c.14,0,.26.04.36.13.1.09.14.2.14.32,0,.07-.02.15-.05.23l-3.13,7.42c-.05.1-.11.18-.2.23-.08.05-.17.08-.27.08-.09,0-.17-.04-.26-.09-.08-.05-.15-.13-.19-.22l-3.11-7.4s-.03-.07-.04-.11c0-.04-.01-.08-.01-.12,0-.14.05-.26.16-.35.11-.09.21-.13.32-.13.22,0,.37.11.47.34l2.87,6.84h-.28l2.76-6.85c.1-.21.24-.31.44-.31Z"/>
    <path class="cls-1" d="M146.21,173.07c0,.14-.05.25-.15.35-.1.1-.22.14-.35.14-.15,0-.27-.05-.37-.14s-.14-.21-.14-.35v-7.42c0-.14.05-.25.14-.35.1-.1.22-.14.37-.14.14,0,.25.05.35.14.1.1.14.21.14.35v7.42Z"/>
    <path class="cls-1" d="M151.79,165.17c.59,0,1.11.11,1.55.33.44.22.81.53,1.11.92.29.39.52.84.67,1.35.15.51.22,1.04.22,1.6,0,.78-.13,1.48-.4,2.12-.26.64-.66,1.14-1.18,1.52-.52.38-1.18.56-1.97.56h-2.99c-.14,0-.25-.05-.35-.14-.1-.1-.14-.21-.14-.35v-7.42c0-.14.05-.25.14-.35.1-.1.21-.14.35-.14h2.99ZM151.67,172.63c.62,0,1.13-.15,1.51-.44s.67-.69.85-1.19c.18-.5.27-1.04.27-1.63,0-.43-.05-.84-.15-1.24-.1-.39-.26-.74-.47-1.04s-.48-.54-.82-.72c-.33-.18-.73-.26-1.19-.26h-2.45l.1-.11v6.76l-.07-.12h2.42Z"/>
    <path class="cls-1" d="M162.88,165.15c.14,0,.26.04.36.13.1.09.14.2.14.32,0,.07-.02.15-.05.23l-3.13,7.42c-.05.1-.11.18-.2.23-.08.05-.17.08-.27.08-.09,0-.17-.04-.26-.09-.08-.05-.15-.13-.19-.22l-3.11-7.4s-.03-.07-.04-.11c0-.04-.01-.08-.01-.12,0-.14.05-.26.16-.35.11-.09.21-.13.32-.13.22,0,.37.11.47.34l2.87,6.84h-.28l2.76-6.85c.1-.21.24-.31.44-.31Z"/>
    <path class="cls-1" d="M165.82,173.07c0,.14-.05.25-.15.35-.1.1-.22.14-.35.14-.15,0-.27-.05-.37-.14s-.14-.21-.14-.35v-7.42c0-.14.05-.25.14-.35.1-.1.22-.14.37-.14.14,0,.25.05.35.14.1.1.14.21.14.35v7.42Z"/>
    <path class="cls-1" d="M174.15,165.17c.14,0,.24.04.32.13.08.09.12.2.12.32v7.44c0,.15-.05.27-.14.37-.1.09-.22.14-.36.14-.06,0-.13-.01-.2-.04-.07-.03-.13-.07-.17-.11l-5.14-6.79.24-.13v6.64c0,.13-.04.23-.13.32s-.19.13-.33.13-.24-.04-.32-.13-.12-.19-.12-.32v-7.46c0-.15.05-.27.14-.36.1-.09.21-.13.34-.13.07,0,.15.01.22.04s.13.07.17.14l5.05,6.68-.14.19v-6.6c0-.13.04-.24.13-.32.08-.09.19-.13.32-.13Z"/>
  </g>
</svg>