<svg width="296" height="21" viewBox="0 0 296 21" fill="none" xmlns="http://www.w3.org/2000/svg">
<g clip-path="url(#clip0_101_6854)">
<path d="M7.25672 3.43421C7.53172 2.78104 8.46832 2.78104 8.74332 3.43421L10.3663 7.28933C10.4823 7.56469 10.7445 7.75284 11.0454 7.77667L15.2582 8.11033C15.9719 8.16686 16.2614 9.04686 15.7175 9.50707L12.5079 12.2233C12.2786 12.4173 12.1784 12.7218 12.2485 13.0118L13.2291 17.0732C13.3952 17.7613 12.6375 18.3052 12.0264 17.9365L8.41965 15.76C8.16202 15.6045 7.83802 15.6045 7.5804 15.76L3.9736 17.9365C3.3625 18.3052 2.60477 17.7613 2.77091 17.0732L3.75155 13.0118C3.82159 12.7218 3.72147 12.4173 3.49221 12.2233L0.28245 9.50707C-0.261375 9.04686 0.0280544 8.16686 0.741835 8.11033L4.9547 7.77667C5.25561 7.75284 5.51774 7.56469 5.63367 7.28933L7.25672 3.43421Z" fill="black"/>
<path d="M27.2567 3.43421C27.5317 2.78104 28.4683 2.78104 28.7433 3.43421L30.3663 7.28933C30.4823 7.56469 30.7445 7.75284 31.0454 7.77667L35.2582 8.11033C35.9719 8.16686 36.2614 9.04686 35.7175 9.50707L32.5079 12.2233C32.2786 12.4173 32.1784 12.7218 32.2485 13.0118L33.2291 17.0732C33.3952 17.7613 32.6375 18.3052 32.0264 17.9365L28.4196 15.76C28.162 15.6045 27.838 15.6045 27.5804 15.76L23.9736 17.9365C23.3625 18.3052 22.6048 17.7613 22.7709 17.0732L23.7515 13.0118C23.8216 12.7218 23.7215 12.4173 23.4922 12.2233L20.2825 9.50707C19.7386 9.04686 20.0281 8.16686 20.7418 8.11033L24.9547 7.77667C25.2556 7.75284 25.5177 7.56469 25.6337 7.28933L27.2567 3.43421Z" fill="black"/>
<path d="M47.2567 3.43421C47.5317 2.78104 48.4683 2.78104 48.7433 3.43421L50.3663 7.28933C50.4823 7.56469 50.7445 7.75284 51.0454 7.77667L55.2582 8.11033C55.9719 8.16686 56.2614 9.04686 55.7175 9.50707L52.5079 12.2233C52.2786 12.4173 52.1784 12.7218 52.2485 13.0118L53.2291 17.0732C53.3952 17.7613 52.6375 18.3052 52.0264 17.9365L48.4196 15.76C48.162 15.6045 47.838 15.6045 47.5804 15.76L43.9736 17.9365C43.3625 18.3052 42.6048 17.7613 42.7709 17.0732L43.7515 13.0118C43.8216 12.7218 43.7215 12.4173 43.4922 12.2233L40.2825 9.50707C39.7386 9.04686 40.0281 8.16686 40.7418 8.11033L44.9547 7.77667C45.2556 7.75284 45.5177 7.56469 45.6337 7.28933L47.2567 3.43421Z" fill="black"/>
<path d="M67.7178 3.62793C67.8082 3.41377 68.0933 3.3872 68.2324 3.54785L68.2822 3.62793L69.9053 7.4834C70.071 7.87688 70.4183 8.15805 70.8271 8.24805L71.0059 8.27539L75.2188 8.6084C75.4632 8.62778 75.5634 8.88277 75.4541 9.05664L75.3945 9.125L72.1846 11.8418C71.859 12.1175 71.6922 12.5324 71.7324 12.9502L71.7627 13.1289L72.7432 17.1904C72.7975 17.4153 72.5628 17.6283 72.3311 17.5322L72.2852 17.5088L68.6777 15.332C68.3133 15.1121 67.8672 15.084 67.4824 15.249L67.3223 15.332L63.7148 17.5088C63.5003 17.6378 63.2665 17.481 63.25 17.2793L63.2568 17.1904L64.2373 13.1289C64.3377 12.7131 64.2246 12.2805 63.9453 11.9678L63.8154 11.8418L60.6055 9.125C60.4352 8.98068 60.4837 8.71104 60.6855 8.63086L60.7812 8.6084L64.9941 8.27539C65.4184 8.24179 65.7977 8.00468 66.0127 7.64453L66.0947 7.4834L67.7178 3.62793Z" fill="black" stroke="black"/>
<path fill-rule="evenodd" clip-rule="evenodd" d="M95.9144 8.55599L95.9782 8.75599C96.0307 8.90694 95.9865 9.07471 95.8665 9.17999L91.9892 12.5L93.138 17.476C93.1769 17.635 93.1172 17.802 92.9864 17.9L92.8109 18.02C92.7427 18.0736 92.6582 18.1018 92.5716 18.1C92.4985 18.1015 92.4266 18.0821 92.3642 18.044L88.0002 15.38L83.6601 18.044C83.5977 18.0821 83.5257 18.1015 83.4527 18.1C83.3661 18.1018 83.2815 18.0736 83.2133 18.02L83.0139 17.9C82.8831 17.802 82.8234 17.635 82.8623 17.476L84.0111 12.5L80.1418 9.18799C80.0156 9.08334 79.9678 8.91091 80.0221 8.75599L80.1099 8.55599C80.1565 8.39793 80.2968 8.28603 80.4609 8.27599L85.5589 7.86799L87.5135 3.15599C87.5761 2.99951 87.7283 2.89778 87.8965 2.89999H88.1039C88.2705 2.89645 88.4211 2.99923 88.4788 3.15599L90.4654 7.86799L95.5634 8.27599C95.7275 8.28603 95.8677 8.39793 95.9144 8.55599ZM91.2871 15.748L90.3936 12.004L93.3215 9.49999L89.4841 9.19599L88.0002 5.62799V13.74L91.2871 15.748Z" fill="black"/>
</g>
<path d="M108.866 18.688C108.801 18.688 108.731 18.6647 108.656 18.618C107.872 18.226 107.219 17.7033 106.696 17.05C106.173 16.406 105.777 15.6827 105.506 14.88C105.245 14.0773 105.114 13.2513 105.114 12.402C105.114 11.5527 105.249 10.7407 105.52 9.966C105.8 9.182 106.206 8.468 106.738 7.824C107.27 7.17067 107.914 6.62 108.67 6.172C108.735 6.13467 108.801 6.116 108.866 6.116C108.978 6.116 109.067 6.158 109.132 6.242C109.197 6.31667 109.23 6.40067 109.23 6.494C109.23 6.62467 109.174 6.732 109.062 6.816C108.399 7.19867 107.835 7.68867 107.368 8.286C106.911 8.874 106.561 9.52267 106.318 10.232C106.075 10.9413 105.954 11.6647 105.954 12.402C105.954 13.1393 106.071 13.8673 106.304 14.586C106.537 15.3047 106.883 15.958 107.34 16.546C107.807 17.1433 108.381 17.624 109.062 17.988C109.174 18.0533 109.23 18.1607 109.23 18.31C109.23 18.4033 109.197 18.4873 109.132 18.562C109.067 18.646 108.978 18.688 108.866 18.688ZM114.746 16C114.625 16 114.527 15.958 114.452 15.874C114.378 15.79 114.34 15.692 114.34 15.58V7.362L114.522 7.474L110.84 12.346L110.798 12.192H116.174C116.286 12.192 116.38 12.2293 116.454 12.304C116.538 12.3787 116.58 12.472 116.58 12.584C116.58 12.696 116.538 12.7893 116.454 12.864C116.38 12.9387 116.286 12.976 116.174 12.976H110.224C110.112 12.976 110.014 12.934 109.93 12.85C109.846 12.7567 109.804 12.654 109.804 12.542C109.804 12.4393 109.837 12.346 109.902 12.262L114.41 6.368C114.457 6.30267 114.513 6.26067 114.578 6.242C114.653 6.214 114.714 6.2 114.76 6.2C114.882 6.2 114.98 6.242 115.054 6.326C115.138 6.41 115.18 6.508 115.18 6.62V15.58C115.18 15.692 115.138 15.79 115.054 15.874C114.97 15.958 114.868 16 114.746 16ZM118.209 16C118.051 16 117.929 15.9487 117.845 15.846C117.761 15.7433 117.719 15.6127 117.719 15.454V15.16C117.719 14.992 117.761 14.8613 117.845 14.768C117.929 14.6747 118.051 14.628 118.209 14.628H118.307C118.466 14.628 118.587 14.6747 118.671 14.768C118.755 14.8613 118.797 14.992 118.797 15.16V15.454C118.797 15.6127 118.755 15.7433 118.671 15.846C118.587 15.9487 118.466 16 118.307 16H118.209ZM122.797 16.028C122.414 16.028 122.027 15.9673 121.635 15.846C121.252 15.7153 120.911 15.524 120.613 15.272C120.557 15.2253 120.51 15.1693 120.473 15.104C120.445 15.0387 120.431 14.9733 120.431 14.908C120.431 14.8147 120.468 14.726 120.543 14.642C120.617 14.5487 120.715 14.502 120.837 14.502C120.939 14.502 121.042 14.544 121.145 14.628C121.387 14.8147 121.649 14.9593 121.929 15.062C122.218 15.1647 122.507 15.216 122.797 15.216C123.347 15.216 123.828 15.1133 124.239 14.908C124.649 14.6933 124.967 14.3947 125.191 14.012C125.415 13.62 125.527 13.1673 125.527 12.654C125.527 12.178 125.424 11.7673 125.219 11.422C125.013 11.0673 124.719 10.792 124.337 10.596C123.963 10.3907 123.52 10.288 123.007 10.288C122.671 10.288 122.363 10.3393 122.083 10.442C121.812 10.5447 121.574 10.652 121.369 10.764C121.173 10.8667 121.014 10.918 120.893 10.918C120.781 10.918 120.687 10.89 120.613 10.834C120.547 10.778 120.501 10.708 120.473 10.624C120.454 10.54 120.454 10.4513 120.473 10.358L121.075 6.62C121.084 6.536 121.126 6.46133 121.201 6.396C121.285 6.32133 121.387 6.284 121.509 6.284H125.723C125.835 6.284 125.928 6.326 126.003 6.41C126.087 6.48467 126.129 6.578 126.129 6.69C126.129 6.81133 126.087 6.914 126.003 6.998C125.928 7.07267 125.835 7.11 125.723 7.11H121.705L121.831 6.984L121.257 10.302L121.005 10.12C121.126 10.0267 121.299 9.93333 121.523 9.84C121.756 9.74667 122.013 9.66733 122.293 9.602C122.582 9.52733 122.885 9.49 123.203 9.49C123.809 9.49 124.351 9.62533 124.827 9.896C125.303 10.1573 125.676 10.526 125.947 11.002C126.227 11.4687 126.367 12.01 126.367 12.626C126.367 13.3073 126.217 13.9047 125.919 14.418C125.629 14.922 125.219 15.3187 124.687 15.608C124.155 15.888 123.525 16.028 122.797 16.028ZM131.678 14.866C131.603 14.754 131.566 14.6467 131.566 14.544C131.575 14.432 131.636 14.3433 131.748 14.278C131.822 14.2127 131.906 14.1847 132 14.194C132.102 14.2033 132.196 14.25 132.28 14.334C132.532 14.6607 132.835 14.9267 133.19 15.132C133.554 15.328 133.983 15.426 134.478 15.426C134.739 15.426 134.996 15.384 135.248 15.3C135.509 15.2067 135.724 15.0713 135.892 14.894C136.06 14.7073 136.144 14.474 136.144 14.194C136.144 13.9047 136.06 13.6713 135.892 13.494C135.724 13.3167 135.504 13.1767 135.234 13.074C134.972 12.9713 134.692 12.8827 134.394 12.808C134.076 12.724 133.768 12.6307 133.47 12.528C133.171 12.416 132.905 12.2807 132.672 12.122C132.448 11.954 132.266 11.7533 132.126 11.52C131.986 11.2867 131.916 11.002 131.916 10.666C131.916 10.274 132.023 9.92867 132.238 9.63C132.452 9.33133 132.742 9.098 133.106 8.93C133.479 8.762 133.899 8.678 134.366 8.678C134.599 8.678 134.851 8.71067 135.122 8.776C135.392 8.832 135.658 8.93 135.92 9.07C136.181 9.21 136.414 9.40133 136.62 9.644C136.704 9.728 136.746 9.826 136.746 9.938C136.746 10.0407 136.699 10.134 136.606 10.218C136.531 10.274 136.442 10.302 136.34 10.302C136.246 10.302 136.167 10.2647 136.102 10.19C135.878 9.938 135.612 9.74667 135.304 9.616C134.996 9.48533 134.664 9.42 134.31 9.42C134.039 9.42 133.782 9.46667 133.54 9.56C133.306 9.644 133.11 9.77467 132.952 9.952C132.793 10.1293 132.714 10.3627 132.714 10.652C132.732 10.9227 132.826 11.142 132.994 11.31C133.171 11.478 133.4 11.618 133.68 11.73C133.969 11.842 134.291 11.9447 134.646 12.038C134.944 12.1127 135.229 12.2013 135.5 12.304C135.78 12.4067 136.022 12.5373 136.228 12.696C136.442 12.8453 136.61 13.0367 136.732 13.27C136.862 13.5033 136.928 13.7973 136.928 14.152C136.928 14.5627 136.811 14.9173 136.578 15.216C136.354 15.5147 136.05 15.7433 135.668 15.902C135.285 16.0607 134.86 16.14 134.394 16.14C133.89 16.14 133.4 16.042 132.924 15.846C132.457 15.65 132.042 15.3233 131.678 14.866ZM138.184 8.874H141.446C141.558 8.874 141.651 8.916 141.726 9C141.801 9.07467 141.838 9.168 141.838 9.28C141.838 9.38267 141.801 9.47133 141.726 9.546C141.651 9.62067 141.558 9.658 141.446 9.658H138.184C138.072 9.658 137.974 9.62067 137.89 9.546C137.815 9.462 137.778 9.36867 137.778 9.266C137.778 9.154 137.815 9.06067 137.89 8.986C137.974 8.91133 138.072 8.874 138.184 8.874ZM139.626 6.9C139.747 6.9 139.845 6.942 139.92 7.026C140.004 7.11 140.046 7.208 140.046 7.32V14.348C140.046 14.6093 140.079 14.8053 140.144 14.936C140.219 15.0667 140.312 15.1553 140.424 15.202C140.536 15.2393 140.648 15.258 140.76 15.258C140.835 15.258 140.9 15.2487 140.956 15.23C141.021 15.202 141.091 15.188 141.166 15.188C141.25 15.188 141.32 15.2207 141.376 15.286C141.441 15.3513 141.474 15.4353 141.474 15.538C141.474 15.6687 141.399 15.7807 141.25 15.874C141.101 15.958 140.923 16 140.718 16C140.634 16 140.508 15.9953 140.34 15.986C140.172 15.9673 139.999 15.916 139.822 15.832C139.645 15.7387 139.495 15.58 139.374 15.356C139.262 15.132 139.206 14.81 139.206 14.39V7.32C139.206 7.208 139.243 7.11 139.318 7.026C139.402 6.942 139.505 6.9 139.626 6.9ZM144.412 16.644C144.412 17.092 144.305 17.47 144.09 17.778C143.885 18.0953 143.628 18.338 143.32 18.506C143.012 18.674 142.704 18.758 142.396 18.758C142.275 18.758 142.182 18.7207 142.116 18.646C142.042 18.5713 142.004 18.4827 142.004 18.38V18.324C142.004 18.212 142.042 18.1233 142.116 18.058C142.191 17.9927 142.275 17.9507 142.368 17.932C142.583 17.8853 142.779 17.806 142.956 17.694C143.143 17.582 143.292 17.428 143.404 17.232C143.516 17.036 143.572 16.798 143.572 16.518V9.294C143.572 9.182 143.61 9.084 143.684 9C143.768 8.916 143.871 8.874 143.992 8.874C144.114 8.874 144.212 8.916 144.286 9C144.37 9.084 144.412 9.182 144.412 9.294V16.644ZM143.992 7.768C143.796 7.768 143.647 7.726 143.544 7.642C143.451 7.54867 143.404 7.418 143.404 7.25V7.11C143.404 6.942 143.456 6.816 143.558 6.732C143.67 6.63867 143.82 6.592 144.006 6.592C144.184 6.592 144.319 6.63867 144.412 6.732C144.515 6.816 144.566 6.942 144.566 7.11V7.25C144.566 7.418 144.515 7.54867 144.412 7.642C144.319 7.726 144.179 7.768 143.992 7.768ZM150.398 16.14C149.679 16.14 149.044 15.986 148.494 15.678C147.943 15.37 147.514 14.9407 147.206 14.39C146.898 13.8393 146.744 13.1953 146.744 12.458C146.744 11.6647 146.898 10.988 147.206 10.428C147.523 9.868 147.929 9.43867 148.424 9.14C148.928 8.832 149.46 8.678 150.02 8.678C150.43 8.678 150.827 8.75267 151.21 8.902C151.602 9.042 151.947 9.25667 152.246 9.546C152.554 9.826 152.796 10.1713 152.974 10.582C153.16 10.9927 153.263 11.4687 153.282 12.01C153.272 12.122 153.226 12.22 153.142 12.304C153.058 12.3787 152.96 12.416 152.848 12.416H147.234L147.066 11.66H152.582L152.4 11.828V11.548C152.362 11.1093 152.222 10.736 151.98 10.428C151.737 10.12 151.443 9.88667 151.098 9.728C150.752 9.56933 150.393 9.49 150.02 9.49C149.74 9.49 149.45 9.546 149.152 9.658C148.862 9.77 148.596 9.94733 148.354 10.19C148.12 10.4233 147.929 10.7267 147.78 11.1C147.63 11.464 147.556 11.898 147.556 12.402C147.556 12.9527 147.668 13.452 147.892 13.9C148.116 14.348 148.438 14.7027 148.858 14.964C149.287 15.2253 149.796 15.356 150.384 15.356C150.71 15.356 151.004 15.3093 151.266 15.216C151.527 15.1227 151.756 15.0013 151.952 14.852C152.148 14.6933 152.311 14.53 152.442 14.362C152.544 14.278 152.647 14.236 152.75 14.236C152.843 14.236 152.922 14.2733 152.988 14.348C153.062 14.4227 153.1 14.5067 153.1 14.6C153.1 14.712 153.053 14.81 152.96 14.894C152.68 15.23 152.316 15.524 151.868 15.776C151.42 16.0187 150.93 16.14 150.398 16.14ZM155.5 16C155.369 16 155.266 15.958 155.192 15.874C155.117 15.79 155.08 15.692 155.08 15.58V9.308C155.08 9.196 155.117 9.098 155.192 9.014C155.276 8.93 155.378 8.888 155.5 8.888C155.621 8.888 155.719 8.93 155.794 9.014C155.878 9.098 155.92 9.196 155.92 9.308V11.408L155.71 11.45C155.738 11.1233 155.817 10.8013 155.948 10.484C156.088 10.1573 156.274 9.85867 156.508 9.588C156.741 9.31733 157.016 9.098 157.334 8.93C157.66 8.762 158.024 8.678 158.426 8.678C158.594 8.678 158.757 8.71533 158.916 8.79C159.074 8.85533 159.154 8.96733 159.154 9.126C159.154 9.266 159.116 9.37333 159.042 9.448C158.967 9.52267 158.878 9.56 158.776 9.56C158.692 9.56 158.598 9.53667 158.496 9.49C158.402 9.44333 158.276 9.42 158.118 9.42C157.856 9.42 157.595 9.49933 157.334 9.658C157.072 9.80733 156.834 10.0127 156.62 10.274C156.405 10.5353 156.232 10.8293 156.102 11.156C155.98 11.4733 155.92 11.7953 155.92 12.122V15.58C155.92 15.692 155.878 15.79 155.794 15.874C155.71 15.958 155.612 16 155.5 16ZM163.84 8.678C164.456 8.678 164.946 8.804 165.31 9.056C165.684 9.29867 165.95 9.63467 166.108 10.064C166.276 10.484 166.36 10.9507 166.36 11.464V15.58C166.36 15.692 166.318 15.79 166.234 15.874C166.15 15.958 166.052 16 165.94 16C165.81 16 165.707 15.958 165.632 15.874C165.558 15.79 165.52 15.692 165.52 15.58V11.506C165.52 11.1327 165.46 10.792 165.338 10.484C165.217 10.176 165.016 9.92867 164.736 9.742C164.466 9.55533 164.106 9.462 163.658 9.462C163.257 9.462 162.874 9.55533 162.51 9.742C162.156 9.92867 161.866 10.176 161.642 10.484C161.418 10.792 161.306 11.1327 161.306 11.506V15.58C161.306 15.692 161.264 15.79 161.18 15.874C161.096 15.958 160.998 16 160.886 16C160.756 16 160.653 15.958 160.578 15.874C160.504 15.79 160.466 15.692 160.466 15.58V9.308C160.466 9.196 160.504 9.098 160.578 9.014C160.662 8.93 160.765 8.888 160.886 8.888C161.008 8.888 161.106 8.93 161.18 9.014C161.264 9.098 161.306 9.196 161.306 9.308V10.484L160.984 10.988C161.003 10.6893 161.096 10.4047 161.264 10.134C161.442 9.854 161.666 9.60667 161.936 9.392C162.207 9.168 162.506 8.99533 162.832 8.874C163.168 8.74333 163.504 8.678 163.84 8.678ZM171.794 16.14C171.075 16.14 170.441 15.986 169.89 15.678C169.339 15.37 168.91 14.9407 168.602 14.39C168.294 13.8393 168.14 13.1953 168.14 12.458C168.14 11.6647 168.294 10.988 168.602 10.428C168.919 9.868 169.325 9.43867 169.82 9.14C170.324 8.832 170.856 8.678 171.416 8.678C171.827 8.678 172.223 8.75267 172.606 8.902C172.998 9.042 173.343 9.25667 173.642 9.546C173.95 9.826 174.193 10.1713 174.37 10.582C174.557 10.9927 174.659 11.4687 174.678 12.01C174.669 12.122 174.622 12.22 174.538 12.304C174.454 12.3787 174.356 12.416 174.244 12.416H168.63L168.462 11.66H173.978L173.796 11.828V11.548C173.759 11.1093 173.619 10.736 173.376 10.428C173.133 10.12 172.839 9.88667 172.494 9.728C172.149 9.56933 171.789 9.49 171.416 9.49C171.136 9.49 170.847 9.546 170.548 9.658C170.259 9.77 169.993 9.94733 169.75 10.19C169.517 10.4233 169.325 10.7267 169.176 11.1C169.027 11.464 168.952 11.898 168.952 12.402C168.952 12.9527 169.064 13.452 169.288 13.9C169.512 14.348 169.834 14.7027 170.254 14.964C170.683 15.2253 171.192 15.356 171.78 15.356C172.107 15.356 172.401 15.3093 172.662 15.216C172.923 15.1227 173.152 15.0013 173.348 14.852C173.544 14.6933 173.707 14.53 173.838 14.362C173.941 14.278 174.043 14.236 174.146 14.236C174.239 14.236 174.319 14.2733 174.384 14.348C174.459 14.4227 174.496 14.5067 174.496 14.6C174.496 14.712 174.449 14.81 174.356 14.894C174.076 15.23 173.712 15.524 173.264 15.776C172.816 16.0187 172.326 16.14 171.794 16.14ZM176.896 16C176.765 16 176.663 15.958 176.588 15.874C176.513 15.79 176.476 15.692 176.476 15.58V9.308C176.476 9.196 176.513 9.098 176.588 9.014C176.672 8.93 176.775 8.888 176.896 8.888C177.017 8.888 177.115 8.93 177.19 9.014C177.274 9.098 177.316 9.196 177.316 9.308V11.408L177.106 11.45C177.134 11.1233 177.213 10.8013 177.344 10.484C177.484 10.1573 177.671 9.85867 177.904 9.588C178.137 9.31733 178.413 9.098 178.73 8.93C179.057 8.762 179.421 8.678 179.822 8.678C179.99 8.678 180.153 8.71533 180.312 8.79C180.471 8.85533 180.55 8.96733 180.55 9.126C180.55 9.266 180.513 9.37333 180.438 9.448C180.363 9.52267 180.275 9.56 180.172 9.56C180.088 9.56 179.995 9.53667 179.892 9.49C179.799 9.44333 179.673 9.42 179.514 9.42C179.253 9.42 178.991 9.49933 178.73 9.658C178.469 9.80733 178.231 10.0127 178.016 10.274C177.801 10.5353 177.629 10.8293 177.498 11.156C177.377 11.4733 177.316 11.7953 177.316 12.122V15.58C177.316 15.692 177.274 15.79 177.19 15.874C177.106 15.958 177.008 16 176.896 16ZM181.485 18.674C181.382 18.674 181.294 18.632 181.219 18.548C181.154 18.4733 181.121 18.3893 181.121 18.296C181.121 18.156 181.182 18.0487 181.303 17.974C181.966 17.5913 182.526 17.1013 182.983 16.504C183.45 15.916 183.804 15.2673 184.047 14.558C184.29 13.8487 184.411 13.1253 184.411 12.388C184.411 11.6507 184.294 10.9227 184.061 10.204C183.828 9.48533 183.478 8.82733 183.011 8.23C182.554 7.63267 181.984 7.152 181.303 6.788C181.191 6.72267 181.135 6.62 181.135 6.48C181.135 6.37733 181.163 6.28867 181.219 6.214C181.284 6.13933 181.373 6.102 181.485 6.102C181.56 6.102 181.63 6.12067 181.695 6.158C182.488 6.55933 183.146 7.08667 183.669 7.74C184.192 8.384 184.584 9.10733 184.845 9.91C185.116 10.7033 185.251 11.5293 185.251 12.388C185.251 13.228 185.111 14.0447 184.831 14.838C184.56 15.622 184.159 16.336 183.627 16.98C183.095 17.624 182.451 18.17 181.695 18.618C181.639 18.6553 181.569 18.674 181.485 18.674ZM192.215 12.864C191.889 12.864 191.59 12.7847 191.319 12.626C191.049 12.458 190.829 12.2387 190.661 11.968C190.503 11.6973 190.423 11.3987 190.423 11.072C190.423 10.736 190.503 10.4327 190.661 10.162C190.829 9.89133 191.049 9.67667 191.319 9.518C191.59 9.35933 191.889 9.28 192.215 9.28C192.542 9.28 192.841 9.35933 193.111 9.518C193.382 9.67667 193.601 9.89133 193.769 10.162C193.937 10.4327 194.021 10.736 194.021 11.072C194.021 11.3987 193.937 11.6973 193.769 11.968C193.601 12.2387 193.382 12.458 193.111 12.626C192.841 12.7847 192.542 12.864 192.215 12.864ZM201.599 16C201.468 16 201.361 15.958 201.277 15.874C201.193 15.79 201.151 15.692 201.151 15.58V7.152L201.305 7.292L199.443 8.538C199.368 8.594 199.289 8.622 199.205 8.622C199.093 8.622 198.99 8.57533 198.897 8.482C198.813 8.38867 198.771 8.286 198.771 8.174C198.771 8.02467 198.845 7.908 198.995 7.824L201.333 6.27C201.389 6.23267 201.445 6.20933 201.501 6.2C201.566 6.19067 201.622 6.19067 201.669 6.2C201.79 6.20933 201.883 6.256 201.949 6.34C202.014 6.41467 202.047 6.508 202.047 6.62V15.58C202.047 15.692 202.005 15.79 201.921 15.874C201.837 15.958 201.729 16 201.599 16ZM207.774 16.14C207.028 16.14 206.402 15.916 205.898 15.468C205.394 15.02 205.016 14.418 204.764 13.662C204.512 12.8967 204.386 12.0427 204.386 11.1C204.386 10.148 204.512 9.294 204.764 8.538C205.016 7.77267 205.394 7.17067 205.898 6.732C206.402 6.284 207.028 6.06 207.774 6.06C208.54 6.06 209.17 6.284 209.664 6.732C210.168 7.17067 210.546 7.77267 210.798 8.538C211.05 9.294 211.176 10.148 211.176 11.1C211.176 12.0427 211.05 12.8967 210.798 13.662C210.546 14.418 210.168 15.02 209.664 15.468C209.17 15.916 208.54 16.14 207.774 16.14ZM207.774 15.272C208.325 15.272 208.782 15.0993 209.146 14.754C209.52 14.4087 209.8 13.9233 209.986 13.298C210.182 12.6633 210.28 11.9307 210.28 11.1C210.28 10.26 210.182 9.52733 209.986 8.902C209.8 8.26733 209.52 7.77733 209.146 7.432C208.782 7.08667 208.325 6.914 207.774 6.914C207.233 6.914 206.776 7.08667 206.402 7.432C206.038 7.77733 205.758 8.26733 205.562 8.902C205.376 9.52733 205.282 10.26 205.282 11.1C205.282 11.9307 205.376 12.6633 205.562 13.298C205.758 13.9233 206.038 14.4087 206.402 14.754C206.776 15.0993 207.233 15.272 207.774 15.272ZM222.743 8.846C222.864 8.846 222.962 8.888 223.037 8.972C223.121 9.056 223.163 9.15867 223.163 9.28V15.58C223.163 15.692 223.121 15.79 223.037 15.874C222.953 15.958 222.855 16 222.743 16C222.621 16 222.519 15.958 222.435 15.874C222.36 15.79 222.323 15.692 222.323 15.58V13.914L222.561 13.802C222.561 14.0633 222.486 14.3293 222.337 14.6C222.197 14.8707 222.001 15.1227 221.749 15.356C221.497 15.5893 221.198 15.7807 220.853 15.93C220.517 16.07 220.153 16.14 219.761 16.14C219.126 16.14 218.557 15.9767 218.053 15.65C217.558 15.3233 217.166 14.8753 216.877 14.306C216.597 13.7367 216.457 13.0973 216.457 12.388C216.457 11.66 216.601 11.0207 216.891 10.47C217.18 9.91 217.572 9.47133 218.067 9.154C218.561 8.83667 219.121 8.678 219.747 8.678C220.148 8.678 220.521 8.748 220.867 8.888C221.221 9.028 221.529 9.21933 221.791 9.462C222.052 9.70467 222.253 9.98467 222.393 10.302C222.542 10.61 222.617 10.932 222.617 11.268L222.323 11.058V9.28C222.323 9.15867 222.36 9.056 222.435 8.972C222.519 8.888 222.621 8.846 222.743 8.846ZM219.831 15.356C220.325 15.356 220.764 15.23 221.147 14.978C221.529 14.7167 221.828 14.362 222.043 13.914C222.267 13.4567 222.379 12.948 222.379 12.388C222.379 11.8373 222.267 11.3427 222.043 10.904C221.828 10.4653 221.529 10.1153 221.147 9.854C220.764 9.59267 220.325 9.462 219.831 9.462C219.345 9.462 218.907 9.588 218.515 9.84C218.132 10.092 217.829 10.4373 217.605 10.876C217.39 11.3147 217.283 11.8187 217.283 12.388C217.283 12.948 217.39 13.4567 217.605 13.914C217.829 14.362 218.132 14.7167 218.515 14.978C218.897 15.23 219.336 15.356 219.831 15.356ZM228.741 8.678C229.357 8.678 229.847 8.804 230.211 9.056C230.584 9.29867 230.85 9.63467 231.009 10.064C231.177 10.484 231.261 10.9507 231.261 11.464V15.58C231.261 15.692 231.219 15.79 231.135 15.874C231.051 15.958 230.953 16 230.841 16C230.71 16 230.607 15.958 230.533 15.874C230.458 15.79 230.421 15.692 230.421 15.58V11.506C230.421 11.1327 230.36 10.792 230.239 10.484C230.117 10.176 229.917 9.92867 229.637 9.742C229.366 9.55533 229.007 9.462 228.559 9.462C228.157 9.462 227.775 9.55533 227.411 9.742C227.056 9.92867 226.767 10.176 226.543 10.484C226.319 10.792 226.207 11.1327 226.207 11.506V15.58C226.207 15.692 226.165 15.79 226.081 15.874C225.997 15.958 225.899 16 225.787 16C225.656 16 225.553 15.958 225.479 15.874C225.404 15.79 225.367 15.692 225.367 15.58V9.308C225.367 9.196 225.404 9.098 225.479 9.014C225.563 8.93 225.665 8.888 225.787 8.888C225.908 8.888 226.006 8.93 226.081 9.014C226.165 9.098 226.207 9.196 226.207 9.308V10.484L225.885 10.988C225.903 10.6893 225.997 10.4047 226.165 10.134C226.342 9.854 226.566 9.60667 226.837 9.392C227.107 9.168 227.406 8.99533 227.733 8.874C228.069 8.74333 228.405 8.678 228.741 8.678ZM236.68 8.79C237.259 8.79 237.754 8.944 238.164 9.252C238.575 9.55067 238.855 9.99867 239.004 10.596L238.808 10.652L238.892 10.4C239.014 10.12 239.214 9.85867 239.494 9.616C239.784 9.364 240.11 9.16333 240.474 9.014C240.838 8.86467 241.207 8.79 241.58 8.79C242.168 8.79 242.64 8.916 242.994 9.168C243.358 9.42 243.62 9.76067 243.778 10.19C243.946 10.61 244.03 11.086 244.03 11.618V15.58C244.03 15.692 243.988 15.79 243.904 15.874C243.83 15.958 243.732 16 243.61 16C243.489 16 243.386 15.958 243.302 15.874C243.228 15.79 243.19 15.692 243.19 15.58V11.66C243.19 11.2773 243.13 10.9273 243.008 10.61C242.887 10.2927 242.696 10.0407 242.434 9.854C242.173 9.66733 241.823 9.574 241.384 9.574C241.002 9.574 240.633 9.66733 240.278 9.854C239.933 10.0407 239.648 10.2927 239.424 10.61C239.21 10.9273 239.102 11.2773 239.102 11.66V15.58C239.102 15.692 239.06 15.79 238.976 15.874C238.902 15.958 238.804 16 238.682 16C238.561 16 238.458 15.958 238.374 15.874C238.3 15.79 238.262 15.692 238.262 15.58V11.618C238.262 11.2353 238.206 10.89 238.094 10.582C237.982 10.274 237.8 10.0313 237.548 9.854C237.296 9.66733 236.956 9.574 236.526 9.574C236.144 9.574 235.78 9.66733 235.434 9.854C235.098 10.0313 234.823 10.274 234.608 10.582C234.403 10.89 234.3 11.2353 234.3 11.618V15.58C234.3 15.692 234.258 15.79 234.174 15.874C234.09 15.958 233.992 16 233.88 16C233.75 16 233.647 15.958 233.572 15.874C233.498 15.79 233.46 15.692 233.46 15.58V9.308C233.46 9.196 233.498 9.098 233.572 9.014C233.656 8.93 233.759 8.888 233.88 8.888C234.002 8.888 234.1 8.93 234.174 9.014C234.258 9.098 234.3 9.196 234.3 9.308V10.61L233.922 11.128C233.95 10.848 234.039 10.568 234.188 10.288C234.347 10.008 234.552 9.756 234.804 9.532C235.056 9.308 235.341 9.13067 235.658 9C235.985 8.86 236.326 8.79 236.68 8.79ZM249.464 16.14C248.745 16.14 248.111 15.986 247.56 15.678C247.009 15.37 246.58 14.9407 246.272 14.39C245.964 13.8393 245.81 13.1953 245.81 12.458C245.81 11.6647 245.964 10.988 246.272 10.428C246.589 9.868 246.995 9.43867 247.49 9.14C247.994 8.832 248.526 8.678 249.086 8.678C249.497 8.678 249.893 8.75267 250.276 8.902C250.668 9.042 251.013 9.25667 251.312 9.546C251.62 9.826 251.863 10.1713 252.04 10.582C252.227 10.9927 252.329 11.4687 252.348 12.01C252.339 12.122 252.292 12.22 252.208 12.304C252.124 12.3787 252.026 12.416 251.914 12.416H246.3L246.132 11.66H251.648L251.466 11.828V11.548C251.429 11.1093 251.289 10.736 251.046 10.428C250.803 10.12 250.509 9.88667 250.164 9.728C249.819 9.56933 249.459 9.49 249.086 9.49C248.806 9.49 248.517 9.546 248.218 9.658C247.929 9.77 247.663 9.94733 247.42 10.19C247.187 10.4233 246.995 10.7267 246.846 11.1C246.697 11.464 246.622 11.898 246.622 12.402C246.622 12.9527 246.734 13.452 246.958 13.9C247.182 14.348 247.504 14.7027 247.924 14.964C248.353 15.2253 248.862 15.356 249.45 15.356C249.777 15.356 250.071 15.3093 250.332 15.216C250.593 15.1227 250.822 15.0013 251.018 14.852C251.214 14.6933 251.377 14.53 251.508 14.362C251.611 14.278 251.713 14.236 251.816 14.236C251.909 14.236 251.989 14.2733 252.054 14.348C252.129 14.4227 252.166 14.5067 252.166 14.6C252.166 14.712 252.119 14.81 252.026 14.894C251.746 15.23 251.382 15.524 250.934 15.776C250.486 16.0187 249.996 16.14 249.464 16.14ZM255.07 15.58C255.07 15.692 255.028 15.79 254.944 15.874C254.86 15.958 254.762 16 254.65 16C254.529 16 254.426 15.958 254.342 15.874C254.267 15.79 254.23 15.692 254.23 15.58V6.06C254.23 5.948 254.272 5.85 254.356 5.766C254.44 5.682 254.538 5.64 254.65 5.64C254.771 5.64 254.869 5.682 254.944 5.766C255.028 5.85 255.07 5.948 255.07 6.06V15.58ZM263.102 5.64C263.223 5.64 263.321 5.682 263.396 5.766C263.48 5.84067 263.522 5.93867 263.522 6.06V15.58C263.522 15.692 263.48 15.79 263.396 15.874C263.312 15.958 263.214 16 263.102 16C262.981 16 262.878 15.958 262.794 15.874C262.719 15.79 262.682 15.692 262.682 15.58V13.914L262.92 13.718C262.92 13.9793 262.85 14.2547 262.71 14.544C262.57 14.824 262.369 15.0853 262.108 15.328C261.856 15.5707 261.557 15.7667 261.212 15.916C260.876 16.0653 260.512 16.14 260.12 16.14C259.495 16.14 258.93 15.9767 258.426 15.65C257.931 15.3233 257.539 14.88 257.25 14.32C256.961 13.76 256.816 13.1207 256.816 12.402C256.816 11.6927 256.961 11.058 257.25 10.498C257.539 9.92867 257.931 9.48533 258.426 9.168C258.921 8.84133 259.481 8.678 260.106 8.678C260.489 8.678 260.853 8.748 261.198 8.888C261.543 9.028 261.847 9.21933 262.108 9.462C262.379 9.70467 262.589 9.98467 262.738 10.302C262.897 10.61 262.976 10.932 262.976 11.268L262.682 11.058V6.06C262.682 5.948 262.719 5.85 262.794 5.766C262.878 5.682 262.981 5.64 263.102 5.64ZM260.19 15.356C260.694 15.356 261.133 15.23 261.506 14.978C261.889 14.7167 262.187 14.3667 262.402 13.928C262.626 13.48 262.738 12.9713 262.738 12.402C262.738 11.842 262.626 11.3427 262.402 10.904C262.187 10.456 261.889 10.106 261.506 9.854C261.123 9.59267 260.685 9.462 260.19 9.462C259.705 9.462 259.266 9.59267 258.874 9.854C258.491 10.106 258.188 10.456 257.964 10.904C257.749 11.3427 257.642 11.842 257.642 12.402C257.642 12.962 257.749 13.466 257.964 13.914C258.188 14.362 258.491 14.7167 258.874 14.978C259.266 15.23 259.705 15.356 260.19 15.356ZM268.96 16.14C268.241 16.14 267.607 15.986 267.056 15.678C266.505 15.37 266.076 14.9407 265.768 14.39C265.46 13.8393 265.306 13.1953 265.306 12.458C265.306 11.6647 265.46 10.988 265.768 10.428C266.085 9.868 266.491 9.43867 266.986 9.14C267.49 8.832 268.022 8.678 268.582 8.678C268.993 8.678 269.389 8.75267 269.772 8.902C270.164 9.042 270.509 9.25667 270.808 9.546C271.116 9.826 271.359 10.1713 271.536 10.582C271.723 10.9927 271.825 11.4687 271.844 12.01C271.835 12.122 271.788 12.22 271.704 12.304C271.62 12.3787 271.522 12.416 271.41 12.416H265.796L265.628 11.66H271.144L270.962 11.828V11.548C270.925 11.1093 270.785 10.736 270.542 10.428C270.299 10.12 270.005 9.88667 269.66 9.728C269.315 9.56933 268.955 9.49 268.582 9.49C268.302 9.49 268.013 9.546 267.714 9.658C267.425 9.77 267.159 9.94733 266.916 10.19C266.683 10.4233 266.491 10.7267 266.342 11.1C266.193 11.464 266.118 11.898 266.118 12.402C266.118 12.9527 266.23 13.452 266.454 13.9C266.678 14.348 267 14.7027 267.42 14.964C267.849 15.2253 268.358 15.356 268.946 15.356C269.273 15.356 269.567 15.3093 269.828 15.216C270.089 15.1227 270.318 15.0013 270.514 14.852C270.71 14.6933 270.873 14.53 271.004 14.362C271.107 14.278 271.209 14.236 271.312 14.236C271.405 14.236 271.485 14.2733 271.55 14.348C271.625 14.4227 271.662 14.5067 271.662 14.6C271.662 14.712 271.615 14.81 271.522 14.894C271.242 15.23 270.878 15.524 270.43 15.776C269.982 16.0187 269.492 16.14 268.96 16.14ZM274.566 15.58C274.566 15.692 274.524 15.79 274.44 15.874C274.356 15.958 274.258 16 274.146 16C274.025 16 273.922 15.958 273.838 15.874C273.763 15.79 273.726 15.692 273.726 15.58V6.06C273.726 5.948 273.768 5.85 273.852 5.766C273.936 5.682 274.034 5.64 274.146 5.64C274.267 5.64 274.365 5.682 274.44 5.766C274.524 5.85 274.566 5.948 274.566 6.06V15.58ZM276.463 14.866C276.388 14.754 276.351 14.6467 276.351 14.544C276.36 14.432 276.421 14.3433 276.533 14.278C276.607 14.2127 276.691 14.1847 276.785 14.194C276.887 14.2033 276.981 14.25 277.065 14.334C277.317 14.6607 277.62 14.9267 277.975 15.132C278.339 15.328 278.768 15.426 279.263 15.426C279.524 15.426 279.781 15.384 280.033 15.3C280.294 15.2067 280.509 15.0713 280.677 14.894C280.845 14.7073 280.929 14.474 280.929 14.194C280.929 13.9047 280.845 13.6713 280.677 13.494C280.509 13.3167 280.289 13.1767 280.019 13.074C279.757 12.9713 279.477 12.8827 279.179 12.808C278.861 12.724 278.553 12.6307 278.255 12.528C277.956 12.416 277.69 12.2807 277.457 12.122C277.233 11.954 277.051 11.7533 276.911 11.52C276.771 11.2867 276.701 11.002 276.701 10.666C276.701 10.274 276.808 9.92867 277.023 9.63C277.237 9.33133 277.527 9.098 277.891 8.93C278.264 8.762 278.684 8.678 279.151 8.678C279.384 8.678 279.636 8.71067 279.907 8.776C280.177 8.832 280.443 8.93 280.705 9.07C280.966 9.21 281.199 9.40133 281.405 9.644C281.489 9.728 281.531 9.826 281.531 9.938C281.531 10.0407 281.484 10.134 281.391 10.218C281.316 10.274 281.227 10.302 281.125 10.302C281.031 10.302 280.952 10.2647 280.887 10.19C280.663 9.938 280.397 9.74667 280.089 9.616C279.781 9.48533 279.449 9.42 279.095 9.42C278.824 9.42 278.567 9.46667 278.325 9.56C278.091 9.644 277.895 9.77467 277.737 9.952C277.578 10.1293 277.499 10.3627 277.499 10.652C277.517 10.9227 277.611 11.142 277.779 11.31C277.956 11.478 278.185 11.618 278.465 11.73C278.754 11.842 279.076 11.9447 279.431 12.038C279.729 12.1127 280.014 12.2013 280.285 12.304C280.565 12.4067 280.807 12.5373 281.013 12.696C281.227 12.8453 281.395 13.0367 281.517 13.27C281.647 13.5033 281.713 13.7973 281.713 14.152C281.713 14.5627 281.596 14.9173 281.363 15.216C281.139 15.5147 280.835 15.7433 280.453 15.902C280.07 16.0607 279.645 16.14 279.179 16.14C278.675 16.14 278.185 16.042 277.709 15.846C277.242 15.65 276.827 15.3233 276.463 14.866ZM286.665 16.14C285.947 16.14 285.312 15.986 284.761 15.678C284.211 15.37 283.781 14.9407 283.473 14.39C283.165 13.8393 283.011 13.1953 283.011 12.458C283.011 11.6647 283.165 10.988 283.473 10.428C283.791 9.868 284.197 9.43867 284.691 9.14C285.195 8.832 285.727 8.678 286.287 8.678C286.698 8.678 287.095 8.75267 287.477 8.902C287.869 9.042 288.215 9.25667 288.513 9.546C288.821 9.826 289.064 10.1713 289.241 10.582C289.428 10.9927 289.531 11.4687 289.549 12.01C289.54 12.122 289.493 12.22 289.409 12.304C289.325 12.3787 289.227 12.416 289.115 12.416H283.501L283.333 11.66H288.849L288.667 11.828V11.548C288.63 11.1093 288.49 10.736 288.247 10.428C288.005 10.12 287.711 9.88667 287.365 9.728C287.02 9.56933 286.661 9.49 286.287 9.49C286.007 9.49 285.718 9.546 285.419 9.658C285.13 9.77 284.864 9.94733 284.621 10.19C284.388 10.4233 284.197 10.7267 284.047 11.1C283.898 11.464 283.823 11.898 283.823 12.402C283.823 12.9527 283.935 13.452 284.159 13.9C284.383 14.348 284.705 14.7027 285.125 14.964C285.555 15.2253 286.063 15.356 286.651 15.356C286.978 15.356 287.272 15.3093 287.533 15.216C287.795 15.1227 288.023 15.0013 288.219 14.852C288.415 14.6933 288.579 14.53 288.709 14.362C288.812 14.278 288.915 14.236 289.017 14.236C289.111 14.236 289.19 14.2733 289.255 14.348C289.33 14.4227 289.367 14.5067 289.367 14.6C289.367 14.712 289.321 14.81 289.227 14.894C288.947 15.23 288.583 15.524 288.135 15.776C287.687 16.0187 287.197 16.14 286.665 16.14ZM291.767 16C291.637 16 291.534 15.958 291.459 15.874C291.385 15.79 291.347 15.692 291.347 15.58V9.308C291.347 9.196 291.385 9.098 291.459 9.014C291.543 8.93 291.646 8.888 291.767 8.888C291.889 8.888 291.987 8.93 292.061 9.014C292.145 9.098 292.187 9.196 292.187 9.308V11.408L291.977 11.45C292.005 11.1233 292.085 10.8013 292.215 10.484C292.355 10.1573 292.542 9.85867 292.775 9.588C293.009 9.31733 293.284 9.098 293.601 8.93C293.928 8.762 294.292 8.678 294.693 8.678C294.861 8.678 295.025 8.71533 295.183 8.79C295.342 8.85533 295.421 8.96733 295.421 9.126C295.421 9.266 295.384 9.37333 295.309 9.448C295.235 9.52267 295.146 9.56 295.043 9.56C294.959 9.56 294.866 9.53667 294.763 9.49C294.67 9.44333 294.544 9.42 294.385 9.42C294.124 9.42 293.863 9.49933 293.601 9.658C293.34 9.80733 293.102 10.0127 292.887 10.274C292.673 10.5353 292.5 10.8293 292.369 11.156C292.248 11.4733 292.187 11.7953 292.187 12.122V15.58C292.187 15.692 292.145 15.79 292.061 15.874C291.977 15.958 291.879 16 291.767 16Z" fill="black"/>
<defs>
<clipPath id="clip0_101_6854">
<rect width="96" height="15.2002" fill="white" transform="translate(0 2.8999)"/>
</clipPath>
</defs>
</svg>
