<?xml version="1.0" encoding="UTF-8"?>
<svg id="Layer_1" data-name="Layer 1" xmlns="http://www.w3.org/2000/svg" viewBox="0 0 383.32 384">
  <path d="M164.75,0l21.11,3.22c83.18,17.77,136.32,98.81,119.39,182.93-4.63,23.02-15.4,44.18-28.89,63.12l100.99,101.34c2.94,2.93,4.32,6.45,5.97,10.14v7.5c-2.4,8.06-7.72,13.35-15.72,15.75h-6.74c-3.84-1.37-7.38-2.87-10.49-5.62l-101.52-101.58c-73.37,56.68-181.75,35.81-227.96-44.55C-36.14,133.04,29.85,8.62,142.73.78l1.81-.78h20.21ZM148.88,38.47C57.67,43.29,6.09,147.25,60.09,222.24c49.51,68.74,154.08,63.06,195.36-10.98,44.15-79.2-16.31-177.55-106.58-172.78Z"/>
</svg>