<?xml version="1.0" encoding="UTF-8"?>
<svg id="Layer_1" data-name="Layer 1" xmlns="http://www.w3.org/2000/svg" viewBox="0 0 137.79 166.44">
  <path d="M4.47,166.44c-2.36-1.03-3.97-2.51-4.47-5.12,3.33-38.77,6.56-77.72,10.59-116.39.4-1.24,2.91-3.68,4.13-3.68h22.27c-.2-8.64-.4-16.58,3.73-24.39,11.15-21.09,40.95-22.73,54.41-3.02,5.81,8.5,5.95,17.4,5.59,27.42h22.27c1.27,0,3.89,2.58,4.22,3.9l10.58,114.63c.08,3.41-1.59,5.35-4.56,6.65H4.47ZM88.69,41.25v-12.19c0-1.13-1.51-5.18-2.1-6.36-7.16-14.3-28.32-14.29-35.47,0-.59,1.18-2.1,5.23-2.1,6.36v12.19h39.67ZM36.99,53.28h-15.61l-8.78,101.12h112.5l-9.27-101.12h-15.12v11.54c0,.74-1.17,2.72-1.74,3.3-2.7,2.71-7.2,2.09-9.26-1.07-.19-.29-1.03-2.08-1.03-2.22v-11.54h-39.67v11.54c0,.14-.84,1.94-1.03,2.22-2.06,3.17-6.56,3.78-9.26,1.07-.57-.57-1.74-2.56-1.74-3.3v-11.54Z"/>
</svg>