<svg width="168" height="24" viewBox="0 0 168 24" fill="none" xmlns="http://www.w3.org/2000/svg">
<path d="M22 12.3033C22 6.7467 17.5229 2.24219 12 2.24219C6.47715 2.24219 2 6.7467 2 12.3033C2 17.325 5.65684 21.4874 10.4375 22.2422V15.2116H7.89844V12.3033H10.4375V10.0867C10.4375 7.56515 11.9305 6.17231 14.2146 6.17231C15.3088 6.17231 16.4531 6.36882 16.4531 6.36882V8.8448H15.1922C13.95 8.8448 13.5625 9.62041 13.5625 10.4161V12.3033H16.3359L15.8926 15.2116H13.5625V22.2422C18.3432 21.4874 22 17.3252 22 12.3033Z" fill="#3C3D36"/>
<path fill-rule="evenodd" clip-rule="evenodd" d="M52 3.24219H44C41.2386 3.24219 39 5.48077 39 8.24219V16.2422C39 19.0036 41.2386 21.2422 44 21.2422H52C54.7614 21.2422 57 19.0036 57 16.2422V8.24219C57 5.48077 54.7614 3.24219 52 3.24219ZM55.25 16.2422C55.2445 18.0348 53.7926 19.4867 52 19.4922H44C42.2074 19.4867 40.7555 18.0348 40.75 16.2422V8.24219C40.7555 6.44954 42.2074 4.99768 44 4.99219H52C53.7926 4.99768 55.2445 6.44954 55.25 8.24219V16.2422ZM52.75 8.49219C53.3023 8.49219 53.75 8.04447 53.75 7.49219C53.75 6.93991 53.3023 6.49219 52.75 6.49219C52.1977 6.49219 51.75 6.93991 51.75 7.49219C51.75 8.04447 52.1977 8.49219 52.75 8.49219ZM48 7.74219C45.5147 7.74219 43.5 9.75691 43.5 12.2422C43.5 14.7275 45.5147 16.7422 48 16.7422C50.4853 16.7422 52.5 14.7275 52.5 12.2422C52.5027 11.0479 52.0294 9.90176 51.1849 9.05727C50.3404 8.21278 49.1943 7.73953 48 7.74219ZM45.25 12.2422C45.25 13.761 46.4812 14.9922 48 14.9922C49.5188 14.9922 50.75 13.761 50.75 12.2422C50.75 10.7234 49.5188 9.49219 48 9.49219C46.4812 9.49219 45.25 10.7234 45.25 12.2422Z" fill="#3C3D36"/>
<path d="M89.1761 4.24219H91.9362L85.9061 11.0196L93 20.2422H87.4456L83.0951 14.6488L78.1172 20.2422H75.3554L81.8052 12.993L75 4.24219H80.6954L84.6279 9.35481L89.1761 4.24219ZM88.2073 18.6176H89.7368L79.8644 5.78147H78.2232L88.2073 18.6176Z" fill="#3C3D36"/>
<path fill-rule="evenodd" clip-rule="evenodd" d="M112.5 3.24219C111.672 3.24219 111 3.91376 111 4.74219V19.7422C111 20.5706 111.672 21.2422 112.5 21.2422H127.5C128.328 21.2422 129 20.5706 129 19.7422V4.74219C129 3.91376 128.328 3.24219 127.5 3.24219H112.5ZM116.521 7.24491C116.526 8.20116 115.811 8.79038 114.961 8.78616C114.161 8.78194 113.464 8.14491 113.468 7.24632C113.472 6.40116 114.14 5.72194 115.008 5.74163C115.888 5.76132 116.526 6.40679 116.521 7.24491ZM120.28 10.0039H117.76H117.758V18.5638H120.422V18.3641C120.422 17.9842 120.421 17.6042 120.421 17.2241C120.42 16.2103 120.419 15.1954 120.425 14.1819C120.426 13.9358 120.437 13.6799 120.5 13.445C120.738 12.5675 121.527 12.0008 122.407 12.1401C122.973 12.2286 123.347 12.5563 123.504 13.0893C123.601 13.4225 123.645 13.7811 123.649 14.1285C123.661 15.1761 123.659 16.2237 123.657 17.2714C123.657 17.6412 123.656 18.0112 123.656 18.381V18.5624H126.328V18.3571C126.328 17.9051 126.328 17.4532 126.327 17.0013C126.327 15.8718 126.326 14.7423 126.329 13.6124C126.331 13.1019 126.276 12.5985 126.151 12.1049C125.964 11.3708 125.577 10.7633 124.948 10.3246C124.503 10.0124 124.013 9.81129 123.466 9.78879C123.404 9.7862 123.341 9.78281 123.278 9.7794C122.998 9.76428 122.714 9.74892 122.447 9.80285C121.682 9.95613 121.01 10.3063 120.502 10.9236C120.443 10.9944 120.385 11.0663 120.299 11.1736L120.28 11.1979V10.0039ZM113.682 18.5666H116.332V10.0095H113.682V18.5666Z" fill="#3C3D36"/>
<path d="M165.593 7.20301C165.479 6.78041 165.256 6.39501 164.947 6.08518C164.638 5.77534 164.253 5.55187 163.831 5.43701C162.265 5.00701 156 5.00001 156 5.00001C156 5.00001 149.736 4.99301 148.169 5.40401C147.747 5.52415 147.363 5.75078 147.053 6.06214C146.744 6.3735 146.52 6.75913 146.403 7.18201C145.99 8.74801 145.986 11.996 145.986 11.996C145.986 11.996 145.982 15.26 146.392 16.81C146.622 17.667 147.297 18.344 148.155 18.575C149.737 19.005 155.985 19.012 155.985 19.012C155.985 19.012 162.25 19.019 163.816 18.609C164.238 18.4943 164.624 18.2714 164.933 17.9622C165.243 17.653 165.467 17.2682 165.583 16.846C165.997 15.281 166 12.034 166 12.034C166 12.034 166.02 8.76901 165.593 7.20301ZM153.996 15.005L154.001 9.00501L159.208 12.01L153.996 15.005Z" fill="#3C3D36"/>
</svg>
