<?xml version="1.0" encoding="UTF-8"?>
<svg id="Layer_1" data-name="Layer 1" xmlns="http://www.w3.org/2000/svg" viewBox="0 0 341.22 383.07">
  <path d="M97.11,383.07c-2.87-2.08-4.82-4.29-3.18-8.04,1.8-4.14,12.34-11.21,15.25-15.52.45-.67.87-1.03.4-1.9l-47.59-49.19c-1.14-5.46,4.8-8.92,9.25-5.44l37.6,37.38,8.55-8.55-65.65-66.23-8.57,8.7c-.31,1.79,9.89,9.2,10.86,12.21,1.91,5.94-3.16,9.29-8.33,6.81-3.32-2.56-17.76-19.3-20.25-19.54-4.33-.42-13.65,16.66-20.89,15.74-4.81-.61-5.76-5.31-3.1-9,2.08-2.88,12.03-12.58,15.01-14.96,5.74-4.58,12.52-4.13,18.03.64,5.82-4.6,11.09-14.64,19.89-12.25,2.87.78,4.02,3.56,6.71,4.13,14.02-22.88,23.47-53.03,50.25-64-11.65-11.61-20.14-26.93-24.67-42.73-8.57-29.85-11.41-63.2-18.82-93.54-.3-4.49,1.86-9.69,5.75-12.2,1.98-1.28,15.98-6.55,18.07-6.72,5.2-.44,8.35,6.35,3.98,10.02-2.4,2.02-16.29,5.45-16.6,6.82l8.23,42.44c.66.94,6.69,1.58,8.48,2.18,21.93,7.39,33.64,34.33,62.02,17.31,18.71-11.22,20.71-23.96,48.35-21.18,20.77,2.09,28.62,21.23,48.46,23.86-1.03-9.43-3.92-18.52-7.6-27.21L202.12,11.37c-1.28-.81-4.12.67-5.64,1.16-25.92,8.38-51.54,19.58-77.42,28.28-7.73,2.31-11.1-7.62-3.95-10.69,26.71-7.71,53.75-21.84,80.29-29.15,8.23-2.27,12.81-.73,17.53,6.39,12.76,25.74,29.54,50.57,42.08,76.27,5.96,12.22,10.64,26,10.87,39.69,8.99-11.52,20.89-18.36,35.84-14.44,11.45,3,19.31,12.61,12.9,24.17,10.84,2.24,19.65,11.35,14.14,22.73-20.91,34.01-37.47,74.03-59.01,107.28-1.94,3-4.08,5.82-6.87,8.12-1.75,1.45-8.22,4.69-8.25,5.92l10.11,28.13c2.2,4.65,10.3,5.39,15.01,5.98,11.26,1.41,41.25-.36,49.07,4.92,8.2,5.55,7.38,16.98-.93,22.18-3.46,2.16-19.25,7.87-23.48,8.81-6.82,1.53-10.52-5.46-6.06-9.47,3.07-2.76,24.68-7.55,25.09-10.33.04-.25-.51-1.48-.76-1.7-2.49-2.27-37.1-2.41-43.68-3.18-6.42-.76-17.25-2.66-21.68-7.55-5.73-10.7-9.09-22.87-13.24-34.33l-11.9,3.79c-.4.56.23,2.03.45,2.77,2.66,8.98,11.61,25.79,10.74,34.21-1.4,13.46-27.63,31.91-37.14,41.52-1.71,1.73-9.8,10.05-2.59,8.69l72.86-26.15c6.08-.47,8.75,5.11,4.89,9.76l-76.27,27.93h-5.25c-18.41-9.16-9.72-20.29,1.11-30.71,5.91-5.69,30.09-25.21,31.14-31.85.88-5.58-9.53-25.14-10.95-31.81l-94.05,34.86c-1.36.9,1.25,2.96,1.79,4.19,4.16,9.55-6.65,14.14-11.43,20.62,11.26,16.25-7.23,24.44-16.61,34.7h-3.75ZM255.32,131.6c-25.93-.55-32.45-26.43-59.57-23.98-15.88,1.43-22.9,15.46-35.88,21.83-11.91,5.84-27.32,5.73-39.27,0-10.93-5.23-18.59-16.71-30.98-18.85,5.38,30.46,10.79,62.7,37.14,82.32l96.61-.11,30.84-49.32,1.12-11.9ZM301.7,132.89c.31-.22,3.44-6.01,3.59-6.56.78-2.8-.18-3.72-2.5-5.06-9.09-5.26-20.63-1.16-26.3,7.05l-40.52,65.91c-.56,2.07,1.92,2.62,3.29,3.92,2.19,2.08,4.25,4.26,5.98,6.74,1.01.02,8.88-15.02,10.55-17.15,5.93-7.53,13.67-2.49,9.46,6.44-2.83,5.99-20.8,35.22-24.88,38.8-4.31,3.77-10.4,5.98-16.1,6.39-22.79,1.65-47.54-1.31-70.55-.02-6.76-.11-8-10.16-1.44-11.2,23.22-1.65,49.09,2.03,71.98-.02,14.56-1.3,16.65-18.71,3.4-23.66l-109.73-.13c-15.38,3.51-22.41,16.12-29.95,28.49-6.77,11.11-12.8,22.8-19.03,34.2l48.81,47.92,134.84-50.31,4.65-3.59,61.52-110.03c2.01-4.51-3.59-6.52-7.12-7.17-7.84-1.44-14.82,1.19-19.85,7.21-3.25,3.9-10.75,19.28-13.51,20.94-5.21,3.14-10.13-1.23-8.1-7.34,2.26-6.79,14.68-23.9,20.95-27.74,2.84-1.74,9.67-3.42,10.56-4.06Z"/>
  <path d="M306.92,23.9c4.63-.94,15.47,7.41,18.87,10.8,13.36,13.33,18.33,32.87,13.79,51.04-1.21,4.82-3.77,14.67-10.7,11.75-6.14-2.59-1.21-10.31-.24-14.43,3.84-16.31-1.26-32.99-14.42-43.55-2.54-2.04-9.66-5.28-10.77-7.21-1.88-3.26-.25-7.64,3.46-8.39Z"/>
  <path d="M37.67,204.72c-4.43,4.08-13.67-2.76-17.42-5.81C3.25,185.09-3.41,162.34,3.17,141.47c1.59-5.03,3.67-11.75,10.52-8.6,5.49,2.52-.12,12.13-.99,16.62-2.84,14.59,2.28,29.93,13.56,39.69,3.56,3.08,13.37,6.85,13.09,11.56-.04.7-1.21,3.55-1.68,3.98Z"/>
  <path d="M34.67,138.43c3.97-.81,7.2,2.21,6.92,6.14-.15,2.1-1.85,4.58-2.16,6.89-1.06,7.74,1.41,15.17,7.5,20.08,3.22,2.59,11.43,5.68,6.28,11.64-7.02,8.14-21.55-11-23.64-17.53-1.89-5.91-2.72-25.63,5.09-27.23Z"/>
  <path d="M309.93,90.2c-2.42,2.28-8.13,1.31-9.24-2.01-1.22-3.69,1.54-7.01,1.91-10.9.73-7.84-1.88-14.1-7.88-19.06-3.57-2.95-8.88-3.45-6.95-9.97,1.95-6.57,10.46-1.55,13.7.98,10.68,8.35,14.84,22.01,11.12,35.01-.29,1-2.16,5.48-2.66,5.95Z"/>
  <path d="M126.17,153.4c7.53-1.54,9.58,9.4,2.66,10.94-8.02,1.79-9.36-9.58-2.66-10.94Z"/>
  <path d="M139.65,169.13c7.66-2.3,10.43,8.75,3.99,10.76-7.88,2.46-10.32-8.86-3.99-10.76Z"/>
  <path d="M191.82,136.26c5.5-5.47,13.35,3.79,8.02,8.37-5.51,4.73-13.18-3.23-8.02-8.37Z"/>
  <path d="M211.6,148.25c6.71-.35,8.39,9.83,2.1,11-9.27,1.72-9.09-10.63-2.1-11Z"/>
  <path d="M146.41,149.67c8.78-1.89,9.46,10.27,1.89,10.94-5.87.52-8.62-9.5-1.89-10.94Z"/>
  <path d="M192.1,154.24c6.73-.37,8.28,10.73.62,11.06-8.07.34-7.32-10.69-.62-11.06Z"/>
</svg>